<svg xmlns="http://www.w3.org/2000/svg" viewBox="2891 -156 48 48"><defs><style>.a{fill:#fff;}.b{fill:#b1ecff;}.c,.d,.e{fill:none;}.c,.d{stroke:#005be6;stroke-linejoin:round;stroke-miterlimit:10;stroke-width:2px;}.c{stroke-linecap:round;}</style></defs><g transform="translate(2891 -156)"><g transform="translate(1 7)"><path class="a" d="M8.5,19.5l-8-8h16Z" transform="translate(-0.5 4.5)"/><path class="a" d="M22.5,19.5l-8-8h16Z" transform="translate(13.5 4.5)"/><path class="b" d="M4.5,19.5v-8h8Z" transform="translate(3.5 4.5)"/><path class="b" d="M18.5,19.5v-8h8Z" transform="translate(17.5 4.5)"/><line class="c" x2="36" transform="translate(4 4)"/><line class="c" y2="36" transform="translate(22)"/><line class="c" x2="12" transform="translate(16 36)"/><line class="d" y2="12" transform="translate(8 4)"/><line class="d" y2="12" transform="translate(36 4)"/><path class="d" d="M8.5,19.5l-8-8h16Z" transform="translate(-0.5 4.5)"/><path class="d" d="M22.5,19.5l-8-8h16Z" transform="translate(13.5 4.5)"/></g><rect class="e" width="48" height="48"/></g></svg>