<svg xmlns="http://www.w3.org/2000/svg" viewBox="-16 1717 24 24"><defs><style>.a{fill:none;}.b{fill:#0574eb;}</style></defs><g transform="translate(-16 1717)"><rect class="a" width="24" height="24"/><path class="b" d="M10,15H7.121a2.373,2.373,0,0,1,1.551-1.788,8.961,8.961,0,0,1-.98-1.752A4.323,4.323,0,0,0,5.078,15H4v2H5.077A4.6,4.6,0,0,0,10,21V19a2.646,2.646,0,0,1-2.879-2H10Z"/><path class="b" d="M16,16A8,8,0,1,0,8,8,8.009,8.009,0,0,0,16,16ZM16,2a6,6,0,1,1-6,6A6.007,6.007,0,0,1,16,2Z"/><path class="b" d="M15,13h2V11.95A2.5,2.5,0,0,0,16.5,7h-1a.5.5,0,0,1,0-1H19V4H17V3H15V4.05A2.5,2.5,0,0,0,15.5,9h1a.5.5,0,0,1,0,1H13v2h2Z"/><path class="b" d="M4,7,8,3H5V2H9V0H4A1,1,0,0,0,3,1V3H0Z"/><path class="b" d="M20,17l-4,4h3v1H15v2h5a1,1,0,0,0,1-1V21h3Z"/><path class="b" d="M13.947,16.756a6,6,0,1,1-6.7-6.7A9.061,9.061,0,0,1,7,8.069,8,8,0,1,0,15.931,17,9.008,9.008,0,0,1,13.947,16.756Z"/></g></svg>