<svg xmlns="http://www.w3.org/2000/svg" viewBox="2328 234 48 48"><defs><style>.a{fill:#fff;}.b{fill:#b1ecff;}.c,.d{fill:none;}.c{stroke:#005be6;stroke-linecap:round;stroke-linejoin:round;stroke-width:2px;}</style></defs><g transform="translate(2328 234)"><g transform="translate(2 4)"><path class="a" d="M40,19,30,22l-13.046-.932L21,15l-1-3L10,18,5,24,1,25l4,9,11-5H30l11-7Z" transform="translate(-1 8)"/><path class="a" d="M13.5,8.3,23.5,3l10,5.3V19.7L23.5,25l-10-5.3Z" transform="translate(11.5 -1)"/><path class="a" d="M19.5,15.5l-8,4.5-8-4.5v-9l8-4.5,8,4.5Z" transform="translate(1.5 -2)"/><path class="b" d="M23.5,17.5l10-5.3-3-1.7-7,4-7-4-3,1.7Z" transform="translate(11.5 6.5)"/><path class="b" d="M19.5,4.25v9l-8,4.5-8-4.5Z" transform="translate(1.5 0.25)"/><path class="c" d="M3,30.5l11-5H28l11-7-1-3-10,3-14-1" transform="translate(1 11.5)"/><path class="c" d="M16.954,21.068,21,15l-1-3L10,18,5,24,1,25" transform="translate(-1 8)"/><path class="c" d="M13.5,8.3,23.5,3l10,5.3V19.7L23.5,25l-10-5.3Z" transform="translate(11.5 -1)"/><path class="c" d="M19.5,15.5l-8,4.5-8-4.5v-9l8-4.5,8,4.5Z" transform="translate(1.5 -2)"/></g><rect class="d" width="48" height="48"/></g></svg>