<svg xmlns="http://www.w3.org/2000/svg" viewBox="526 1509 24 24"><defs><style>.a{fill:#0574eb;}.b{fill:#286ce3;}</style></defs><g transform="translate(526 1509)"><path class="a" d="M4,2A2,2,0,1,0,2,4a2.01,2.01,0,0,0,.512-.074L5.793,7.207,7.207,5.793,3.926,2.512A2.01,2.01,0,0,0,4,2Z"/><path class="a" d="M2,14a1.993,1.993,0,0,0,1.723-1H6V11H3.723A2,2,0,1,0,2,14Z"/><path class="a" d="M5.793,16.793,2.512,20.075A1.967,1.967,0,0,0,2,20a2.033,2.033,0,1,0,1.926,1.488l3.281-3.282Z"/><path class="a" d="M22,10a1.994,1.994,0,0,0-1.723,1H18v2h2.277A2,2,0,1,0,22,10Z"/><path class="a" d="M18.207,7.207l3.281-3.281A2,2,0,1,0,20,2a2.017,2.017,0,0,0,.074.512L16.793,5.793Z"/><path class="a" d="M22,20a1.967,1.967,0,0,0-.512.075l-3.281-3.282-1.414,1.414,3.281,3.282A2,2,0,1,0,22,20Z"/><path class="a" d="M12,5A4,4,0,0,0,8,9h2a2,2,0,1,1,2,2H11v4h2V12.874A4,4,0,0,0,12,5Z"/><circle class="b" cx="1" cy="1" r="1" transform="translate(11 16)"/></g></svg>