<svg xmlns="http://www.w3.org/2000/svg" viewBox="-16 1509 24 24"><defs><style>.a{fill:none;}.b{fill:#0574eb;}</style></defs><g transform="translate(-16 1509)"><rect class="a" width="24" height="24"/><path class="b" d="M2,12A10.011,10.011,0,0,0,12,22V20a7.949,7.949,0,0,1-3-.589V16h3V14H9V10h3V8H9V4.59A7.93,7.93,0,0,1,12,4V2A10.011,10.011,0,0,0,2,12Zm5,6.235A8.039,8.039,0,0,1,5.082,16H7ZM7,14H4.264a7.708,7.708,0,0,1,0-4H7ZM7,5.765V8H5.082A8.039,8.039,0,0,1,7,5.765Z"/><path class="b" d="M17,8h5V6H19V4H17V6a3,3,0,0,0-3,3v1a3,3,0,0,0,3,3h2a1,1,0,0,1,1,1v1a1,1,0,0,1-1,1H14v2h3v2h2V18h0a3,3,0,0,0,3-3V14a3,3,0,0,0-3-3H17a1,1,0,0,1-1-1V9A1,1,0,0,1,17,8Z"/></g></svg>