<svg xmlns="http://www.w3.org/2000/svg" viewBox="526 1717 24 24"><defs><style>.a{fill:none;}.b{fill:#0574eb;}</style></defs><g transform="translate(526 1717)"><rect class="a" width="24" height="24"/><path class="b" d="M15,3V4.05A2.5,2.5,0,0,0,15.5,9h1a.5.5,0,0,1,0,1H15v3h2V11.95A2.5,2.5,0,0,0,16.5,7h-1a.5.5,0,0,1,0-1H19V4H17V3Z"/><path class="b" d="M19,18a1,1,0,0,1-1,1H13v2h4a1,1,0,0,1-1,1H8.414L6,19.586V14.414L8.414,12H12v1a1,1,0,0,1-1,1H9v2h2a3,3,0,0,0,3-3V11a1,1,0,0,0-1-1H8a.992.992,0,0,0-.707.294L5.46,12.126A.974.974,0,0,0,5,12H1a1,1,0,0,0-1,1v8a1,1,0,0,0,1,1H5a.974.974,0,0,0,.46-.126l1.833,1.834A1,1,0,0,0,8,24h8a3,3,0,0,0,3-3v-.184A2.994,2.994,0,0,0,21,18V17H19ZM4,20H2V14H4Z"/><path class="b" d="M16,0A7.954,7.954,0,0,0,8.069,9H10.09A6.04,6.04,0,1,1,15,13.91v2.021A8,8,0,1,0,16,0Z"/></g></svg>