<svg xmlns="http://www.w3.org/2000/svg" viewBox="526 1327 24 24"><defs><style>.a{fill:none;}.b{fill:#0574eb;}</style></defs><g transform="translate(526 1327)"><rect class="a" width="24" height="24"/><path class="b" d="M23.885,12.558l.01-.005L20.618,6H22V4H13V2H11V4H2V6H3.382L.106,12.553l.01.005A.959.959,0,0,0,0,13a5,5,0,0,0,10,0,.971.971,0,0,0-.115-.442l.01-.005L6.618,6H11V20H8v2h8V20H13V6h4.382l-3.276,6.553.01.005A.959.959,0,0,0,14,13a5,5,0,0,0,10,0A.971.971,0,0,0,23.885,12.558ZM5,7.236,7.382,12H2.618ZM5,16a3,3,0,0,1-2.828-2H7.828A3,3,0,0,1,5,16Zm16.382-4H16.618L19,7.236ZM19,16a3,3,0,0,1-2.828-2h5.656A3,3,0,0,1,19,16Z"/></g></svg>