<svg xmlns="http://www.w3.org/2000/svg" viewBox="9981 667 24 24"><defs><style>.a{fill:#fff;}.b{fill:#3c3c58;stroke:rgba(0,0,0,0);}</style></defs><g transform="translate(8738 -839)"><rect class="a" width="24" height="24" transform="translate(1243 1506)"/><path class="b" d="M1.8-14.277H7.4q3.829,0,5.559,1.09a3.793,3.793,0,0,1,1.73,3.466,4.367,4.367,0,0,1-.757,2.647,3.025,3.025,0,0,1-2.013,1.244v.123A3.966,3.966,0,0,1,14.386-4.28,4.646,4.646,0,0,1,15.143-1.5a4.585,4.585,0,0,1-1.779,3.841A7.694,7.694,0,0,1,8.531,3.723H1.8ZM5.614-7.149H7.83a4.052,4.052,0,0,0,2.247-.48,1.791,1.791,0,0,0,.7-1.588,1.589,1.589,0,0,0-.757-1.484A4.867,4.867,0,0,0,7.62-11.15H5.614Zm0,3.029V.571H8.1a3.689,3.689,0,0,0,2.327-.6,2.227,2.227,0,0,0,.751-1.847q0-2.241-3.2-2.241Z" transform="translate(1247 1523)"/></g></svg>