<svg xmlns="http://www.w3.org/2000/svg" viewBox="2667 -680 72 72"><defs><style>.a,.b{fill:none;}.a{stroke:#fff;stroke-linecap:round;stroke-linejoin:round;stroke-width:2px;}</style></defs><g transform="translate(2667 -680)"><g transform="translate(2 1)"><line class="a" y2="3" transform="translate(15 39)"/><path class="a" d="M19,21l4.5-7.5,4.5,6L32.5,15" transform="translate(36.5 25.5)"/><line class="a" x2="12" transform="translate(27.321 33)"/><path class="a" d="M8.5,5.75,17.5.5l9,5.25v10.5l-9,5.25-9-5.25Z" transform="translate(15.5 -0.5)"/><path class="a" d="M15.5,17.5,6.5,31l-6-1.5v12l6-1.5,9,10.5v6l9-6h12l13.5,6L48.5,49,56,34,48.5,14.5H23L15.5,7Z" transform="translate(-0.5 12.5)"/></g><rect class="b" width="72" height="72"/></g></svg>