<svg xmlns="http://www.w3.org/2000/svg" viewBox="2932 -680 72 72"><defs><style>.a,.b,.c,.d{fill:none;}.a{stroke:#1078ff;}.a,.b,.c{stroke-linecap:round;}.a,.b{stroke-linejoin:round;stroke-miterlimit:10;}.b,.c{stroke:#fff;stroke-width:2px;}</style></defs><g transform="translate(2932 -680)"><g transform="translate(3 6)"><line class="a" y1="4.5" transform="translate(33)"/><path class="b" d="M9.5,20.5v6l6,3,6-3v-6" transform="translate(17.5 30.5)"/><path class="b" d="M.5,21.5V9.5l9-6" transform="translate(-0.5 -3.5)"/><path class="b" d="M2.5,18.7v-9L10,4.9" transform="translate(3.5 -0.7)"/><path class="b" d="M28.5,21.5V9.5l-9-6" transform="translate(37.5 -3.5)"/><path class="b" d="M25.5,18.7v-9L18,4.9" transform="translate(34.5 -0.7)"/><path class="c" d="M0,4.5V0" transform="translate(33)"/><path class="b" d="M47.5,17V42.5l9,9H2.5l9-9V17l18-12Z" transform="translate(3.5 -0.5)"/></g><rect class="d" width="72" height="72"/></g></svg>