<svg xmlns="http://www.w3.org/2000/svg" viewBox="6417 1099 24 24"><defs><style>.a{fill:none;}.b{fill:#0574eb;}</style></defs><g transform="translate(6417 1099)"><rect class="a" width="24" height="24"/><path class="b" d="M22.4,11.082C17.227,8.838,13.463,7.16,10.706,5.93c-5.377-2.4-6.823-3.042-7.83-3.042a1.758,1.758,0,0,0-1.429.695,2.006,2.006,0,0,0-.162,2.29L4.961,12,1.286,18.125a2,2,0,0,0,.162,2.29,1.753,1.753,0,0,0,1.43.7h0c1.006,0,2.446-.643,7.8-3.03,2.76-1.231,6.532-2.914,11.722-5.165a1,1,0,0,0,0-1.835ZM3.083,4.914A61.735,61.735,0,0,1,9.891,7.758C11.8,8.61,14.2,9.68,17.208,11H6.693ZM9.862,16.255a56.984,56.984,0,0,1-6.827,2.84L6.693,13H17.209C14.188,14.326,11.776,15.4,9.862,16.255Z"/></g></svg>