<svg xmlns="http://www.w3.org/2000/svg" viewBox="7649 -143 24 24"><defs><style>.a{fill:#fff;opacity:0;}.b{fill:#3c3c58;}</style></defs><g transform="translate(7241 -6137)"><rect class="a" width="24" height="24" transform="translate(408 5994)"/><g transform="translate(417 5993)"><path class="b" d="M20.778,3H5.222A2.227,2.227,0,0,0,3,5.222V20.778A2.226,2.226,0,0,0,5.222,23H20.778A2.226,2.226,0,0,0,23,20.778V5.222A2.226,2.226,0,0,0,20.778,3Zm.89,6.224a.242.242,0,0,1-.221.221h-1L15.665,19.554c0,.113-.108.113-.221.113s-.108,0-.221-.113L13,15.109l-2.444,4.444c.109.113,0,.113,0,.113-.113,0-.113,0-.221-.113L5.556,9.445H4.445a.238.238,0,0,1-.221-.221V8.777c.109-.109.109-.221.221-.221H8.334a.242.242,0,0,1,.221.221v.556a.238.238,0,0,1-.221.221H7.557l3.333,7.669L12.666,14,10.444,9.554H9.888c-.109-.109-.221-.221-.221-.33V8.777a.242.242,0,0,1,.221-.221h2.891A.242.242,0,0,1,13,8.777v.556a.238.238,0,0,1-.221.221h-.556l1.22,2.778,1.445-2.778H14a.238.238,0,0,1-.221-.221V8.777A.242.242,0,0,1,14,8.556h2.778A.242.242,0,0,1,17,8.777v.556a.239.239,0,0,1-.226.221H16.22l-2.222,4,1.78,3.668,3.446-7.669H18.113a.239.239,0,0,1-.226-.221V8.777a.242.242,0,0,1,.226-.221h3.333a.242.242,0,0,1,.221.221Z" transform="translate(-10 0)"/></g></g></svg>