<?xml version="1.0" encoding="utf-8"?>
<!-- Generator: Adobe Illustrator 21.1.0, SVG Export Plug-In . SVG Version: 6.00 Build 0)  -->
<svg version="1.1" id="Layer_1" xmlns="http://www.w3.org/2000/svg" xmlns:xlink="http://www.w3.org/1999/xlink" x="0px" y="0px"
	 viewBox="0 0 64 64" style="enable-background:new 0 0 64 64;" xml:space="preserve">
<style type="text/css">
	.st0{fill:#444444;}
	.st1{fill:#36CB27;}
	.st2{fill:#F2F8F6;}
	.st3{fill:#FF1200;}
</style>
<g>
	<path class="st0" d="M22,62.4c3.1,1,6.5,1.6,10,1.6c13.8,0,25.6-8.7,30.1-21H22V62.4z"/>
	<path class="st1" d="M62.1,21C57.6,8.7,45.8,0,32,0c-3.5,0-6.9,0.6-10,1.6V21H62.1z"/>
	<path class="st2" d="M62.1,21H22v22h40.1c1.3-3.4,1.9-7.1,1.9-11S63.3,24.4,62.1,21z"/>
	<path class="st3" d="M1.9,21C0.7,24.4,0,28.1,0,32s0.7,7.6,1.9,11C5.3,52.2,12.7,59.3,22,62.4V43V21V1.6C12.7,4.7,5.3,11.8,1.9,21z
		"/>
</g>
</svg>
