<?xml version="1.0" encoding="utf-8"?>
<!-- Generator: Adobe Illustrator 21.1.0, SVG Export Plug-In . SVG Version: 6.00 Build 0)  -->
<svg version="1.1" id="Layer_1" xmlns="http://www.w3.org/2000/svg" xmlns:xlink="http://www.w3.org/1999/xlink" x="0px" y="0px"
	 viewBox="0 0 64 64" style="enable-background:new 0 0 64 64;" xml:space="preserve">
<style type="text/css">
	.st0{fill:#FF1200;}
	.st1{fill:#FDC500;}
</style>
<g>
	<circle class="st0" cx="32" cy="32" r="32"/>
	<polygon class="st1" points="21,28.6 14.2,32.2 15.5,24.6 10,19.3 17.6,18.2 21,11.3 24.4,18.2 32,19.3 26.5,24.6 27.8,32.2 	"/>
	<polygon class="st1" points="35.6,36.7 33.2,36.8 34.6,34.8 33.8,32.6 36,33.3 37.9,31.8 37.9,34.2 39.9,35.5 37.7,36.3 37,38.6 	
		"/>
	<polygon class="st1" points="43.3,30.4 41.2,31.5 41.6,29.2 39.9,27.5 42.3,27.2 43.3,25 44.4,27.2 46.7,27.5 45,29.2 45.4,31.5 	
		"/>
	<polygon class="st1" points="43.1,20.6 41.3,22.2 41.1,19.8 39.1,18.6 41.3,17.7 41.8,15.4 43.3,17.2 45.7,17 44.4,19 45.4,21.2 	
		"/>
	<polygon class="st1" points="35.3,14.1 33,14.7 33.9,12.5 32.6,10.5 35,10.7 36.5,8.9 37.1,11.2 39.3,12.1 37.2,13.3 37.1,15.7 	
		"/>
</g>
</svg>
