<?xml version="1.0" encoding="utf-8"?>
<!-- Generator: Adobe Illustrator 21.1.0, SVG Export Plug-In . SVG Version: 6.00 Build 0)  -->
<svg version="1.1" id="Layer_1" xmlns="http://www.w3.org/2000/svg" xmlns:xlink="http://www.w3.org/1999/xlink" x="0px" y="0px"
	 viewBox="0 0 64 64" style="enable-background:new 0 0 64 64;" xml:space="preserve">
<style type="text/css">
	.st0{fill:#008AE1;}
	.st1{opacity:0.5;fill:#FF1200;}
	.st2{fill:#F2F8F6;}
	.st3{fill:#FF1200;}
	.st4{clip-path:url(#SVGID_2_);}
</style>
<g>
	<path class="st0" d="M47.5,4C42.9,1.5,37.6,0,32,0S21.1,1.5,16.5,4c-4.4,2.4-8.1,5.9-11,10c-2,3-3.6,6.4-4.5,10c-0.7,2.6-1,5.2-1,8
		c0,0.7,0,1.3,0.1,2c0.2,3.5,1,6.9,2.3,10c1.5,3.7,3.7,7.1,6.4,10h2.8l10-10l10-10l10-10l10-10l3.8-3.8C53.1,7.7,50.4,5.6,47.5,4z"
		/>
	<path class="st1" d="M8.8,54c0.5,0.5,0.9,0.9,1.4,1.4l1.4-1.4H8.8z"/>
	<path class="st2" d="M31.6,34h32.3c0-0.7,0.1-1.3,0.1-2c0-2.8-0.4-5.4-1-8H41.6L31.6,34z"/>
	<path class="st3" d="M21.6,44h40.1c1.3-3.1,2-6.5,2.3-10H31.6L21.6,44z"/>
	<path class="st2" d="M55.4,10.2L51.6,14h6.9C57.5,12.6,56.5,11.4,55.4,10.2z"/>
	<path class="st3" d="M63,24c-0.9-3.6-2.5-7-4.5-10h-6.9l-10,10H63z"/>
	<path class="st2" d="M11.6,54h43.6c2.7-2.9,4.9-6.3,6.4-10H21.6L11.6,54z"/>
	<path class="st3" d="M55.2,54H11.6l-1.4,1.4C15.9,60.7,23.6,64,32,64C41.1,64,49.4,60.2,55.2,54z"/>
	<g>
		<defs>
			<path id="SVGID_1_" d="M47.5,4C42.9,1.5,37.6,0,32,0S21.1,1.5,16.5,4c-4.4,2.4-8.1,5.9-11,10c-2,3-3.6,6.4-4.5,10
				c-0.7,2.6-1,5.2-1,8c0,0.7,0,1.3,0.1,2c0.2,3.5,1,6.9,2.3,10c1.5,3.7,3.7,7.1,6.4,10h2.8l10-10l10-10l10-10l10-10l3.8-3.8
				C53.1,7.7,50.4,5.6,47.5,4z"/>
		</defs>
		<clipPath id="SVGID_2_">
			<use xlink:href="#SVGID_1_"  style="overflow:visible;"/>
		</clipPath>
		<g class="st4">
			<g>
				<polygon class="st2" points="9,47.1 6.9,48.2 7.3,45.9 5.6,44.2 8,43.9 9,41.8 10,43.9 12.4,44.2 10.7,45.9 11.1,48.2 				"/>
			</g>
			<g>
				<polygon class="st2" points="18,38.1 15.9,39.2 16.3,36.9 14.6,35.2 17,34.9 18,32.8 19,34.9 21.4,35.2 19.7,36.9 20.1,39.2 
									"/>
			</g>
			<g>
				<polygon class="st2" points="9,38.1 6.9,39.2 7.3,36.9 5.6,35.2 8,34.9 9,32.8 10,34.9 12.4,35.2 10.7,36.9 11.1,39.2 				"/>
			</g>
			<g>
				<polygon class="st2" points="0,38.1 -2.1,39.2 -1.7,36.9 -3.4,35.2 -1,34.9 0,32.8 1,34.9 3.4,35.2 1.7,36.9 2.1,39.2 				"/>
			</g>
			<g>
				<polygon class="st2" points="27,29.1 24.9,30.2 25.3,27.9 23.6,26.2 26,25.9 27,23.8 28,25.9 30.4,26.2 28.7,27.9 29.1,30.2 
									"/>
			</g>
			<g>
				<polygon class="st2" points="18,29.1 15.9,30.2 16.3,27.9 14.6,26.2 17,25.9 18,23.8 19,25.9 21.4,26.2 19.7,27.9 20.1,30.2 
									"/>
			</g>
			<g>
				<polygon class="st2" points="9,29.1 6.9,30.2 7.3,27.9 5.6,26.2 8,25.9 9,23.8 10,25.9 12.4,26.2 10.7,27.9 11.1,30.2 				"/>
			</g>
			<g>
				<polygon class="st2" points="0,29.1 -2.1,30.2 -1.7,27.9 -3.4,26.2 -1,25.9 0,23.8 1,25.9 3.4,26.2 1.7,27.9 2.1,30.2 				"/>
			</g>
			<g>
				<polygon class="st2" points="36,20.1 33.9,21.2 34.3,18.9 32.6,17.2 35,16.9 36,14.8 37,16.9 39.4,17.2 37.7,18.9 38.1,21.2 
									"/>
			</g>
			<g>
				<polygon class="st2" points="27,20.1 24.9,21.2 25.3,18.9 23.6,17.2 26,16.9 27,14.8 28,16.9 30.4,17.2 28.7,18.9 29.1,21.2 
									"/>
			</g>
			<g>
				<polygon class="st2" points="18,20.1 15.9,21.2 16.3,18.9 14.6,17.2 17,16.9 18,14.8 19,16.9 21.4,17.2 19.7,18.9 20.1,21.2 
									"/>
			</g>
			<g>
				<polygon class="st2" points="9,20.1 6.9,21.2 7.3,18.9 5.6,17.2 8,16.9 9,14.8 10,16.9 12.4,17.2 10.7,18.9 11.1,21.2 				"/>
			</g>
			<g>
				<polygon class="st2" points="45,11.1 42.9,12.2 43.3,9.9 41.6,8.2 44,7.9 45,5.8 46,7.9 48.4,8.2 46.7,9.9 47.1,12.2 				"/>
			</g>
			<g>
				<polygon class="st2" points="36,11.1 33.9,12.2 34.3,9.9 32.6,8.2 35,7.9 36,5.8 37,7.9 39.4,8.2 37.7,9.9 38.1,12.2 				"/>
			</g>
			<g>
				<polygon class="st2" points="27,11.1 24.9,12.2 25.3,9.9 23.6,8.2 26,7.9 27,5.8 28,7.9 30.4,8.2 28.7,9.9 29.1,12.2 				"/>
			</g>
			<g>
				<polygon class="st2" points="18,11.1 15.9,12.2 16.3,9.9 14.6,8.2 17,7.9 18,5.8 19,7.9 21.4,8.2 19.7,9.9 20.1,12.2 				"/>
			</g>
			<g>
				<polygon class="st2" points="9,11.1 6.9,12.2 7.3,9.9 5.6,8.2 8,7.9 9,5.8 10,7.9 12.4,8.2 10.7,9.9 11.1,12.2 				"/>
			</g>
			<g>
				<polygon class="st2" points="36,2.1 33.9,3.2 34.3,0.9 32.6,-0.8 35,-1.1 36,-3.2 37,-1.1 39.4,-0.8 37.7,0.9 38.1,3.2 				"/>
			</g>
			<g>
				<polygon class="st2" points="27,2.1 24.9,3.2 25.3,0.9 23.6,-0.8 26,-1.1 27,-3.2 28,-1.1 30.4,-0.8 28.7,0.9 29.1,3.2 				"/>
			</g>
		</g>
	</g>
</g>
</svg>
