<svg xmlns="http://www.w3.org/2000/svg" viewBox="8606 6028 64 64"><defs><style>.a{fill:#f3f8f7;}.b{fill:#fb1203;}.c{fill:#0189df;}</style></defs><g transform="translate(8606 6028)"><circle class="a" cx="32" cy="32" r="32"/><g transform="matrix(0.555, -0.832, 0.832, 0.555, 31.641, 31.641)"><path class="b" d="M12,0A12,12,0,1,1,0,12,12,12,0,0,1,12,0Z" transform="translate(-12 -12)"/><path class="c" d="M0-12A6,6,0,0,0-6-6,6,6,0,0,0,0,0,6,6,0,0,1,6,6a6,6,0,0,1-6,6A12,12,0,0,1-12,0,12,12,0,0,1,0-12Z" transform="translate(0 0)"/></g></g></svg>