<svg xmlns="http://www.w3.org/2000/svg" viewBox="6055 -261 300 160"><defs><style>.a{fill:#0050db;opacity:0;}.b{fill:#fff;}</style></defs><g transform="translate(5417 -494)"><rect class="a" width="300" height="160" transform="translate(638 233)"/><g transform="translate(-5033 -260)"><path class="b" d="M273.11,2.017c3.022-.629,6.057-1.194,9.1-1.737.2,1.87,0,3.752.016,5.633.016,1.377-.027,2.751.023,4.126a8.963,8.963,0,0,1,8.731.135,9.894,9.894,0,0,1,4.078,7.972,12.636,12.636,0,0,1-2.929,9.59,11.009,11.009,0,0,1-8.148,3.276h-1.8a35.312,35.312,0,0,1-6.257-.967c.126-7.339.187-14.682.07-22.023a7.566,7.566,0,0,0-.809-4.218c-.545-.57-1.417-.566-2.118-.831.016-.318.034-.64.05-.958m9.116,9.8c0,2.875-.149,5.752,0,8.625,0,2.877.02,5.755.16,8.63a3.605,3.605,0,0,0,4.1-1.516,16.1,16.1,0,0,0,1.911-10.29,7.436,7.436,0,0,0-2.638-5.286,4.056,4.056,0,0,0-3.531-.162Z" transform="translate(5549.297 556.662)"/><path class="b" d="M1.021,2.988c6.888-.018,13.778,0,20.669,0,1.032.014,2.062-.038,3.094.041q.119,4.229.16,8.459c-.5.11-1.03.451-1.539.279a29.067,29.067,0,0,0-1.782-3.661,5.55,5.55,0,0,0-4.38-2.7c-1.721-.108-3.452-.043-5.182-.045-.225,3.83-.252,7.674-.268,11.512a15.71,15.71,0,0,0,3.966-.225c1.55-.586,2.039-2.357,2.355-3.8.478-.045.962-.074,1.442-.081,0,3.4.016,6.8,0,10.209-.471-.029-.937-.05-1.408-.065-.365-1.415-.762-3.155-2.253-3.8A18.477,18.477,0,0,0,11.8,18.8c0,2.819.047,5.633.306,8.452A4.493,4.493,0,0,0,13.5,30.557a17.07,17.07,0,0,0,2.848.717c0,.417,0,.836,0,1.253a8.93,8.93,0,0,1-1,.077c-3.936-.016-7.87,0-11.807,0a24,24,0,0,1-2.524-.056c0-.439,0-.874,0-1.314.719-.205,1.471-.279,2.177-.532a2.929,2.929,0,0,0,1.492-2.2,39.094,39.094,0,0,0,.43-5.917q0-5.168,0-10.333a31.36,31.36,0,0,0-.4-5.049A3.691,3.691,0,0,0,3.66,5.19a5.818,5.818,0,0,0-2.65-.73Q1.033,3.723,1.021,2.988Z" transform="translate(5763.99 554.535)"/><path class="b" d="M107.677,40.274a10.759,10.759,0,0,1,9.159,2.224,11.577,11.577,0,0,1,3.256,8.948A11.636,11.636,0,0,1,117.9,58.5a9.869,9.869,0,0,1-7.742,3.9H108.8A9.592,9.592,0,0,1,103.59,60.8a9.959,9.959,0,0,1-4.074-6.861,12.629,12.629,0,0,1,2.479-10.482,9.556,9.556,0,0,1,5.676-3.179m1.158,1.593A3.254,3.254,0,0,0,106.9,43.9a15.944,15.944,0,0,0-.953,5.633,28.879,28.879,0,0,0,.361,6.343,8.305,8.305,0,0,0,1.854,4.148,2.368,2.368,0,0,0,2.961.336,4.6,4.6,0,0,0,1.737-2.7,24.92,24.92,0,0,0,.66-6.419A16.16,16.16,0,0,0,112,43.523a2.848,2.848,0,0,0-3.168-1.656Z" transform="translate(5686.415 525.259)"/><path class="b" d="M208.851,41.1a5.653,5.653,0,0,1,5.327-.913c.313.106.741.365.509.755-.665,1.859-1.307,3.734-2.134,5.525a6.627,6.627,0,0,0-4.479-.919c-.676.192-1.737.451-1.721,1.332a98.887,98.887,0,0,0,.106,10.547c.1.933.194,2.134,1.163,2.58a16.373,16.373,0,0,0,2.339.376,5.926,5.926,0,0,1-.1,1.363c-3.263-.05-6.534,0-9.786-.02a14.956,14.956,0,0,1-2.9-.126c0-.394.016-.791.029-1.185.712-.243,1.577-.18,2.136-.768a3.963,3.963,0,0,0,.7-2.447c.126-2.6.086-5.2.095-7.8a36.073,36.073,0,0,0-.171-4.346,2.37,2.37,0,0,0-.931-1.8c-.579-.25-1.228-.275-1.818-.48a2.384,2.384,0,0,1,0-.9,3.052,3.052,0,0,1,.991-.311c2.765-.554,5.52-1.149,8.3-1.622-.038,1.383-.119,2.765-.115,4.148a10.847,10.847,0,0,1,2.463-2.983Z" transform="translate(5609.189 525.405)"/><path class="b" d="M387.908,43.095a10.423,10.423,0,0,1,9.756-2.717,7.337,7.337,0,0,1,4.687,3.578,12.729,12.729,0,0,1,1.426,6.453c-4.159.122-8.323.034-12.483.063a12.748,12.748,0,0,0,.676,4.155,6.586,6.586,0,0,0,4.34,4.229,8.186,8.186,0,0,0,4.5-.16c.739-.246,1.352-.773,2.066-1.05a1.352,1.352,0,0,1,.624.777,4.732,4.732,0,0,1-1.381,1.62,10.024,10.024,0,0,1-6.277,2.391h-1.156a9.885,9.885,0,0,1-7.4-3.623,10.987,10.987,0,0,1-2.361-7.336,11.561,11.561,0,0,1,2.988-8.377m4.482.843a12.784,12.784,0,0,0-1.036,4.691c2.005-.072,4.015-.07,6.018-.167a15.549,15.549,0,0,0-.854-5.2c-.315-.768-1.007-1.577-1.927-1.426a3.31,3.31,0,0,0-2.2,2.111Z" transform="translate(5461.03 525.228)"/><path class="b" d="M483.6,41.169a10.565,10.565,0,0,1,5.619-1.045,16.07,16.07,0,0,1,5.331,1.1c.023,1.9.182,3.808.086,5.705-.376.106-1.03.507-1.219-.05a8.835,8.835,0,0,0-2.726-4.261,3.409,3.409,0,0,0-3.785-.205,2.864,2.864,0,0,0-.225,4.43C488.87,48.7,491.95,49.067,494.1,51a5.182,5.182,0,0,1,1.656,3.686v.714a6.722,6.722,0,0,1-1.3,4,8.049,8.049,0,0,1-5.263,2.9,20.532,20.532,0,0,1-9.414-1.127c-.014-2.132-.086-4.263-.113-6.395l1.158-.257a8.957,8.957,0,0,0,3.981,5.338,4.042,4.042,0,0,0,3.979-.424,2.9,2.9,0,0,0,.153-4.326c-2.168-1.751-5.25-1.915-7.253-3.914A5.96,5.96,0,0,1,480.1,46a6.616,6.616,0,0,1,3.495-4.829Z" transform="translate(5386.254 525.241)"/></g></g></svg>