<svg xmlns="http://www.w3.org/2000/svg" viewBox="5740 -83 300 160"><defs><style>.a{fill:#0050db;}.a,.b{opacity:0;}.b,.c{fill:#fff;}</style></defs><g transform="translate(5417 -494)"><rect class="a" width="300" height="160" transform="translate(323 411)"/><g transform="translate(-5764 -70)"><rect class="b" width="16.55" height="25.462" transform="translate(6247.219 552)"/><path class="c" d="M-1126.441,10.694c-1.557-1.782-3.146-3.548-4.68-5.356a22.71,22.71,0,0,0-1.637-1.835c-.118,1.09-.046,2.188-.066,3.282a51.618,51.618,0,0,0,.145,5.474c.078.382.075.919.509,1.069a7.461,7.461,0,0,0,1.386.246v.447a31.638,31.638,0,0,0-4.445-.008c.037-.163-.038-.451.215-.452.458-.15,1.262-.062,1.343-.7a17.769,17.769,0,0,0,.2-2.961c.008-2.195,0-4.39,0-6.586a1.4,1.4,0,0,0-.49-1.216,2.4,2.4,0,0,0-1.528-.453c-.018-.1-.052-.309-.071-.412a18.445,18.445,0,0,0,3.183.014,28.061,28.061,0,0,0,3.588,4.485c1.679,1.762,3.2,3.669,4.9,5.405a25.683,25.683,0,0,0,.059-2.6c-.015-1.782.053-3.565-.108-5.347a2.791,2.791,0,0,0-.321-1.227,4.749,4.749,0,0,0-1.558-.326c-.008-.137,0-.274,0-.411a29.98,29.98,0,0,0,4.444.006c-.01.143-.011.284-.011.426a2.39,2.39,0,0,0-1.411.42,5.029,5.029,0,0,0-.312,1.978c-.014,2.32,0,4.642,0,6.961,0,1.031.01,2.064.084,3.094l-.341.109C-1124.328,13-1125.423,11.875-1126.441,10.694Zm61.108-1.323c-.927-1.06-1.86-2.115-2.786-3.174-.782-.9-1.521-1.836-2.341-2.7a13.328,13.328,0,0,0-.092,2.306c.019,1.982-.057,3.967.087,5.944a3.436,3.436,0,0,0,.328,1.43,3.643,3.643,0,0,0,1.626.393v.454a30.616,30.616,0,0,0-4.439-.011c.01-.1.029-.289.04-.382.456-.224,1.128-.083,1.447-.537a12.487,12.487,0,0,0,.269-2.947c.009-2.362.024-4.724,0-7.086-.015-1.01-1.146-1.479-2.02-1.4-.008-.109-.023-.326-.032-.435a16.751,16.751,0,0,0,3.147.02,16.5,16.5,0,0,0,2.181,2.894c1.257,1.467,2.606,2.852,3.87,4.313.8.906,1.579,1.833,2.442,2.682.127-1.4.028-2.816.06-4.223a31.516,31.516,0,0,0-.171-4.187,1.5,1.5,0,0,0-.285-.783,3.86,3.86,0,0,0-1.527-.286c0-.145,0-.29,0-.434a38.191,38.191,0,0,0,4.486.025c.064.637-.736.372-1.106.6-.488.127-.537.675-.592,1.087-.153,1.4-.059,2.817-.079,4.225.019,2.316-.053,4.635.085,6.947l-.349.1c-1.371-1.658-2.848-3.209-4.248-4.839ZM-1112,14.179a7.735,7.735,0,0,1-5.778-2.609,6.7,6.7,0,0,1,1.18-9.393,9.351,9.351,0,0,1,6.215-1.46c.926.042,1.814.326,2.733.419A22.468,22.468,0,0,0-1107.358,4c-.178.029-.356.062-.53.1a3.794,3.794,0,0,0-1.351-2.164,5.173,5.173,0,0,0-3.59-.657,4.916,4.916,0,0,0-3.565,2.089,7.1,7.1,0,0,0-.83,5.184,6.152,6.152,0,0,0,2.184,3.9,6.11,6.11,0,0,0,4.542,1.039,2.1,2.1,0,0,0,1.227-.509,6.689,6.689,0,0,0,.168-2.223c-.039-.434.043-1-.345-1.3a5.582,5.582,0,0,0-1.835-.358c.015-.162-.143-.474.141-.432a44.7,44.7,0,0,0,4.765.011c.255-.081.176.227.216.382-.418.055-1,.067-1.125.575a8.939,8.939,0,0,0,.057,2.962c.031.34.315.569.516.819a24.8,24.8,0,0,1-4.718.773c-.182,0-.373,0-.564-.018Zm-103.777-.038a4.482,4.482,0,0,1-1.019.01c-.01-.1-.029-.3-.04-.392a5.311,5.311,0,0,0,1.5-.3c.393-.311.351-.878.395-1.329q.061-4.219.106-8.438a5.113,5.113,0,0,0-.178-1.747c-.254-.471-.866-.411-1.316-.467-.008-.144-.013-.289-.019-.434,1.812.1,3.626.1,5.44.09h1.318a16.6,16.6,0,0,0,1.854-.075,18.309,18.309,0,0,1,.269,2.685c-.136,0-.27.018-.406.015-.267-.614-.363-1.423-1.043-1.74a4.7,4.7,0,0,0-1.91-.239h-.74a5.15,5.15,0,0,1-.544,0,2.539,2.539,0,0,0-1.019.1,13.334,13.334,0,0,0-.066,2.08c.029.985-.062,1.98.051,2.959a.636.636,0,0,0,.494.127,1.646,1.646,0,0,1,.213.008c.29-.01.582-.008.873,0a9.827,9.827,0,0,0,1.68-.078c.617-.244.509-1.068.7-1.6.178,0,.357-.009.537-.01-.023.81-.109,1.619-.078,2.43.022.546.07,1.091.067,1.638-.168-.006-.335-.015-.5-.025-.2-.533-.14-1.393-.834-1.543a17.875,17.875,0,0,0-2.938-.078c-.373-.055-.346.382-.35.628.013,1.165-.032,2.331.034,3.5.04.5.117,1.152.665,1.357a6.842,6.842,0,0,0,2.256.22A6.677,6.677,0,0,0-1208,13.2a5.443,5.443,0,0,0,1.4-1.922c.143.02.286.046.429.074a18.113,18.113,0,0,1-.928,2.858c-2.881-.045-5.783-.174-8.673-.074Zm129.994-.714a6.481,6.481,0,0,1-3.437-4.456,6.983,6.983,0,0,1,1.734-6.213A6.786,6.786,0,0,1-1083.77.809a7.269,7.269,0,0,1,6.047,1.482,6.994,6.994,0,0,1,1.98,6.768,6.606,6.606,0,0,1-2.951,4.118,7.04,7.04,0,0,1-3.72,1.026,7.673,7.673,0,0,1-3.364-.777Zm2.26-12.136a4.382,4.382,0,0,0-3.227,2.47,7.911,7.911,0,0,0-.544,4.284,6.993,6.993,0,0,0,1.819,4.1,4.913,4.913,0,0,0,4.583,1.2,4.171,4.171,0,0,0,2.7-2.283,8.068,8.068,0,0,0,.547-4.516,6.819,6.819,0,0,0-1.985-4.2,4.509,4.509,0,0,0-3.055-1.127,4.99,4.99,0,0,0-.829.074Zm-71.858,12.264c.474-.149,1.167-.092,1.393-.637a5.622,5.622,0,0,0,.161-1.655q0-3.845,0-7.689a4.728,4.728,0,0,0-.164-1.542c-.247-.479-.881-.4-1.329-.465,0-.108-.015-.326-.02-.434,2.214.127,4.433.087,6.649.087a17.108,17.108,0,0,0,1.958-.075,24.546,24.546,0,0,0,.088,2.565l-.437.111c-.148-.595-.244-1.314-.816-1.655a4.768,4.768,0,0,0-2.164-.3h-.647a7.4,7.4,0,0,0-1.255.045l-.081.066a19.652,19.652,0,0,0-.056,2.345,25.9,25.9,0,0,0,.052,2.61,1.306,1.306,0,0,0,.7.111h.3c.294-.011.588-.009.884,0a9.407,9.407,0,0,0,1.639-.076c.625-.239.509-1.068.7-1.6.178,0,.358-.009.537-.01a26.862,26.862,0,0,0,0,4.009c-.181-.008-.359-.015-.536-.027-.157-.521-.169-1.283-.792-1.472a7.142,7.142,0,0,0-1.632-.1c-.27,0-.54.009-.808,0-.107.006-.218,0-.33,0a1.575,1.575,0,0,0-.728.092,2.277,2.277,0,0,0-.084.807c.016,1.2-.019,2.393.023,3.59.033.382.037.877.425,1.073a7.03,7.03,0,0,0,1.4.255q.018.222.037.446a47.745,47.745,0,0,0-4.965-.015.235.235,0,0,1-.1.024c-.235-.02-.286-.463-.005-.489Zm-11.9.064c.452-.194,1.006-.127,1.4-.456a2.335,2.335,0,0,0,.317-1.413c.017-2.854.012-5.708,0-8.561a2.291,2.291,0,0,0-.274-1.328c-.331-.294-.814-.243-1.222-.3,0-.108-.006-.325-.01-.432,1.782.1,3.577.1,5.367.09h1.348a17.714,17.714,0,0,0,1.889-.071,25.455,25.455,0,0,0,.089,2.56l-.428.117c-.162-.6-.255-1.342-.852-1.68a4.692,4.692,0,0,0-2.056-.281h-.668a9.08,9.08,0,0,0-1.273.036l-.12.1a23.724,23.724,0,0,0-.051,2.446,24.027,24.027,0,0,0,.05,2.456l.12.1a12.306,12.306,0,0,0,1.655.043c.3,0,.607-.011.909,0,.374-.028.825.046,1.123-.237.323-.41.219-1.008.489-1.435l.469-.015a28.885,28.885,0,0,0,0,4.015l-.522-.015c-.166-.493-.16-1.169-.682-1.437a3.555,3.555,0,0,0-1.273-.143h-.468c-.215.008-.432,0-.647,0a6.135,6.135,0,0,0-1.183.052c-.15.157-.1.395-.127.593.009,1.279-.018,2.559.018,3.838.036.37.032.849.4,1.062a5.677,5.677,0,0,0,1.425.255c.015.151.031.3.047.457a42.2,42.2,0,0,0-5.213,0,2.56,2.56,0,0,1-.036-.4Zm-12.848-.568a3.827,3.827,0,0,1-1.319-1.926,12.93,12.93,0,0,1-.382-4.081c-.006-1.408.014-2.815-.013-4.22-.034-.415-.006-.934-.382-1.215a2.74,2.74,0,0,0-1.286-.222q-.015-.218-.028-.435a45.141,45.141,0,0,0,4.965.017c0,.14-.01.279-.014.419a2.2,2.2,0,0,0-1.372.3,2.338,2.338,0,0,0-.322,1.376q-.025,2.673,0,5.347a5.8,5.8,0,0,0,1.106,3.692,3.866,3.866,0,0,0,3.2,1.086,3.369,3.369,0,0,0,2.582-1.33,6.62,6.62,0,0,0,1.018-3.947c-.013-1.636.041-3.276-.093-4.908a3.309,3.309,0,0,0-.306-1.273c-.355-.418-.957-.4-1.456-.437-.006-.107-.02-.32-.027-.425a32.874,32.874,0,0,0,4.531-.006,1.534,1.534,0,0,1-.041.424c-.509.056-1.134-.024-1.479.439a3.4,3.4,0,0,0-.241,1.216c-.127,1.884-.036,3.775-.09,5.661a6.431,6.431,0,0,1-1.179,3.771,5.032,5.032,0,0,1-3.845,1.644h-.046a5.616,5.616,0,0,1-3.488-.968Zm-11.445.462a8.572,8.572,0,0,0,1.265-.358c.371-.255.341-.756.382-1.153.012-1.362.037-2.727-.009-4.088,0-.33-.422-.314-.653-.33-1.181-.013-2.361-.01-3.543-.009h-2.419a1.422,1.422,0,0,0-.714.117,1.4,1.4,0,0,0-.107.707c.015,1.2-.021,2.407.024,3.61.042.4.036.88.368,1.16a4.435,4.435,0,0,0,1.37.307c.007.112.023.335.032.448a38.986,38.986,0,0,0-4.867,0l.025-.425c.435-.188,1.05-.107,1.33-.555a5.379,5.379,0,0,0,.176-1.818V4.185a7.145,7.145,0,0,0-.2-2.181c-.267-.595-1.034-.5-1.568-.523,0-.111-.014-.334-.019-.446a35.6,35.6,0,0,0,4.816,0c.029.144.059.286.087.43-.462.048-1.026-.02-1.371.354a2.906,2.906,0,0,0-.286,1.5c0,1.074-.034,2.154.016,3.227,0,.332.416.269.636.3q1.7.006,3.4,0h2.673a1.709,1.709,0,0,0,.814-.127,1.878,1.878,0,0,0,.1-.806c-.015-1.072.019-2.146-.024-3.22-.033-.353-.036-.8-.363-1.018a2.93,2.93,0,0,0-1.2-.206c0-.109-.018-.326-.023-.435a34.335,34.335,0,0,0,4.729,0c.029.145.057.289.087.434-.48.042-1.048-.037-1.432.314a2.683,2.683,0,0,0-.316,1.528q-.015,4.222,0,8.446a2.165,2.165,0,0,0,.281,1.318,3.482,3.482,0,0,0,1.383.4c.008.112.024.335.031.447a36.284,36.284,0,0,0-4.826,0c-.032-.129-.057-.267-.083-.406Zm48.074.4-.079-.308c.4-.355,1.108-.154,1.49-.586a2.661,2.661,0,0,0,.255-1.4c0-2.854.007-5.707,0-8.56a2.152,2.152,0,0,0-.305-1.349,2.257,2.257,0,0,0-1.361-.327c-.01-.148-.019-.293-.027-.439a38.933,38.933,0,0,0,5.007,0c.023.106.065.32.085.425a2.906,2.906,0,0,0-1.4.255c-.362.33-.311.872-.348,1.316-.019,2.849,0,5.7-.008,8.549.039.539-.071,1.174.293,1.623a3.623,3.623,0,0,0,1.381.353c0,.113.016.339.023.453a43.4,43.4,0,0,0-5-.005Zm119.924-.713a10.4,10.4,0,0,1-.509-2.584c-.118-.3.467-.42.466-.1a3.976,3.976,0,0,0,1.819,2.419,3.006,3.006,0,0,0,3.31-.307,2.616,2.616,0,0,0,.388-2.909,4.328,4.328,0,0,0-1.75-1.681c-.6-.4-1.222-.764-1.806-1.19a3.974,3.974,0,0,1-1.683-2.673,3.166,3.166,0,0,1,1.048-2.8,4.624,4.624,0,0,1,3.422-.955c.7.031,1.358.317,2.061.362a9.73,9.73,0,0,1,.359,2.358l-.431.127a3.1,3.1,0,0,0-1.357-1.94,3.082,3.082,0,0,0-2.614-.022,2.177,2.177,0,0,0-1.012,1.389,2.177,2.177,0,0,0,.311,1.69,5.678,5.678,0,0,0,2.037,1.674,9.025,9.025,0,0,1,2.438,1.9,3.8,3.8,0,0,1,.369,4.074,3.554,3.554,0,0,1-2.108,1.645,5.7,5.7,0,0,1-1.655.237,7.394,7.394,0,0,1-3.109-.715Zm-210.087.713c.016-.1.047-.308.064-.41a5.127,5.127,0,0,0,1.2-.392,1.928,1.928,0,0,0,.294-1.24c.019-2.479,0-4.959.009-7.437a14.464,14.464,0,0,0-.082-1.99,1.033,1.033,0,0,0-.409-.775,2.946,2.946,0,0,0-1.273-.187c-.008-.108-.021-.328-.031-.438a39.312,39.312,0,0,0,4.848,0c.011.107.032.322.043.429-.509.041-1.225-.029-1.463.537a9.068,9.068,0,0,0-.182,2.546,15.477,15.477,0,0,0,.061,2.153c.181.158.448.111.67.134h6.207c.255-.013.679.014.677-.342.051-1.146.013-2.292.014-3.437a2.218,2.218,0,0,0-.27-1.292,2.186,2.186,0,0,0-1.313-.3c0-.111-.009-.328-.011-.438a35.328,35.328,0,0,0,4.747.006c.012.108.034.326.045.435-.479.036-1.055-.043-1.428.326a2.759,2.759,0,0,0-.3,1.5q-.011,4.285,0,8.569c.033.415-.013.918.316,1.23a4.024,4.024,0,0,0,1.342.369c.009.112.028.335.038.447a41.382,41.382,0,0,0-4.894-.008c.013-.1.042-.313.056-.419a6.757,6.757,0,0,0,1.244-.372c.354-.3.3-.824.339-1.244,0-1.324.034-2.653-.014-3.976-.02-.35-.463-.3-.71-.326-2.037-.011-4.065-.008-6.1,0-.195.023-.5-.017-.578.215a6.521,6.521,0,0,0-.048,1.225c.016,1.08-.036,2.164.042,3.241.041.359.1.826.484.983a7.59,7.59,0,0,0,1.24.232c0,.113.018.337.024.451a42.714,42.714,0,0,0-4.9-.013Zm-7.921-.032c-.531-.027-1.061-.052-1.591-.042-.8-.008-1.6.061-2.392.071.014-.1.039-.3.053-.4a8,8,0,0,0,1.538-.316c.433-.331.366-.952.414-1.436.027-3.1,0-6.2.014-9.3a2.577,2.577,0,0,0-.073-.8,3.281,3.281,0,0,0-.947-.067c-.158,0-.316.008-.47,0a5.971,5.971,0,0,0-2.228.264c-.622.337-.875,1.039-1.255,1.591a1,1,0,0,1-.485-.171,27.148,27.148,0,0,0,.732-2.968l.311-.01a1.048,1.048,0,0,0,1.174.652q2.362.013,4.724,0h3.829a5.422,5.422,0,0,0,.815-.041c.407-.017.516-.629.966-.48a14.637,14.637,0,0,0-.3,3.171.97.97,0,0,0-.148,0c-.162.009-.344.018-.382-.159-.169-.537-.12-1.318-.735-1.576a5.212,5.212,0,0,0-2.12-.28h-.687c-.11.008-.223,0-.336,0a1.513,1.513,0,0,0-.707.088,3.4,3.4,0,0,0-.059.777c-.018,3.1-.08,6.2-.081,9.3.043.48-.05,1.091.365,1.436a5.182,5.182,0,0,0,1.482.292c.01.15.021.3.029.452h-.106c-.445.008-.9-.014-1.349-.038Zm204.456-.743a6.373,6.373,0,0,1-3.367-4.386,7.016,7.016,0,0,1,1.708-6.252,6.776,6.776,0,0,1,3.608-1.945,7.29,7.29,0,0,1,6.195,1.481,7.048,7.048,0,0,1,1.728,7.5,6.6,6.6,0,0,1-4.085,4.005,7.525,7.525,0,0,1-2.378.382,7.729,7.729,0,0,1-3.408-.789Zm2.188-12.094a4.4,4.4,0,0,0-3.172,2.629,8.469,8.469,0,0,0-.28,5.092,5.784,5.784,0,0,0,2.734,3.919,5.3,5.3,0,0,0,3.119.468,4.085,4.085,0,0,0,2.877-2.017,7.666,7.666,0,0,0,.75-4.717,6.85,6.85,0,0,0-2.056-4.384,4.5,4.5,0,0,0-3-1.08,5,5,0,0,0-.974.09Zm-61.577,12.835c-.53-.027-1.058-.052-1.588-.041-.4,0-.8.014-1.2.034s-.787.039-1.181.036c.014-.1.041-.3.056-.4a8.022,8.022,0,0,0,1.538-.314c.436-.332.367-.96.414-1.446.027-3.1,0-6.2.013-9.293a2.563,2.563,0,0,0-.075-.81,4.81,4.81,0,0,0-1.127-.061c-.183,0-.367.009-.549,0a4.7,4.7,0,0,0-2.047.307,3.964,3.964,0,0,0-1.146,1.558c-.174-.046-.35-.09-.522-.127.255-1,.573-1.981.752-3,.369-.2.393.341.656.472a2.554,2.554,0,0,0,1.064.159h8.437a2.939,2.939,0,0,0,.854-.087c.276-.146.412-.551.792-.438a15.1,15.1,0,0,0-.3,3.167c-.166,0-.33.008-.491.009a4.307,4.307,0,0,0-.471-1.535,2.855,2.855,0,0,0-1.748-.467c-.746-.009-1.493-.043-2.237.01-.247,0-.185.3-.21.457-.029,3.229-.083,6.461-.089,9.691.042.474-.048,1.073.351,1.419a4.977,4.977,0,0,0,1.5.3c.008.112.023.336.031.449h-.135C-1095.62,13.922-1096.065,13.9-1096.511,13.877Zm43.878-.228c0-.1.015-.312.02-.415a5.16,5.16,0,0,0,1.342-.407c.359-.355.306-.913.348-1.376.018-2.891.013-5.785,0-8.676-.029-.4.016-.891-.3-1.192a4.416,4.416,0,0,0-1.4-.285c0-.145,0-.29,0-.434a26.954,26.954,0,0,1,4.136-.188,6.226,6.226,0,0,1,3.719.906,3.489,3.489,0,0,1,1.409,2.619,3.488,3.488,0,0,1-1.123,2.754,5.768,5.768,0,0,1-3.656,1.081c-.036-.108-.068-.218-.1-.326a3.657,3.657,0,0,0,2.628-1.512,3.916,3.916,0,0,0,.1-3.386,3.269,3.269,0,0,0-3.682-1.419c-.285.094-.255.443-.261.68V9.643a15.833,15.833,0,0,0,.115,2.834c.254.7,1.161.569,1.745.731,0,.112.011.334.014.446a40.536,40.536,0,0,0-5.049,0Zm42.574-.4c.519-.182,1.136-.065,1.608-.382a2.115,2.115,0,0,0,.341-1.358c.028-2.232,0-4.465.013-6.7-.034-1.136.066-2.28-.051-3.412a2.384,2.384,0,0,0-.905-.093c-.127,0-.255.006-.382,0a7.088,7.088,0,0,0-2.292.233,3.409,3.409,0,0,0-1.306,1.641c-.179-.053-.356-.111-.531-.169a23.809,23.809,0,0,0,.754-2.979l.277-.031a1.086,1.086,0,0,0,1.138.663q4.583.015,9.152,0a1.09,1.09,0,0,0,.938-.535c.1.022.2.041.3.061V.236a14.059,14.059,0,0,0-.3,3.074h-.5a3.837,3.837,0,0,0-.5-1.545,3.516,3.516,0,0,0-2.058-.449c-.208,0-.417,0-.624-.008a6.59,6.59,0,0,0-1.43.069,4.705,4.705,0,0,0-.065.943c-.014,3.064-.079,6.127-.078,9.192.034.458-.031,1.018.325,1.369.444.279,1.008.185,1.491.358.028.1.08.308.107.409-.7.013-1.393-.034-2.087-.066-1.135-.052-2.271.028-3.406.069.017-.1.043-.3.055-.409Z" transform="translate(7360 557.092)"/></g></g></svg>