<svg xmlns="http://www.w3.org/2000/svg" viewBox="5938 702 91.786 20"><defs><style>.a{fill:#0574eb;}</style></defs><path class="a" d="M2.164,20c-.293-.271-.879-.811-1.172-1.078l.646.568c1.243-1.857,2.471-3.725,3.65-5.625a6.628,6.628,0,0,0,.664-3.775c-1.168-.836-2.389-1.6-3.615-2.354-.632-1.918-1.164-3.865-1.75-5.8L0,1.811V1.45l.575-.132C2.39,2.589,4.243,3.832,6.136,4.993a6.533,6.533,0,0,0,3.8.639c.807-1.2,1.578-2.414,2.346-3.632C14.3,1.393,16.315.761,18.35.211L17.875,0h.675c-.985,2.232-2.671,4.072-3.785,6.239a7.539,7.539,0,0,0-.429,3.429c1.211.786,2.422,1.564,3.629,2.357.646,2.143,1.279,4.293,1.932,6.432-1.8-1.2-3.625-2.386-5.446-3.564a5.665,5.665,0,0,0-4.061-.789,34.173,34.173,0,0,0-2.371,3.553c-1.914.646-3.865,1.186-5.8,1.761,0,.143.011.436.018.582ZM9.393,9.036c-1.1.818.307,2.571,1.364,1.739,1.085-.626.255-2.075-.662-2.075A.943.943,0,0,0,9.393,9.036Zm66.582,8.2c.582-.2,1.468-.375,1.5-1.146.068-2.836-.007-5.672.032-8.507.468,0,.936-.007,1.4-.014.022,2.839.047,5.675-.007,8.51a2.825,2.825,0,0,1-2.915,2.547C75.982,18.164,75.979,17.7,75.975,17.239Zm-40.225.368c.307-.343.618-.686.932-1.025.6.314,1.439.929,2.061.3.6-.443.407-1.264.5-1.9a2.439,2.439,0,0,1-3.778-1.418,58.724,58.724,0,0,1-.1-5.986c.464,0,.929,0,1.4,0,.032,1.889.025,3.782,0,5.675a1.355,1.355,0,0,0,2.379.189c.125-1.95-.007-3.911.064-5.864.468.007.939.014,1.411.018-.018,2.8.036,5.611-.022,8.411a2.628,2.628,0,0,1-1.957,2.5,2.09,2.09,0,0,1-.584.082A4.184,4.184,0,0,1,35.75,17.607Zm6.393.964V7.479c.088,0,.182,0,.276,0,.483-.007.984-.015.945.643a2.4,2.4,0,0,1,3.911.843c.086,1.518.071,3.047.011,4.564a2.479,2.479,0,0,1-3.725,1.514c.018,1.175.011,2.354.011,3.529Zm1.9-9.514a.929.929,0,0,0-.468.907c-.007,1.082-.039,2.168.025,3.25.207,1.2,2.125.982,2.343-.107a23.961,23.961,0,0,0-.025-3.65,1.444,1.444,0,0,0-1.179-.641A1.081,1.081,0,0,0,44.043,9.057Zm42.332,4.836q.621-.337,1.253-.664c.529.65,1.483,1.261,2.272.632.653-.454.346-1.3-.2-1.686a3.6,3.6,0,0,1-2.536-.746,2.458,2.458,0,0,1,1.061-3.782c1.007-.339,2.561-.2,2.907,1,.164-.022.489-.068.65-.089v.107q-.552.594-1.136,1.146c-.507-.364-.986-1.143-1.7-.918-.722.125-.761.971-.979,1.514.954.314,2.047.278,2.893.861,1.418,1.1.95,3.8-.893,4.121a2.288,2.288,0,0,1-.837.16A3.775,3.775,0,0,1,86.375,13.893Zm-62.622.59a2.706,2.706,0,0,1-.546-1.982c.014-2.025,0-4.054,0-6.079.025-2.061,2.661-3.061,4.329-2.211a3.17,3.17,0,0,1,1.8,3.018c-.465,0-.929.007-1.389.007a2.531,2.531,0,0,0-.782-1.561,1.627,1.627,0,0,0-2.593,1.111c-.032,1.9-.018,3.811-.007,5.714a1.634,1.634,0,0,0,2.714,1.171,2.575,2.575,0,0,0,.661-1.454c.461.007.921.011,1.379.011a3.538,3.538,0,0,1-.654,2.136,3.063,3.063,0,0,1-2.469,1.145A3.283,3.283,0,0,1,23.754,14.482Zm56.318-2.014a2.473,2.473,0,0,1,3.907-2.111c-.161-.586-.425-1.354-1.136-1.432-.586-.1-1.018.368-1.475.632-.25-.421-.5-.846-.729-1.278a3.154,3.154,0,0,1,2.932-.629,2.69,2.69,0,0,1,1.682,2.343c.046,1.793-.007,3.589.021,5.386a4.745,4.745,0,0,1-1.5-.261,2.008,2.008,0,0,1-1.185.387A2.671,2.671,0,0,1,80.072,12.468Zm1.814-.936a1.522,1.522,0,0,0,.6,2.571,1.3,1.3,0,0,0,1.368-1.639,1.153,1.153,0,0,0-1.214-1.232A1.039,1.039,0,0,0,81.886,11.532ZM53.1,13.2c0-1.825-.628-4.443,1.357-5.479a3.135,3.135,0,0,1,3.286.507c1.039,1.182.543,2.854.66,4.279a2.576,2.576,0,0,1-1.393,2.7,2.749,2.749,0,0,1-1.238.284A2.509,2.509,0,0,1,53.1,13.2Zm1.982-4.2c-1.118.907-.439,2.575-.611,3.825-.107,1.389,2.118,1.7,2.471.389.046-1.186.05-2.375,0-3.557A1.33,1.33,0,0,0,55.7,8.849,1.291,1.291,0,0,0,55.079,9.007Zm-6.143,3.879q-.022-4.259,0-8.525l1.332.021c-.007,1.068-.007,2.136.011,3.207.528,0,1.061,0,1.593,0V8.929H50.268c.025,1.3-.046,2.6.029,3.893.118.836,1.047,1.139,1.764,1.271,0,.425,0,.85,0,1.279-.085.008-.171.012-.257.012A2.741,2.741,0,0,1,48.936,12.886Zm25.5-2.854A1.217,1.217,0,0,0,72.1,9.668c-.107,1.886-.028,3.782-.032,5.671-.482.011-.964.018-1.443.025-.021-2.571.047-5.143-.039-7.711.529-.054,1.279-.314,1.329.472,1.257-1.446,3.732-.243,3.868,1.518.064,1.9,0,3.807.022,5.711l-1.329.014C74.425,13.589,74.514,11.811,74.44,10.032Zm-6.671,5.325c.007-2.589-.018-5.179.014-7.768.325-.007.971-.018,1.3-.025.064,2.6.014,5.2.028,7.793Zm-7.857,0c0-3.45-.011-6.9,0-10.347-.178-1.114,1.629-1.389,1.925-.393,1.018,2.868,2.054,5.729,3.025,8.614-.318-3.032-.2-6.082-.221-9.125h1.429c.014,3.553-.029,7.107.021,10.661-.372.847-1.222.561-1.839.168C63.161,11.893,61.682,8.9,61.2,5.711c.186,3.211.15,6.429.143,9.646Zm-29.2,0c0-2.6-.007-5.193.007-7.786a2,2,0,0,0,.492.007c.447-.027.9-.055.808.582a1.939,1.939,0,0,1,2.657-.272c-.175.436-.343.868-.521,1.3a1.4,1.4,0,0,0-2.032.386c.036,1.925.011,3.854.018,5.782ZM77.7,5.218c.857-.679,2.014.722,1.078,1.393a.768.768,0,0,1-.524.216C77.518,6.827,76.876,5.713,77.7,5.218ZM67.786,6.489a.883.883,0,0,1,1.022-1.372c.575.175.435.8.525,1.265a1.915,1.915,0,0,1-.993.414A.632.632,0,0,1,67.786,6.489Z" transform="translate(5938 702)"/></svg>