<svg xmlns="http://www.w3.org/2000/svg" viewBox="6370 95 300 160"><defs><style>.a{fill:#0050db;opacity:0;}.b{fill:#fff;}</style></defs><g transform="translate(5417 -494)"><rect class="a" width="300" height="160" transform="translate(953 589)"/><g transform="translate(-5208 -1425)"><path class="b" d="M559.589,175.645a7.993,7.993,0,0,1,4.642-1.533,11.581,11.581,0,0,1,6.527,1.658c.037,1.225,0,2.452.017,3.677a10.053,10.053,0,0,0-5.159-2.194,5.43,5.43,0,0,0-3.715.714,2.3,2.3,0,0,0-.012,3.56,11.935,11.935,0,0,0,3.006,1.335c1.862.716,3.918,1.212,5.379,2.657a5.6,5.6,0,0,1,1.587,4.181,5.3,5.3,0,0,1-1.72,4.063,8.272,8.272,0,0,1-5.285,1.859,12.082,12.082,0,0,1-7.066-1.823c0-1.243,0-2.485,0-3.728a10.415,10.415,0,0,0,7.175,2.406,4.557,4.557,0,0,0,2.656-.876,2.494,2.494,0,0,0-.129-3.788,13.722,13.722,0,0,0-3.437-1.527c-1.753-.635-3.643-1.192-4.981-2.566a5.706,5.706,0,0,1-1.392-4.8A5.012,5.012,0,0,1,559.589,175.645Z" transform="translate(5717.349 1893.9)"/><path class="b" d="M1242.331,175.247a9.022,9.022,0,0,1,5.71-1.215,10.8,10.8,0,0,1,5.094,1.662c-.011,1.211,0,2.421-.005,3.632a13.5,13.5,0,0,0-2.415-1.455,8.8,8.8,0,0,0-4.307-.747,3.841,3.841,0,0,0-2.376.923,2.356,2.356,0,0,0-.328,2.754,3.736,3.736,0,0,0,1.97,1.371c1.269.47,2.545.927,3.815,1.393a9.47,9.47,0,0,1,2.672,1.427,5.21,5.21,0,0,1,1.828,2.755,5.954,5.954,0,0,1-1.088,5.488,7.922,7.922,0,0,1-5.736,2.273,11.972,11.972,0,0,1-7.024-1.832c.017-1.236,0-2.472.012-3.707a10.47,10.47,0,0,0,7.135,2.4,4.646,4.646,0,0,0,2.662-.856,2.5,2.5,0,0,0-.057-3.774,11.351,11.351,0,0,0-3.115-1.43,23.338,23.338,0,0,1-4.049-1.681,5.543,5.543,0,0,1-2.232-2.364,6.353,6.353,0,0,1-.434-3.622A5.092,5.092,0,0,1,1242.331,175.247Z" transform="translate(5119.57 1894)"/><path class="b" d="M1413.341,175.712a7.69,7.69,0,0,1,4.483-1.682,11.584,11.584,0,0,1,6.9,1.65c.026,1.225,0,2.45.012,3.675a9.969,9.969,0,0,0-5.295-2.215,5.312,5.312,0,0,0-3.6.735,2.307,2.307,0,0,0,0,3.552,11.771,11.771,0,0,0,2.98,1.324,28.983,28.983,0,0,1,4,1.621,5.941,5.941,0,0,1,2.227,2.1,6.379,6.379,0,0,1,.734,3.753,5.184,5.184,0,0,1-1.626,3.371,8.136,8.136,0,0,1-5.219,1.92,12.125,12.125,0,0,1-7.193-1.816c0-1.241,0-2.481,0-3.722a10.483,10.483,0,0,0,7.064,2.4,4.722,4.722,0,0,0,2.752-.873,2.5,2.5,0,0,0-.11-3.793,13.386,13.386,0,0,0-3.414-1.522c-1.786-.648-3.723-1.212-5.066-2.639a5.669,5.669,0,0,1-1.359-4.6A5.009,5.009,0,0,1,1413.341,175.712Z" transform="translate(4969.236 1893.988)"/><path class="b" d="M854.98,174.08q7.149,6.821,14.3,13.643c0-4.425.017-8.85-.01-13.273,1.134-.051,2.272-.014,3.407-.019q0,10.594,0,21.189-7.134-6.946-14.287-13.873.009,6.76,0,13.518-1.7,0-3.409,0Q854.981,184.671,854.98,174.08Z" transform="translate(5456.845 1893.921)"/><path class="b" d="M175.621,176.847H181a18.834,18.834,0,0,1,4.649.3,5.663,5.663,0,0,1,3.474,2.257,5.907,5.907,0,0,1,.736,4.267,4.284,4.284,0,0,1-2.562,3.256,4.964,4.964,0,0,1,2.816,2.5,5.97,5.97,0,0,1,.131,4.652,5.191,5.191,0,0,1-2.955,2.957,9.236,9.236,0,0,1-3.438.647q-4.114,0-8.228,0,0-10.419,0-20.837m3.441,8.753c1.428-.01,2.856.02,4.284-.014a2.887,2.887,0,0,0,2.8-4.45,3.432,3.432,0,0,0-2.8-1.211c-1.427-.03-2.855,0-4.282-.015-.012,1.9,0,3.793,0,5.689m0,2.93c.012,2.033-.022,4.067.017,6.1,1.549-.027,3.1,0,4.647-.012a4.206,4.206,0,0,0,2.255-.627,3.027,3.027,0,0,0-.024-4.853,4.575,4.575,0,0,0-2.48-.609C182,188.529,180.531,188.527,179.06,188.531Z" transform="translate(6052 1891.5)"/><path class="b" d="M357.593,176.873q1.774,0,3.546,0,0,5.959,0,11.916a7.969,7.969,0,0,0,.828,4.084,3.846,3.846,0,0,0,2.37,1.812,6.368,6.368,0,0,0,3.209,0,3.822,3.822,0,0,0,2.219-1.582,6.993,6.993,0,0,0,.966-3.686q0-6.271,0-12.542,1.774,0,3.546,0,0,5.215,0,10.433a19,19,0,0,1-.384,5.193,7.183,7.183,0,0,1-3,4.253,9.782,9.782,0,0,1-6.371,1.223,7.608,7.608,0,0,1-5.122-2.649,9.709,9.709,0,0,1-1.815-6.418Q357.594,182.89,357.593,176.873Z" transform="translate(5892.586 1891.474)"/><path class="b" d="M745.5,176.873q1.772,0,3.546,0,0,10.419,0,20.838-1.774,0-3.547,0Q745.5,187.291,745.5,176.873Z" transform="translate(5552.755 1891.474)"/><path class="b" d="M1073.621,176.873q6.3,0,12.61,0,0,1.564,0,3.128h-9.156q0,2.5,0,5,4.105,0,8.211,0v3.1q-4.105,0-8.21,0,0,3.222,0,6.445,4.577,0,9.156,0,0,1.578,0,3.158-6.307,0-12.613,0Q1073.622,187.291,1073.621,176.873Z" transform="translate(5265.305 1891.474)"/><path class="b" d="M611.834,431.317a7.515,7.515,0,0,1,4.582-1.791,11.582,11.582,0,0,1,6.875,1.622c.015,1.2,0,2.411.006,3.618a9.885,9.885,0,0,0-5.275-2.185,5.3,5.3,0,0,0-3.555.73,2.249,2.249,0,0,0-.05,3.438,10.854,10.854,0,0,0,3,1.349c1.842.706,3.875,1.181,5.34,2.589a5.466,5.466,0,0,1,1.616,4.115,5.185,5.185,0,0,1-1.645,3.977,8.283,8.283,0,0,1-5.447,1.9,12.074,12.074,0,0,1-6.87-1.792q0-1.839,0-3.679a10.37,10.37,0,0,0,7.226,2.364,4.481,4.481,0,0,0,2.531-.855,2.435,2.435,0,0,0-.1-3.7,12.974,12.974,0,0,0-3.334-1.487c-1.789-.65-3.728-1.2-5.088-2.61a5.561,5.561,0,0,1-1.365-4.531A4.905,4.905,0,0,1,611.834,431.317Z" transform="translate(5671.254 1670.161)"/><path class="b" d="M397.5,429.74q7.1,6.7,14.188,13.42.006-6.556,0-13.11,1.679,0,3.36,0,0,10.421,0,20.84-7.1-6.808-14.173-13.638v13.326q-1.688,0-3.378,0Q397.5,440.16,397.5,429.74Z" transform="translate(5857.624 1669.949)"/><path class="b" d="M288.25,432.373q1.759,0,3.516,0,0,10.255,0,20.512c-1.173,0-2.345,0-3.518,0Z" transform="translate(5953.331 1667.643)"/><path class="b" d="M797.371,432.373q1.757,0,3.516,0v20.513H797.37Q797.372,442.63,797.371,432.373Z" transform="translate(5507.314 1667.643)"/><path class="b" d="M908.123,432.358q3.464,0,6.927,0a19.879,19.879,0,0,1,2.475.077,9.16,9.16,0,0,1,8.421,8.3,13.493,13.493,0,0,1-.316,5.28,9.194,9.194,0,0,1-2.832,4.576,9.526,9.526,0,0,1-4.761,2.122,26.958,26.958,0,0,1-4.1.157h-5.814q0-10.255,0-20.513m3.505,3.1c.027,4.768,0,9.536.012,14.3,1.586-.015,3.173.025,4.758-.022a6.19,6.19,0,0,0,4.579-2.069,8.232,8.232,0,0,0,1.547-5.807,6.959,6.959,0,0,0-2.152-4.957,6.741,6.741,0,0,0-4.582-1.464C914.4,435.45,913.016,435.424,911.629,435.454Z" transform="translate(5410.289 1667.657)"/><path class="b" d="M1112.5,432.373q6.26,0,12.52,0c0,1.028,0,2.054,0,3.081q-4.538,0-9.078,0,0,2.456,0,4.911h8.15c-.011,1.021.023,2.045-.019,3.066-2.707-.04-5.415,0-8.122-.021-.02,2.118,0,4.239-.009,6.358q4.54,0,9.078,0,0,1.556,0,3.114-6.26,0-12.519,0Q1112.5,442.629,1112.5,432.373Z" transform="translate(5231.244 1667.644)"/><path class="b" d="M1297.67,432.362c1.872-.035,3.746,0,5.618-.015.946.015,1.9-.032,2.841.03a7.493,7.493,0,0,1,3.915,1.34,5.168,5.168,0,0,1,1.782,2.445,8.046,8.046,0,0,1,.276,3.712,5.245,5.245,0,0,1-1.42,3.057,5.812,5.812,0,0,1-3.208,1.469c.562.811,1.289,1.5,1.917,2.258q2.722,3.1,5.446,6.2-2,0-3.992,0-3.6-4.155-7.187-8.321c-.827,0-1.653,0-2.478,0q0,4.161,0,8.321h-3.5c-.006-6.832.012-13.665-.01-20.5m3.512,3.007q0,3.129,0,6.259h3.842a4.356,4.356,0,0,0,2.486-.649,3.142,3.142,0,0,0,.066-4.922,4.2,4.2,0,0,0-2.552-.69C1303.744,435.371,1302.462,435.367,1301.183,435.369Z" transform="translate(5069.025 1667.668)"/></g></g></svg>