<svg xmlns="http://www.w3.org/2000/svg" viewBox="6082 692 194.8 20"><defs><style>.a{fill:#fff;opacity:0;}.b{fill:#0574eb;}</style></defs><g transform="translate(5564)"><rect class="a" width="13" height="20" transform="translate(625 692)"/><path class="b" d="M-1152.729,8.4c-1.223-1.4-2.471-2.787-3.676-4.207a17.856,17.856,0,0,0-1.286-1.441c-.093.856-.036,1.719-.052,2.578a40.583,40.583,0,0,0,.114,4.3c.061.3.059.722.4.84a5.863,5.863,0,0,0,1.089.193v.351a24.853,24.853,0,0,0-3.492-.006c.029-.128-.03-.354.169-.355.36-.118.991-.049,1.055-.551a13.95,13.95,0,0,0,.159-2.326c.006-1.724,0-3.448,0-5.173a1.1,1.1,0,0,0-.385-.955,1.889,1.889,0,0,0-1.2-.356c-.014-.081-.041-.243-.056-.324a14.488,14.488,0,0,0,2.5.011,22.038,22.038,0,0,0,2.818,3.523c1.319,1.384,2.511,2.882,3.849,4.246a20.172,20.172,0,0,0,.046-2.046c-.012-1.4.042-2.8-.085-4.2a2.192,2.192,0,0,0-.252-.964,3.731,3.731,0,0,0-1.224-.256c-.006-.108,0-.215,0-.323a23.549,23.549,0,0,0,3.491.005c-.008.112-.009.223-.009.335a1.877,1.877,0,0,0-1.108.33,3.949,3.949,0,0,0-.245,1.554c-.011,1.822,0,3.646,0,5.468,0,.81.008,1.621.066,2.43l-.268.086C-1151.075,10.212-1151.927,9.327-1152.729,8.4Zm48-1.039c-.728-.833-1.461-1.661-2.188-2.493-.614-.706-1.195-1.442-1.839-2.122a10.482,10.482,0,0,0-.072,1.811c.015,1.557-.045,3.116.068,4.669a2.7,2.7,0,0,0,.258,1.123,2.862,2.862,0,0,0,1.277.309c0,.119,0,.238,0,.357a24.049,24.049,0,0,0-3.487-.009c.008-.076.023-.227.031-.3.358-.176.886-.065,1.137-.422a9.818,9.818,0,0,0,.211-2.315c.007-1.855.019-3.711,0-5.566-.012-.793-.9-1.162-1.587-1.1-.006-.086-.018-.256-.025-.342a13.157,13.157,0,0,0,2.472.016,12.954,12.954,0,0,0,1.713,2.273c.987,1.152,2.047,2.24,3.04,3.388.627.712,1.24,1.44,1.918,2.107.1-1.1.022-2.212.047-3.317a24.759,24.759,0,0,0-.134-3.289,1.179,1.179,0,0,0-.224-.615,3.033,3.033,0,0,0-1.2-.225c0-.114,0-.228,0-.341a30,30,0,0,0,3.524.02c.05.5-.578.292-.869.472-.383.1-.422.53-.465.854-.12,1.1-.046,2.213-.062,3.319.015,1.819-.042,3.641.067,5.457l-.274.081C-1102.467,9.859-1103.633,8.64-1104.728,7.36Zm-36.653,3.776a6.076,6.076,0,0,1-4.539-2.049,5.263,5.263,0,0,1,.927-7.378,7.345,7.345,0,0,1,4.882-1.147c.727.033,1.425.256,2.147.329a17.647,17.647,0,0,0,.226,2.252c-.14.023-.28.049-.416.077a2.98,2.98,0,0,0-1.061-1.7,4.063,4.063,0,0,0-2.82-.516,3.861,3.861,0,0,0-2.8,1.641,5.577,5.577,0,0,0-.652,4.072,4.832,4.832,0,0,0,1.716,3.062,4.8,4.8,0,0,0,3.568.816,1.652,1.652,0,0,0,.964-.4,5.25,5.25,0,0,0,.132-1.746c-.031-.341.034-.783-.271-1.018a4.385,4.385,0,0,0-1.441-.281c.012-.127-.112-.372.111-.339a35.11,35.11,0,0,0,3.743.009c.2-.064.138.178.17.3-.328.043-.789.053-.884.452a7.021,7.021,0,0,0,.045,2.327c.024.267.247.447.405.643a19.478,19.478,0,0,1-3.706.607C-1141.082,11.152-1141.231,11.147-1141.381,11.136Zm-81.517-.03a3.52,3.52,0,0,1-.8.008c-.008-.077-.023-.232-.031-.308a4.172,4.172,0,0,0,1.181-.239c.309-.244.276-.69.31-1.044q.048-3.314.083-6.628a4.013,4.013,0,0,0-.14-1.372c-.2-.37-.68-.323-1.034-.367-.006-.113-.01-.227-.015-.341,1.423.079,2.848.075,4.273.071q.518,0,1.035,0a13.04,13.04,0,0,0,1.456-.059,14.383,14.383,0,0,1,.211,2.109c-.107,0-.212.014-.319.012-.21-.482-.285-1.118-.819-1.367a3.691,3.691,0,0,0-1.5-.188c-.2,0-.389,0-.581,0a4.047,4.047,0,0,1-.427,0,1.994,1.994,0,0,0-.8.075,10.5,10.5,0,0,0-.052,1.634c.023.774-.049,1.555.04,2.324a.5.5,0,0,0,.388.1,1.294,1.294,0,0,1,.167.006c.228-.008.457-.006.686,0a7.72,7.72,0,0,0,1.32-.061c.485-.192.4-.839.547-1.253.14,0,.28-.007.422-.008-.018.636-.086,1.272-.061,1.909.017.429.055.857.053,1.287-.132-.005-.263-.012-.394-.02-.158-.419-.11-1.094-.655-1.212a14.042,14.042,0,0,0-2.308-.061c-.293-.043-.272.3-.275.493.01.915-.025,1.831.027,2.746.031.394.092.905.522,1.066a5.375,5.375,0,0,0,1.772.173,5.245,5.245,0,0,0,1.823-.221c.548-.344.766-.992,1.1-1.51.112.016.225.036.337.058a14.225,14.225,0,0,1-.729,2.245C-1218.353,11.129-1220.625,11.027-1222.9,11.106Zm102.11-.561a5.091,5.091,0,0,1-2.7-3.5,5.485,5.485,0,0,1,1.362-4.88,5.33,5.33,0,0,1,2.916-1.531,5.71,5.71,0,0,1,4.75,1.164,5.494,5.494,0,0,1,1.555,5.316,5.189,5.189,0,0,1-2.318,3.235,5.53,5.53,0,0,1-2.922.806A6.028,6.028,0,0,1-1120.789,10.545Zm1.775-9.533a3.442,3.442,0,0,0-2.535,1.94,6.214,6.214,0,0,0-.427,3.365,5.492,5.492,0,0,0,1.429,3.22,3.859,3.859,0,0,0,3.6.941,3.276,3.276,0,0,0,2.118-1.793,6.338,6.338,0,0,0,.43-3.547,5.356,5.356,0,0,0-1.559-3.3,3.542,3.542,0,0,0-2.4-.885A3.918,3.918,0,0,0-1119.014,1.012Zm-56.444,9.633c.372-.117.917-.072,1.094-.5a4.419,4.419,0,0,0,.126-1.3q0-3.02,0-6.04a3.708,3.708,0,0,0-.129-1.211c-.194-.376-.692-.317-1.044-.365,0-.085-.012-.256-.016-.341,1.739.1,3.482.068,5.223.068a13.44,13.44,0,0,0,1.538-.059,19.271,19.271,0,0,0,.069,2.015l-.343.087c-.116-.467-.192-1.032-.641-1.3a3.745,3.745,0,0,0-1.7-.234c-.169,0-.339,0-.508,0a5.814,5.814,0,0,0-.986.035l-.064.052a15.479,15.479,0,0,0-.044,1.842c.02.683-.048,1.372.041,2.05a1.026,1.026,0,0,0,.551.087c.08,0,.16,0,.237,0,.231-.009.462-.007.694,0a7.389,7.389,0,0,0,1.287-.06c.491-.188.4-.839.551-1.255.14,0,.281-.007.422-.008a21.116,21.116,0,0,0,0,3.149c-.142-.006-.282-.012-.421-.021-.123-.409-.133-1.008-.622-1.156a5.611,5.611,0,0,0-1.282-.078c-.212,0-.424.007-.635,0-.084.005-.171,0-.259,0a1.237,1.237,0,0,0-.572.072,1.79,1.79,0,0,0-.066.634c.013.94-.015,1.88.018,2.82.026.3.029.689.334.843a5.52,5.52,0,0,0,1.1.2q.014.174.029.35a37.506,37.506,0,0,0-3.9-.012.186.186,0,0,1-.079.019C-1175.638,11.013-1175.677,10.665-1175.458,10.645Zm-9.346.05c.355-.152.79-.1,1.1-.358a1.835,1.835,0,0,0,.249-1.11c.013-2.242.009-4.484,0-6.725a1.8,1.8,0,0,0-.215-1.043c-.26-.231-.639-.191-.96-.236,0-.085-.005-.255-.008-.339,1.4.08,2.81.075,4.216.071q.529,0,1.059,0A13.914,13.914,0,0,0-1177.878.9a20.028,20.028,0,0,0,.07,2.011l-.336.092c-.127-.474-.2-1.054-.669-1.32a3.685,3.685,0,0,0-1.615-.221c-.175,0-.35,0-.525,0a7.132,7.132,0,0,0-1,.028l-.094.075a18.651,18.651,0,0,0-.04,1.921,18.855,18.855,0,0,0,.039,1.929l.094.078a9.665,9.665,0,0,0,1.3.034c.238,0,.477-.009.714,0,.294-.022.648.036.882-.186.254-.322.172-.792.384-1.127l.368-.012a22.682,22.682,0,0,0,0,3.154l-.41-.012c-.13-.387-.126-.918-.536-1.129a2.792,2.792,0,0,0-1-.112c-.124,0-.247,0-.368,0-.169.006-.339,0-.508,0a4.819,4.819,0,0,0-.929.041c-.118.123-.081.31-.1.466.007,1.005-.014,2.01.014,3.015.028.291.025.667.312.834a4.459,4.459,0,0,0,1.119.2c.012.119.024.239.037.359a33.147,33.147,0,0,0-4.095,0C-1184.789,10.906-1184.8,10.8-1184.8,10.7Zm-10.092-.446a3.007,3.007,0,0,1-1.036-1.513,10.161,10.161,0,0,1-.3-3.206c-.005-1.106.011-2.211-.01-3.315-.027-.326-.005-.734-.3-.954a2.152,2.152,0,0,0-1.01-.174q-.012-.171-.022-.342a35.458,35.458,0,0,0,3.9.013c0,.11-.008.219-.011.329a1.726,1.726,0,0,0-1.078.236,1.837,1.837,0,0,0-.253,1.081c-.013,1.4-.011,2.8,0,4.2a4.554,4.554,0,0,0,.869,2.9,3.037,3.037,0,0,0,2.515.853,2.646,2.646,0,0,0,2.028-1.045,5.2,5.2,0,0,0,.8-3.1c-.01-1.285.032-2.573-.073-3.855a2.6,2.6,0,0,0-.24-1c-.279-.328-.752-.311-1.144-.343-.005-.084-.016-.251-.021-.334a25.82,25.82,0,0,0,3.559-.005,1.2,1.2,0,0,1-.032.333c-.4.044-.891-.019-1.162.345a2.672,2.672,0,0,0-.189.955c-.1,1.48-.028,2.965-.071,4.447a5.051,5.051,0,0,1-.926,2.962,3.953,3.953,0,0,1-3.02,1.291h-.036A4.411,4.411,0,0,1-1194.9,10.249Zm-8.99.363a6.733,6.733,0,0,0,.994-.281c.291-.2.268-.594.3-.906.009-1.07.029-2.142-.007-3.211,0-.259-.331-.247-.513-.259-.928-.01-1.855-.008-2.783-.007q-.95,0-1.9,0a1.117,1.117,0,0,0-.561.092,1.1,1.1,0,0,0-.084.555c.012.946-.016,1.891.019,2.836.033.312.028.691.289.911a3.483,3.483,0,0,0,1.076.241c.006.088.018.263.025.352a30.624,30.624,0,0,0-3.823,0c.005-.083.015-.25.02-.334.342-.148.825-.084,1.045-.436a4.227,4.227,0,0,0,.138-1.428V3.287a5.613,5.613,0,0,0-.157-1.713c-.21-.467-.812-.39-1.232-.411,0-.087-.011-.262-.015-.35a27.968,27.968,0,0,0,3.783,0c.023.113.046.225.068.338-.363.038-.806-.016-1.077.278a2.283,2.283,0,0,0-.225,1.177c0,.844-.027,1.692.013,2.535,0,.261.327.211.5.232q1.334.005,2.667,0,1.048,0,2.1,0a1.342,1.342,0,0,0,.639-.1,1.474,1.474,0,0,0,.079-.633c-.012-.842.015-1.686-.019-2.529-.026-.277-.028-.625-.285-.8a2.3,2.3,0,0,0-.944-.162c0-.086-.014-.256-.018-.342a26.969,26.969,0,0,0,3.715,0c.023.114.045.227.068.341-.377.033-.823-.029-1.125.247a2.108,2.108,0,0,0-.248,1.2q-.012,3.316,0,6.634a1.7,1.7,0,0,0,.221,1.035,2.734,2.734,0,0,0,1.086.316c.006.088.019.263.024.351a28.5,28.5,0,0,0-3.791,0C-1203.849,10.83-1203.868,10.721-1203.885,10.612Zm37.762.314-.062-.242c.313-.279.87-.121,1.17-.46a2.09,2.09,0,0,0,.2-1.1c0-2.242.006-4.483,0-6.724a1.69,1.69,0,0,0-.24-1.06,1.773,1.773,0,0,0-1.069-.257c-.008-.116-.015-.23-.021-.345a30.583,30.583,0,0,0,3.933,0c.018.083.051.251.067.334a2.283,2.283,0,0,0-1.1.2c-.284.259-.244.685-.273,1.034-.015,2.238,0,4.476-.006,6.715.031.423-.056.922.23,1.275a2.846,2.846,0,0,0,1.085.277c0,.089.013.266.018.356A34.088,34.088,0,0,0-1166.123,10.926Zm94.2-.56a8.168,8.168,0,0,1-.4-2.03c-.093-.237.367-.33.366-.076a3.123,3.123,0,0,0,1.429,1.9,2.361,2.361,0,0,0,2.6-.241,2.055,2.055,0,0,0,.305-2.285A3.4,3.4,0,0,0-1069,6.315c-.473-.312-.96-.6-1.419-.935a3.121,3.121,0,0,1-1.322-2.1,2.487,2.487,0,0,1,.823-2.2,3.632,3.632,0,0,1,2.688-.75c.552.024,1.067.249,1.619.284a7.643,7.643,0,0,1,.282,1.852l-.339.1a2.436,2.436,0,0,0-1.066-1.524,2.421,2.421,0,0,0-2.053-.017,1.71,1.71,0,0,0-.55,2.419,4.459,4.459,0,0,0,1.6,1.315,7.089,7.089,0,0,1,1.915,1.491,2.989,2.989,0,0,1,.29,3.2,2.792,2.792,0,0,1-1.656,1.292,4.48,4.48,0,0,1-1.3.186A5.808,5.808,0,0,1-1071.925,10.366Zm-165.023.56c.013-.081.037-.242.05-.322a4.026,4.026,0,0,0,.942-.308,1.514,1.514,0,0,0,.231-.974c.015-1.947,0-3.895.007-5.842a11.379,11.379,0,0,0-.064-1.563.811.811,0,0,0-.321-.609,2.314,2.314,0,0,0-1-.147c-.006-.085-.017-.258-.024-.344a30.878,30.878,0,0,0,3.808,0c.009.084.025.253.034.337-.4.032-.962-.023-1.149.422a7.121,7.121,0,0,0-.143,2,12.171,12.171,0,0,0,.048,1.691c.142.124.352.087.526.105,1.624,0,3.25,0,4.876,0,.2-.01.533.011.532-.269.04-.9.01-1.8.011-2.7a1.742,1.742,0,0,0-.212-1.015c-.278-.246-.687-.2-1.031-.233,0-.087-.007-.258-.009-.344a27.75,27.75,0,0,0,3.729.005c.009.085.027.256.035.342-.376.028-.829-.034-1.122.256a2.17,2.17,0,0,0-.238,1.181q-.009,3.366,0,6.731c.026.326-.01.721.248.966a3.161,3.161,0,0,0,1.054.29c.007.088.022.263.03.351a32.507,32.507,0,0,0-3.844-.006c.01-.082.033-.246.044-.329a5.306,5.306,0,0,0,.977-.292c.278-.237.239-.647.266-.977,0-1.04.027-2.084-.011-3.123-.016-.275-.364-.237-.558-.256-1.6-.009-3.193-.006-4.789,0-.153.018-.391-.013-.454.169a5.118,5.118,0,0,0-.038.962c.013.848-.028,1.7.033,2.546.032.282.077.649.38.772a5.959,5.959,0,0,0,.974.182c0,.089.014.265.019.354A33.551,33.551,0,0,0-1236.948,10.926Zm-6.222-.025c-.417-.021-.833-.041-1.25-.033-.627-.006-1.253.048-1.879.056.011-.079.031-.239.042-.318a6.281,6.281,0,0,0,1.208-.248c.34-.26.288-.748.325-1.128.021-2.436,0-4.872.011-7.308a2.025,2.025,0,0,0-.057-.632,2.577,2.577,0,0,0-.744-.053c-.124,0-.248.006-.369,0a4.69,4.69,0,0,0-1.75.207c-.489.265-.687.816-.986,1.25a.784.784,0,0,1-.381-.134,21.3,21.3,0,0,0,.575-2.331l.244-.008a.823.823,0,0,0,.922.512c1.237.007,2.474.006,3.711,0q1.412,0,2.824,0h.184a4.258,4.258,0,0,0,.64-.032c.32-.013.405-.494.759-.377a11.5,11.5,0,0,0-.233,2.491.763.763,0,0,0-.116,0c-.127.007-.27.014-.3-.125-.133-.422-.094-1.035-.577-1.238a4.093,4.093,0,0,0-1.665-.22c-.181,0-.362,0-.54,0-.086.006-.175,0-.264,0a1.189,1.189,0,0,0-.555.069,2.677,2.677,0,0,0-.046.61c-.014,2.435-.063,4.87-.064,7.306.034.377-.039.857.287,1.128a4.071,4.071,0,0,0,1.164.229c.008.118.016.236.023.355h-.083C-1242.463,10.936-1242.817,10.919-1243.17,10.9Zm160.6-.584a5.006,5.006,0,0,1-2.645-3.445,5.511,5.511,0,0,1,1.342-4.911,5.323,5.323,0,0,1,2.834-1.528,5.726,5.726,0,0,1,4.866,1.163,5.536,5.536,0,0,1,1.357,5.895,5.188,5.188,0,0,1-3.209,3.146,5.909,5.909,0,0,1-1.868.3A6.072,6.072,0,0,1-1082.567,10.318Zm1.719-9.5a3.455,3.455,0,0,0-2.492,2.065,6.651,6.651,0,0,0-.22,4,4.543,4.543,0,0,0,2.148,3.078,4.165,4.165,0,0,0,2.45.368,3.209,3.209,0,0,0,2.26-1.584,6.022,6.022,0,0,0,.589-3.705,5.38,5.38,0,0,0-1.615-3.444,3.537,3.537,0,0,0-2.354-.848A3.928,3.928,0,0,0-1080.848.819ZM-1129.219,10.9c-.416-.021-.831-.041-1.247-.032-.314,0-.627.011-.941.027s-.618.031-.928.028c.011-.079.032-.238.044-.316a6.305,6.305,0,0,0,1.208-.247c.342-.261.288-.754.325-1.136.021-2.434,0-4.868.01-7.3a2.011,2.011,0,0,0-.059-.636,3.778,3.778,0,0,0-.885-.048c-.144,0-.288.007-.431,0a3.689,3.689,0,0,0-1.608.241,3.113,3.113,0,0,0-.9,1.224c-.137-.036-.275-.071-.41-.1.2-.785.45-1.556.591-2.356.29-.16.309.268.515.371a2.006,2.006,0,0,0,.836.125q3.314,0,6.627,0a2.309,2.309,0,0,0,.671-.068c.217-.115.324-.433.622-.344a11.861,11.861,0,0,0-.235,2.488c-.13,0-.259.006-.386.007a3.385,3.385,0,0,0-.37-1.206,2.242,2.242,0,0,0-1.373-.367c-.586-.007-1.173-.034-1.757.008-.194,0-.145.232-.165.359-.023,2.536-.065,5.075-.07,7.612.033.372-.038.843.276,1.115a3.91,3.91,0,0,0,1.175.238c.006.088.018.264.024.353h-.106C-1128.516,10.935-1128.868,10.918-1129.219,10.9Zm34.466-.179c0-.081.012-.245.016-.326a4.053,4.053,0,0,0,1.054-.32c.282-.279.24-.717.273-1.081.014-2.271.01-4.544,0-6.815-.023-.316.013-.7-.238-.936a3.471,3.471,0,0,0-1.1-.224c0-.114,0-.228,0-.341A21.172,21.172,0,0,1-1091.5.53a4.891,4.891,0,0,1,2.921.712,2.74,2.74,0,0,1,.225,4.22,4.531,4.531,0,0,1-2.872.849c-.028-.085-.053-.171-.076-.256a2.872,2.872,0,0,0,2.064-1.188,3.076,3.076,0,0,0,.079-2.66,2.568,2.568,0,0,0-2.892-1.115c-.224.074-.2.348-.205.534q0,2.973,0,5.948a12.427,12.427,0,0,0,.09,2.226c.2.549.912.447,1.371.574,0,.088.009.262.011.35A31.84,31.84,0,0,0-1094.753,10.722Zm33.442-.317c.408-.143.892-.051,1.263-.3a1.661,1.661,0,0,0,.268-1.067c.022-1.753,0-3.507.01-5.261-.027-.892.052-1.791-.04-2.68a1.873,1.873,0,0,0-.711-.073c-.1,0-.2.005-.3,0a5.567,5.567,0,0,0-1.8.183,2.678,2.678,0,0,0-1.026,1.289c-.141-.042-.28-.087-.417-.133a18.692,18.692,0,0,0,.592-2.34l.218-.024a.853.853,0,0,0,.894.521c2.4.008,4.793.012,7.189,0a.856.856,0,0,0,.737-.42c.077.017.157.032.239.048V.185a11.054,11.054,0,0,0-.232,2.415c-.133,0-.262,0-.389,0a3.015,3.015,0,0,0-.39-1.214,2.762,2.762,0,0,0-1.617-.353c-.163,0-.327,0-.49-.006a5.178,5.178,0,0,0-1.123.054,3.7,3.7,0,0,0-.051.741c-.011,2.407-.062,4.813-.061,7.22.027.36-.024.8.255,1.075.349.219.792.145,1.171.281.022.081.063.242.084.321-.547.01-1.094-.027-1.639-.052-.892-.041-1.784.022-2.675.054C-1061.345,10.641-1061.322,10.483-1061.31,10.4Z" transform="translate(1767 696)"/></g></svg>