<svg xmlns="http://www.w3.org/2000/svg" viewBox="6327 702 68.198 20"><defs><style>.a{fill:#fff;opacity:0;}.b{fill:#0574eb;}</style></defs><g transform="translate(5564)"><rect class="a" width="19" height="20" transform="translate(763 702)"/><path class="b" d="M26.162,13.287c-2.838-1.512-3.291-5.478-1.9-8.128,1.371-2.551,4.922-3.038,7.362-1.881,1.8.93,2.42,3.074,2.347,4.968-2.663.315-5.33.6-7.98.993a3.427,3.427,0,0,0,1.923,2.749,7.386,7.386,0,0,0,5.014-.309c.214.506.427,1.016.645,1.522a11.063,11.063,0,0,1-4.021.8A7.963,7.963,0,0,1,26.162,13.287Zm.293-7.845a4.605,4.605,0,0,0-.589,2.525c1.891-.283,3.8-.424,5.685-.782A4,4,0,0,0,30.631,4.8a2.748,2.748,0,0,0-1.8-.632A2.717,2.717,0,0,0,26.455,5.442Zm35,8.338a3.529,3.529,0,0,1-2.732-1.874,3.122,3.122,0,0,1,.917-3.617c1.739-1.263,3.985-1.4,6.05-1.624-.007-.769-.053-1.749-.885-2.095-1.6-.647-3.387-.2-4.975.273-.2-.46-.4-.924-.6-1.384,2.2-.724,4.7-1.154,6.925-.289a3.171,3.171,0,0,1,1.907,2.5v7.6a13.605,13.605,0,0,1-4.338.728A12.012,12.012,0,0,1,61.459,13.78Zm-.3-4.215a2.119,2.119,0,0,0,.467,2.492,4.949,4.949,0,0,0,4.044.237c.007-1.5,0-3,.01-4.494C64.112,8.075,62.13,8.059,61.163,9.565ZM47.37,13.149a2.939,2.939,0,0,1-.924-2.315c-.017-2.131.007-4.261,0-6.392-.52,0-1.042,0-1.562-.007V2.959h1.562c0-.766-.033-1.536.023-2.3A13.722,13.722,0,0,1,48.82,0h.253V2.956q1.11,0,2.223,0c0,.5-.007.99-.007,1.483-.736,0-1.473,0-2.209-.007.01,2.236-.046,4.478.016,6.714.02,1.114,1.348,1.282,2.2,1.138-.007.51-.013,1.016-.02,1.526a9.916,9.916,0,0,1-1.464.127A3.533,3.533,0,0,1,47.37,13.149Zm-13.536.582c1.391-1.881,2.8-3.745,4.205-5.616C36.789,6.4,35.517,4.7,34.284,2.962q1.416,0,2.838,0c.806,1.207,1.644,2.39,2.439,3.6.835-1.2,1.674-2.394,2.5-3.6.862,0,1.72,0,2.578.007-1.263,1.68-2.529,3.357-3.834,5,1.378,1.94,2.851,3.811,4.225,5.754-.986,0-1.973,0-2.959.007-.911-1.355-1.851-2.69-2.733-4.061-.881,1.355-1.808,2.676-2.686,4.031-.782.027-1.564.03-2.348.03ZM19.971,6.25a1.707,1.707,0,0,0-.934-1.67,5.468,5.468,0,0,0-3.669-.073q.01,4.607,0,9.22h-2.63c-.007-3.42.01-6.839-.007-10.259a13.83,13.83,0,0,1,7.043-.539A3.131,3.131,0,0,1,22.51,5.606c.036,2.706,0,5.415.013,8.121q-1.272,0-2.542,0C19.961,11.235,19.984,8.743,19.971,6.25ZM0,13.727V0H7.891V1.644H2.63V5.918H7.316c0,.52,0,1.039,0,1.559q-2.348,0-4.689,0c0,2.081,0,4.166,0,6.25C1.752,13.727.875,13.727,0,13.727Zm52.611,0c0-3.429-.023-6.862.013-10.291a15.976,15.976,0,0,1,6.217-.7q-.261.858-.549,1.707a6.384,6.384,0,0,0-3.14.082c.006,3.068,0,6.135,0,9.2Zm-43.73,0q-.01-5.381,0-10.768c.849,0,1.7,0,2.548,0q0,5.381,0,10.765ZM8.878,0h2.548c0,.546,0,1.095,0,1.641-.851,0-1.7,0-2.551,0Z" transform="translate(763.137 704.577)"/></g></svg>