<svg xmlns="http://www.w3.org/2000/svg" viewBox="3722.955 702 51.93 20"><defs><style>.a{fill:#0574eb;}.b,.c{fill:#fff;}.c{opacity:0;}</style></defs><g transform="translate(2685)"><g transform="translate(1036.945 704.662)"><path class="a" d="M273.082,1.051c1.341-.279,2.688-.53,4.037-.771.087.83,0,1.665.007,2.5.007.611-.012,1.221.01,1.831a3.978,3.978,0,0,1,3.875.06,4.391,4.391,0,0,1,1.81,3.538,5.608,5.608,0,0,1-1.3,4.256,4.886,4.886,0,0,1-3.616,1.454h-.8a15.672,15.672,0,0,1-2.777-.429c.056-3.257.083-6.516.031-9.774A3.358,3.358,0,0,0,274,1.844c-.242-.253-.629-.251-.94-.369.007-.141.015-.284.022-.425M277.128,5.4c0,1.276-.066,2.553,0,3.828,0,1.277.009,2.554.071,3.83a1.6,1.6,0,0,0,1.819-.673,7.145,7.145,0,0,0,.848-4.567,3.3,3.3,0,0,0-1.171-2.346A1.8,1.8,0,0,0,277.128,5.4Z" transform="translate(-246.594 0)"/><path class="a" d="M1.015,2.984c3.057-.008,6.115,0,9.173,0,.458.006.915-.017,1.373.018q.053,1.877.071,3.754c-.222.049-.457.2-.683.124a12.9,12.9,0,0,0-.791-1.625A2.463,2.463,0,0,0,8.214,4.057c-.764-.048-1.532-.019-2.3-.02-.1,1.7-.112,3.406-.119,5.109a6.972,6.972,0,0,0,1.76-.1C8.243,8.786,8.46,8,8.6,7.36c.212-.02.427-.033.64-.036,0,1.51.007,3.02,0,4.531-.209-.013-.416-.022-.625-.029-.162-.628-.338-1.4-1-1.688A8.2,8.2,0,0,0,5.8,10c0,1.251.021,2.5.136,3.751a1.994,1.994,0,0,0,.619,1.468,7.576,7.576,0,0,0,1.264.318c0,.185,0,.371,0,.556a3.963,3.963,0,0,1-.446.034c-1.747-.007-3.493,0-5.24,0a10.65,10.65,0,0,1-1.12-.025c0-.195,0-.388,0-.583.319-.091.653-.124.966-.236a1.3,1.3,0,0,0,.662-.978,17.35,17.35,0,0,0,.191-2.626c0-1.529,0-3.057,0-4.586a13.918,13.918,0,0,0-.176-2.241,1.638,1.638,0,0,0-.47-.891A2.582,2.582,0,0,0,1.01,3.637Q1.02,3.31,1.015,2.984Z" transform="translate(0 -2.446)"/><path class="a" d="M102.986,40.136a4.775,4.775,0,0,1,4.065.987,5.138,5.138,0,0,1,1.445,3.971,5.164,5.164,0,0,1-.974,3.133,4.38,4.38,0,0,1-3.436,1.731h-.6a4.257,4.257,0,0,1-2.314-.713A4.42,4.42,0,0,1,99.364,46.2a5.605,5.605,0,0,1,1.1-4.652,4.241,4.241,0,0,1,2.519-1.411m.514.707a1.444,1.444,0,0,0-.857.9,7.076,7.076,0,0,0-.423,2.5,12.817,12.817,0,0,0,.16,2.815A3.686,3.686,0,0,0,103.2,48.9a1.051,1.051,0,0,0,1.314.149,2.041,2.041,0,0,0,.771-1.2A11.06,11.06,0,0,0,105.578,45a7.172,7.172,0,0,0-.672-3.422A1.264,1.264,0,0,0,103.5,40.843Z" transform="translate(-89.065 -36.043)"/><path class="a" d="M202.354,40.426a2.509,2.509,0,0,1,2.364-.405c.139.047.329.162.226.335-.295.825-.58,1.657-.947,2.452a2.941,2.941,0,0,0-1.988-.408c-.3.085-.771.2-.764.591a43.892,43.892,0,0,0,.047,4.681c.045.414.086.947.516,1.145a7.267,7.267,0,0,0,1.038.167,2.63,2.63,0,0,1-.043.605c-1.448-.022-2.9,0-4.343-.009a6.638,6.638,0,0,1-1.287-.056c0-.175.007-.351.013-.526.316-.108.7-.08.948-.341a1.759,1.759,0,0,0,.309-1.086c.056-1.153.038-2.308.042-3.462a16.009,16.009,0,0,0-.076-1.929,1.052,1.052,0,0,0-.413-.8c-.257-.111-.545-.122-.807-.213a1.058,1.058,0,0,1,0-.4,1.355,1.355,0,0,1,.44-.138c1.227-.246,2.45-.51,3.683-.72-.017.614-.053,1.227-.051,1.841A4.814,4.814,0,0,1,202.354,40.426Z" transform="translate(-177.804 -35.901)"/><path class="a" d="M386.239,41.423a4.626,4.626,0,0,1,4.33-1.206,3.256,3.256,0,0,1,2.08,1.588,5.649,5.649,0,0,1,.633,2.864c-1.846.054-3.694.015-5.54.028a5.656,5.656,0,0,0,.3,1.844,2.923,2.923,0,0,0,1.926,1.877,3.633,3.633,0,0,0,1.995-.071c.328-.109.6-.343.917-.466a.6.6,0,0,1,.277.345,2.1,2.1,0,0,1-.613.719,4.449,4.449,0,0,1-2.786,1.061h-.513a4.387,4.387,0,0,1-3.283-1.608,4.876,4.876,0,0,1-1.048-3.256,5.131,5.131,0,0,1,1.326-3.718m1.989.374a5.674,5.674,0,0,0-.46,2.082c.89-.032,1.782-.031,2.671-.074a6.9,6.9,0,0,0-.379-2.31c-.14-.341-.447-.7-.855-.633A1.469,1.469,0,0,0,388.228,41.8Z" transform="translate(-347.976 -36.092)"/><path class="a" d="M481.406,40.564A4.689,4.689,0,0,1,483.9,40.1a7.132,7.132,0,0,1,2.366.489c.01.843.081,1.69.038,2.532-.167.047-.457.225-.541-.022a3.921,3.921,0,0,0-1.21-1.891,1.513,1.513,0,0,0-1.68-.091,1.271,1.271,0,0,0-.1,1.966c.974.823,2.341.986,3.294,1.846a2.3,2.3,0,0,1,.735,1.636v.317a2.983,2.983,0,0,1-.579,1.776,3.572,3.572,0,0,1-2.336,1.286,9.112,9.112,0,0,1-4.178-.5c-.006-.946-.038-1.892-.05-2.838l.514-.114a3.975,3.975,0,0,0,1.767,2.369,1.794,1.794,0,0,0,1.766-.188,1.289,1.289,0,0,0,.068-1.92c-.962-.777-2.33-.85-3.219-1.737a2.645,2.645,0,0,1-.7-2.309A2.936,2.936,0,0,1,481.406,40.564Z" transform="translate(-433.863 -36.082)"/><path class="b" d="M132.036,48.151a1.264,1.264,0,0,1,1.406.735,7.172,7.172,0,0,1,.672,3.422,11.061,11.061,0,0,1-.291,2.846,2.041,2.041,0,0,1-.771,1.2,1.051,1.051,0,0,1-1.314-.149,3.687,3.687,0,0,1-.822-1.839,12.818,12.818,0,0,1-.16-2.815,7.075,7.075,0,0,1,.423-2.5A1.444,1.444,0,0,1,132.036,48.151Z" transform="translate(-117.602 -43.35)"/><path class="b" d="M415.94,49.136a1.469,1.469,0,0,1,.977-.936c.408-.063.715.293.855.633a6.9,6.9,0,0,1,.379,2.31c-.89.043-1.782.042-2.671.074A5.674,5.674,0,0,1,415.94,49.136Z" transform="translate(-375.688 -43.429)"/><path class="b" d="M316.246,53.666a1.8,1.8,0,0,1,1.563.072,3.3,3.3,0,0,1,1.171,2.346,7.145,7.145,0,0,1-.848,4.567,1.6,1.6,0,0,1-1.819.673c-.062-1.275-.072-2.553-.071-3.83C316.18,56.219,316.247,54.942,316.246,53.666Z" transform="translate(-285.712 -48.261)"/></g><rect class="c" width="30" height="20" transform="translate(1054 702)"/></g></svg>