<svg xmlns="http://www.w3.org/2000/svg" viewBox="8025 701 115.077 20"><defs><style>.a{fill:#0574eb;}.b{fill:#fff;opacity:0;}</style></defs><g transform="translate(7000)"><path class="a" d="M105.554.874a2.085,2.085,0,0,0,.873,2.052c.043,2.384.032,4.768.011,7.158-.868.348-.836,1.227-.884,2.02,1.5.016,3,.01,4.506.01l.005-1.731-.964-.059c.027-.927.048-1.854.086-2.775l.777.187c.488.755.98,1.511,1.468,2.272a8.868,8.868,0,0,0-.546,2.095c1.559.016,3.124.01,4.683.01l-.027-1.554c-1.522-.182-1.923-1.827-2.711-2.866A8.031,8.031,0,0,0,114.5,6.366c1.259-1.773.5-4.816-1.768-5.32C110.37.644,107.943.955,105.554.874Zm3.574,2.138C110,3.007,110.874,3,111.747,3l.884,1.093c-.279.536-.552,1.072-.814,1.607-.9-.016-1.795-.021-2.69-.021ZM95.706,10.888a2.537,2.537,0,0,1-.23-.23l.027,1.425c3.016.085,6.038.005,9.06.032-.005-.954-.005-1.907-.005-2.861-.863.172-2.266-.423-2.491.847-1.05.016-2.1.011-3.15,0q.032-1.334.048-2.668l4.377.005c0-.5.011-1.505.016-2.009l-4.4.011c-.005-.814-.005-1.629-.005-2.443,1.168.171,2.738-.477,3.541.664.45.005,1.361.016,1.811.016l.011-2.813c-2.979.005-5.952-.011-8.931.011.054.788.005,1.677.879,2.014C96.065,5.546,96.81,8.386,95.706,10.888Zm-7.678.916c2.513,1.125,5.208.1,7.447-1.146-1.22-1.34-.3-3.448-.53-5.1-1.7-.016-3.407-.016-5.106-.016,0,.536.005,1.613.011,2.149l2.379-.011c.005.782.011,1.559.021,2.341-1.12.091-2.384.386-3.37-.332-1.763-1.211-1.923-3.905-.809-5.6.954-1.463,3.038-1.543,4.522-1l.182,1.13h1.993c0-.836.011-1.672.021-2.5C92.369.51,89.229.2,86.925,1.823,83.534,4.18,84.059,10.325,88.029,11.8ZM75.235.864V2.616c.263-.005.788-.005,1.055-.011-1.163,2.513-2.17,5.1-3.407,7.57l-.986.386-.027,1.554h4.436l-.005-1.65-1.168-.434c1.838-.868,3.933-.306,5.893-.451l.536.509c-1.1.15-.991,1.163-1.034,2.025h4.5c-.011-.391-.021-1.168-.027-1.559l-.98-.38C82.527,7.154,81.23,4.025,79.891.928,78.337.848,76.789.858,75.235.864Zm1.4,6.7q.956-2.009,1.806-4.066c.579,1.372,1.195,2.727,1.806,4.083C79.044,7.593,77.844,7.561,76.639,7.561ZM50.59.864V2.616c.263-.005.788-.005,1.055-.011-.846,1.94-1.736,3.858-2.555,5.8-.423.868-.627,2.079-1.822,2.154l.059,1.554h4.334l-.005-1.655-1.168-.418a4.277,4.277,0,0,1,2.24-.482c1.468.064,3.043-.252,4.393.477l-1.168.423-.005,1.655H64.52V10.384l-.938-.053c.016-1.789.011-3.574.011-5.363,1.779,2.33,3.386,4.789,5.122,7.152.873-.005,1.752-.011,2.631-.011-.011-3.156.011-6.311-.011-9.467l.938-.054L72.267.864H67.879L67.873,2.61l.8.038c-.021,1.773-.016,3.541-.011,5.315-1.731-2.341-3.4-4.72-5.063-7.1-1.195.005-2.395.005-3.59.016a2.085,2.085,0,0,0,.873,2.052c.054,2.47.005,4.94.038,7.409-.52-.005-1.039-.005-1.554,0C58.015,7.191,56.553,4.094,55.245.928,53.692.848,52.138.858,50.59.864Zm1.425,6.719L53.82,3.51c.563,1.366,1.173,2.711,1.784,4.056ZM31.6.874c.112.766.118,1.629.889,2.047.043,2.384.032,4.774.011,7.158-.857.354-.825,1.237-.884,2.025,1.5.016,3,.01,4.506.01V10.384l-.938-.053c.016-1.923,0-3.841.005-5.759,1.066,2.5,2.181,4.988,3.2,7.512l1.907.048c1.04-2.5,2.132-4.977,3.145-7.485.043,1.891.032,3.788.048,5.684l-.8.043.005,1.741c1.436,0,2.872,0,4.308-.01-.113-.75-.086-1.607-.814-2.058-.054-2.373-.043-4.747-.005-7.12A2.1,2.1,0,0,0,47.059.874C45.575.858,44.091.864,42.607.864c-1.088,2.513-2.17,5.031-3.215,7.57-1.147-2.5-2.191-5.047-3.279-7.57C34.608.864,33.1.858,31.6.874Zm-7.549.713C20.6,3.6,20.6,9.383,24.032,11.413a6.7,6.7,0,0,0,7.677-.75c-.525-.493-1.039-.991-1.554-1.49a3.839,3.839,0,0,1-4.495.514,4.117,4.117,0,0,1,0-6.4c1.082-.734,2.422-.444,3.632-.375l.016,1.307c.531,0,1.6,0,2.132-.005.005-.841.016-1.677.032-2.518C29.18.591,26.319.221,24.053,1.587ZM10.155.864V3.7c.461-.011,1.377-.032,1.833-.037.386-.975,1.516-.552,2.314-.7v7.4c-.23,0-.686,0-.916-.006l-.037,1.736c1.473.021,2.941.032,4.415.021,0-.434,0-1.307.005-1.741l-.793-.027c.011-2.449.005-4.892,0-7.34h1.977l.07.686,2.1-.011V.864ZM.49.885.528,2.621c.23-.005.686-.005.916-.005v7.742c-.23.006-.7.006-.932.011v1.746c2.583-.129,5.224.273,7.769-.215,2.534-.857,2.486-4.607.3-5.861C10.23,4.507,9.6,1.244,7.225.928,4.985.773,2.735.89.49.885ZM4.123,3.007H6.26l.713,1.072L6.266,5.15H4.123Zm0,4.27c1.007.166,2.395-.4,3.065.616.739.68-.032,1.468-.386,2.089-.895-.01-1.789-.01-2.684-.016Z" transform="translate(1024.51 705.294)"/><rect class="b" width="9" height="20" transform="translate(1079 701)"/></g></svg>