<svg xmlns="http://www.w3.org/2000/svg" viewBox="7170.74 701 162.171 20"><defs><style>.a{fill:#0574eb;}</style></defs><g transform="translate(-83 1222)"><path class="a" d="M249.249,0h.346a9.174,9.174,0,0,1,3.226.622,6.153,6.153,0,0,1,2.364,1.595h9.054c-.372,1.486-.741,2.973-1.118,4.458-1.481-.006-2.961,0-4.442,0-.375.983-.735,1.971-1.114,2.952,1.183-.636,2.369-1.263,3.553-1.9.667-.347,1.321-.721,2-1.051-1.213,1.756-2.435,3.5-3.65,5.258q-2.806,4.031-5.607,8.065c.486-1.854.988-3.7,1.479-5.556-1.173.6-2.354,1.175-3.529,1.768a2.348,2.348,0,0,1-.638.177,9.943,9.943,0,0,1-4.133-.132,6.986,6.986,0,0,1-3.182-1.687,3.54,3.54,0,0,1-1.114-2.3q0-3.971,0-7.943a3.211,3.211,0,0,1,.635-1.786,5.811,5.811,0,0,1,2.583-1.9A9.151,9.151,0,0,1,249.249,0m-1.922.892a7.5,7.5,0,0,0-2.392,1.047,4.7,4.7,0,0,0-.976.933,3.308,3.308,0,0,0-.494.994,2.8,2.8,0,0,0,0,1.156,3.3,3.3,0,0,0,.5,1,4.591,4.591,0,0,0,1.289,1.13,7.78,7.78,0,0,0,2.051.838,9.875,9.875,0,0,0,3.385.142,6.677,6.677,0,0,0,1.465-.337,6.425,6.425,0,0,0,2.073-1.123q-2.225,0-4.451,0c.368-1.485.745-2.969,1.111-4.454q1.672,0,3.344,0A6.742,6.742,0,0,0,251.826.985,9.542,9.542,0,0,0,248.654.7a9.981,9.981,0,0,0-1.326.2m3.3,5.1c1.48,0,2.96,0,4.44,0-.289,1.224-.639,2.432-.958,3.648-.489,1.8-.965,3.6-1.457,5.394.455-.232.913-.459,1.37-.687.778-.4,1.574-.759,2.348-1.166-.086.331-.182.658-.27.988-.226.788-.414,1.586-.649,2.37q2.774-4,5.553-7.993c-.894.485-1.793.957-2.69,1.437-.645.351-1.307.667-1.958,1.008.6-1.676,1.242-3.332,1.855-5h4.409q.375-1.552.775-3.1-6,0-11.995,0c-.255,1.033-.516,2.065-.773,3.1m-7.223.4a5.529,5.529,0,0,0,.061,1.131,3.19,3.19,0,0,0,.823,1.375,5.4,5.4,0,0,0,1.811,1.191,7.675,7.675,0,0,0,2.872.62,9.852,9.852,0,0,0,1.849-.089,7.382,7.382,0,0,0,2.435-.789c.061-.036.142-.063.155-.143.183-.665.351-1.335.545-2a8.226,8.226,0,0,1-3.133,1.1,9.8,9.8,0,0,1-4.271-.329A6.234,6.234,0,0,1,243.4,6.4m0,2.5a6.659,6.659,0,0,0,.057,1.2,3.282,3.282,0,0,0,.939,1.51,5.886,5.886,0,0,0,1.973,1.188,8.219,8.219,0,0,0,3.118.52,8.149,8.149,0,0,0,3.094-.572c.2-.706.382-1.417.577-2.125a8.83,8.83,0,0,1-2.882.742,4.661,4.661,0,0,1-.66-.01v.024c.109,0,.217,0,.326.011-.36.012-.72.014-1.079,0a3.127,3.127,0,0,0,.33-.02c-.206-.035-.413.027-.62,0a9.612,9.612,0,0,1-2.122-.428A6.142,6.142,0,0,1,243.4,8.9m0,2.609a6.076,6.076,0,0,0,.052,1.13,3.084,3.084,0,0,0,.191.506,3.862,3.862,0,0,0,1.267,1.443,7.425,7.425,0,0,0,2.644,1.112,9.7,9.7,0,0,0,4.269-.141c.186-.674.362-1.351.549-2.024a9,9,0,0,1-2.307.443,9.578,9.578,0,0,1-3.641-.443A6.191,6.191,0,0,1,243.4,11.509Z" transform="translate(7011 -521)"/><path class="a" d="M3.945,530.782a5,5,0,0,1,7.243-.01q-.629.7-1.244,1.419a3.448,3.448,0,0,0-1.924-1.021,2.663,2.663,0,0,0-2.5.953,3.274,3.274,0,0,0-.142,3.694,2.579,2.579,0,0,0,2.33,1.168A3.487,3.487,0,0,0,10,535.9c.448.472.881.957,1.324,1.435a4.774,4.774,0,0,1-2.7,1.484,5.077,5.077,0,0,1-4.254-1.034A5,5,0,0,1,3.945,530.782Z" transform="translate(7275.709 -1045.089)"/><path class="a" d="M89.168,529.307a5.168,5.168,0,0,1,4.221,1.124,4.884,4.884,0,0,1,1.16,5.755,4.81,4.81,0,0,1-3.648,2.662,5.172,5.172,0,0,1-3.906-.916,4.853,4.853,0,0,1,2.174-8.625m.143,1.948a2.659,2.659,0,0,0-1.4.916,3.128,3.128,0,0,0,.372,4.186,2.811,2.811,0,0,0,3.567.012,3.106,3.106,0,0,0,.159-4.407A2.779,2.779,0,0,0,89.312,531.255Z" transform="translate(7204.676 -1045.1)"/><path class="a" d="M609.374,530.779a5.322,5.322,0,0,1,7.344-.309c-.437.512-.868,1.028-1.288,1.553a3.842,3.842,0,0,0-2.171-.938,2.617,2.617,0,0,0-2.338,1.077,3.249,3.249,0,0,0-.319,3.167,2.654,2.654,0,0,0,2.506,1.614,3.44,3.44,0,0,0,1.9-.5q-.006-.677,0-1.35c-.672.007-1.343,0-2.015.006,0-.6,0-1.2,0-1.8,1.352,0,2.7,0,4.054,0q-.006,2.034,0,4.066a6.1,6.1,0,0,1-4.63,1.44,4.7,4.7,0,0,1-2.85-1.291A5,5,0,0,1,609.374,530.779Z" transform="translate(6753.77 -1045.025)"/><path class="a" d="M777.328,530.2c.628-.065,1.262-.011,1.894-.032,1.331,3.131,2.7,6.246,3.988,9.395-.71,0-1.421,0-2.131,0-.313-.706-.592-1.425-.89-2.137q-1.945,0-3.89,0c-.3.71-.571,1.432-.888,2.134-.7-.005-1.394,0-2.091,0,1.326-3.124,2.641-6.258,4.008-9.363m-.309,5.421q1.221-.008,2.443,0c-.4-.96-.781-1.928-1.19-2.884C777.768,533.658,777.461,534.673,777.019,535.623Z" transform="translate(6611.398 -1045.904)"/><path class="a" d="M947.966,530.52q1.037,0,2.073,0c0,3.116,0,6.232,0,9.348-.688,0-1.377,0-2.063,0-.011-1.263,0-2.527,0-3.79q-1.879,0-3.756,0c0,1.262,0,2.524,0,3.786h-2.073c-.014-3.115,0-6.229-.007-9.345q1.041,0,2.083,0c0,1.222,0,2.446,0,3.669,1.25-.051,2.5.01,3.75,0C947.969,532.968,947.966,531.743,947.966,530.52Z" transform="translate(6465.873 -1046.207)"/><path class="a" d="M182.441,539.869c-.011-3.116,0-6.233,0-9.349q1.037,0,2.072,0,0,4.674,0,9.349Q183.475,539.865,182.441,539.869Z" transform="translate(7120.781 -1046.207)"/><path class="a" d="M225.651,530.532c.648-.007,1.3-.011,1.945.005,1.414,1.9,2.873,3.775,4.317,5.657.014-1.888,0-3.778.005-5.666.691,0,1.382,0,2.073,0q0,3.548,0,7.094a19.192,19.192,0,0,1-.058,2.254c-.559-.01-1.117-.011-1.676,0-1.526-1.948-3.015-3.924-4.528-5.882-.022,1.96.014,3.92-.019,5.879a14.8,14.8,0,0,1-2.069-.069C225.666,536.716,225.644,533.623,225.651,530.532Z" transform="translate(7083.535 -1046.212)"/><path class="a" d="M308.51,532.439q0-.968,0-1.935c2.579,0,5.159.005,7.738,0,.008.647.007,1.294.006,1.941-.938,0-1.874,0-2.811-.007q0,3.708,0,7.415c-.688,0-1.375,0-2.062.007-.032-2.472-.008-4.943-.012-7.415Z" transform="translate(7012.096 -1046.19)"/><path class="a" d="M387.487,530.52q3.523,0,7.048,0c0,.612,0,1.226.005,1.84-1.665.005-3.328-.006-4.992.005q0,.925,0,1.851c1.457-.011,2.915,0,4.371-.006.006.615.007,1.23,0,1.847-1.457-.005-2.915,0-4.371-.005,0,.65,0,1.3,0,1.949,1.683.006,3.368-.051,5.048.026a8.538,8.538,0,0,1-.046,1.848c-2.353-.018-4.708-.005-7.061-.007C387.482,536.753,387.49,533.636,387.487,530.52Z" transform="translate(6944.012 -1046.207)"/><path class="a" d="M463.7,530.511c.687,0,1.374,0,2.062,0,.008,2.48,0,4.959,0,7.439,1.549,0,3.1-.007,4.648,0-.006.617,0,1.233,0,1.85-2.237.01-4.475,0-6.712.005Q463.7,535.158,463.7,530.511Z" transform="translate(6878.312 -1046.198)"/><path class="a" d="M535,530.53q3.511,0,7.022,0,0,.921,0,1.841c-1.655-.006-3.31,0-4.966,0q0,.925,0,1.852c1.457,0,2.914,0,4.371,0q0,.923,0,1.848c-1.457-.007-2.914,0-4.371,0v1.95c1.684-.023,3.37-.006,5.054-.011,0,.606,0,1.212,0,1.818-2.371,0-4.742,0-7.113,0Z" transform="translate(6816.846 -1046.215)"/><path class="a" d="M697.89,530.526c1.337-.008,2.674,0,4.012-.005a4.48,4.48,0,0,1,2.622.658,3.121,3.121,0,0,1-.11,4.957,7.492,7.492,0,0,1-.694.377c.709,1.139,1.553,2.19,2.222,3.354-.793,0-1.586,0-2.379,0-.668-1.01-1.353-2.008-2.032-3.01-.524,0-1.046,0-1.568,0,0,1,.007,2.007-.006,3.01q-1.018,0-2.033,0c-.044-3.112.025-6.228-.034-9.342m2.074,1.894c0,.866,0,1.731,0,2.6.694-.007,1.389.008,2.083,0a1.84,1.84,0,0,0,1.074-.308,1.312,1.312,0,0,0-.022-2.026,1.935,1.935,0,0,0-1.05-.255C701.353,532.414,700.66,532.432,699.964,532.419Z" transform="translate(6676.424 -1046.207)"/><path class="a" d="M866.429,539.862c-.011-3.117-.005-6.234,0-9.352,1.265.011,2.531,0,3.8.005a3.864,3.864,0,0,1,2.691.96,3.412,3.412,0,0,1,.691,3.5,3.336,3.336,0,0,1-2.815,2.01c-.763.059-1.528.022-2.291.028,0,.948,0,1.9-.006,2.844-.688,0-1.377,0-2.065,0m2.065-7.448c.01.928.006,1.855,0,2.784a7.884,7.884,0,0,0,2.459-.175,1.391,1.391,0,0,0,.2-2.357C870.34,532.229,869.374,532.484,868.494,532.413Z" transform="translate(6531.138 -1046.198)"/></g></svg>