<svg xmlns="http://www.w3.org/2000/svg" viewBox="2048 3105 115 110"><defs><style>.a,.c{fill:#0574eb;}.b,.c{opacity:0.5;}</style></defs><path class="a" d="M16,3A13,13,0,1,0,29,16,13.015,13.015,0,0,0,16,3Zm0,2A11,11,0,1,1,5,16,10.985,10.985,0,0,1,16,5Zm6.281,6.281L15,18.563l-4.281-4.281L9.281,15.719l5,5,.719.688.719-.687,8-8Z" transform="translate(2120 3171)"/><g transform="translate(-0.461 -0.241)"><g class="b" transform="translate(2048.461 3105.241)"><path class="a" d="M334.017,181.77a5.686,5.686,0,0,1,7.5-.23c1.862,1.658,3.683,3.362,5.546,5.015,7.591.014,15.181,0,22.772.009a1.727,1.727,0,0,1,1.912,1.791c.018,1.387-.014,2.779,0,4.166,1.721.266,3.793-.579,5.267.56.046.211.146.634.192.85.046,6.678,0,13.361.023,20.039q3,2.749,6.071,5.429a1.87,1.87,0,0,1,.886,1.607q0,9.907,0,19.818c-.073,1.144-2.2,1.1-2.141-.073-.087-6.081.027-12.167-.055-18.247q-15.3,9.776-30.618,19.506c-.963.744-2.328-.6-1.6-1.6a23.439,23.439,0,0,1,3.172-2.117c4.117-2.678,8.275-5.286,12.411-7.932,1.378-.891,2.761-1.773,4.167-2.623.137-12.956.023-25.918.055-38.874q-30.8-.007-61.61,0c.014,12.984-.046,25.977.027,38.961,1.588.946,3.127,1.97,4.683,2.967,3.893,2.485,7.8,4.947,11.662,7.468,1.118.739,2.328,1.35,3.373,2.2.917,1.033-.616,2.636-1.643,1.63q-15.282-9.721-30.545-19.488c-.018,11.712.041,23.428-.027,35.14-.269,1.323-2.456.854-2.241-.473-.037-11.781,0-23.566-.023-35.347.064-.592-.151-1.341.365-1.782,2.141-2.273,4.7-4.23,6.7-6.577.059-6.554,0-13.117.027-19.676a1.229,1.229,0,0,1,1.063-1.318c1.433-.1,2.876.014,4.313-.073.009-1.52-.1-3.045.05-4.556a1.887,1.887,0,0,1,1.935-1.373c7.13-.046,14.264.064,21.393-.055,1.593-1.635,3.282-3.178,4.943-4.74m-1.474,4.781c3.752.018,7.508,0,11.26.009-1.99-1.442-3.537-4.4-6.349-3.964-2.054.661-3.245,2.682-4.911,3.954M302.6,194.836c-.023,9.81.014,19.625-.018,29.436a34.172,34.172,0,0,0,3.086,2.007q.021-15.721,0-31.447-1.534-.014-3.067,0m69.137.009c.023,10.467,0,20.934.014,31.4,1.082-.634,2.136-1.318,3.181-2.007q.027-14.7,0-29.4c-1.068-.018-2.136-.018-3.2.009m-74.331,24.9h2.9c0-.928.014-1.86.023-2.788l-2.921,2.788m79.831-2.549c-.018.854.037,2.567.037,2.567l2.561-.018-2.6-2.549m-78.028,4.758" transform="translate(-293.138 -180.241)"/><path class="a" d="M511.015,296.956c.972-.909,2.579.569,1.675,1.589a44.23,44.23,0,0,1-3.674,3.794,1.211,1.211,0,0,1-1.588-1.4A47.584,47.584,0,0,1,511.015,296.956Z" transform="translate(-409.549 -243.197)"/><path class="a" d="M294.417,312.677a7.985,7.985,0,0,1,8.23-.032c5.724,3.256,11.493,6.435,17.217,9.7a1.172,1.172,0,0,1-.8,2.154c-6.08-3.284-12.054-6.775-18.111-10.109a5.219,5.219,0,0,0-4.811.018c-12.109,6.632-38.055,20.976-38.055,20.976,19.809.018,39.826.014,59.636.009.707.1,1.579-.253,2.164.3a1.162,1.162,0,0,1-.863,1.98c-32.991.028-32.81.054-65.8.012a2.529,2.529,0,0,1-.1-2.3S280.729,320.278,294.417,312.677Z" transform="translate(-252.881 -251.224)"/><path class="a" d="M529.009,324.406c1.114-.253,2.392-1.139,3.35-.055-.041.6.059,1.543-.748,1.676-1.625.5-3.245,1.047-4.907,1.424a1.177,1.177,0,0,1-.4-2.218C527.183,324.9,528.11,324.691,529.009,324.406Z" transform="translate(-419.478 -257.878)"/><path class="a" d="M531.016,357.488a1.18,1.18,0,0,1,.041-2.278,51.35,51.35,0,0,1,5.108,1.167c.986.276.94,1.562.292,2.177A24.6,24.6,0,0,1,531.016,357.488Z" transform="translate(-421.927 -274.849)"/><path class="a" d="M520.455,382.24a1.373,1.373,0,0,1,1.451.51c1.059,1.084,2.264,2.03,3.245,3.192.739.942-.593,2.347-1.543,1.612-1.173-.974-2.2-2.113-3.35-3.119A1.247,1.247,0,0,1,520.455,382.24Z" transform="translate(-416.237 -289.432)"/><path class="a" d="M438.191,394.74a1.161,1.161,0,0,1,1.853,1.291c-1.009,1.35-2.3,2.448-3.382,3.734-.5.606-1.908.423-1.954-.473-.219-.7.3-1.217.735-1.663C436.351,396.659,437.255,395.686,438.191,394.74Z" transform="translate(-370.012 -296.048)"/><path class="a" d="M497.5,400.88c.411-.716,1.862-.643,2.013.257a32.793,32.793,0,0,1,1.369,5.061c.027,1.309-2.232,1.217-2.278-.041C498.312,404.4,497.1,402.648,497.5,400.88Z" transform="translate(-404.13 -299.281)"/><path class="a" d="M467.67,405.143c.561-.482,1.981-.253,1.858.712a31.889,31.889,0,0,1-1.1,5.029c-.21,1.355-2.533.942-2.209-.418C466.684,408.7,466.848,406.778,467.67,405.143Z" transform="translate(-387.154 -301.716)"/></g><rect class="c" width="50.633" height="6" rx="2" transform="translate(2068.852 3121)"/><rect class="c" width="50.633" height="17" rx="2" transform="translate(2068.852 3131)"/></g></svg>