<svg xmlns="http://www.w3.org/2000/svg" viewBox="0 0 459.38 174.45"><defs><style>.cls-1{fill:#0050db;}.cls-2{fill:#fff;}.cls-3{fill:#3d4f6c;}</style></defs><title>Ресурс 2</title><g id="Слой_2" data-name="Слой 2"><g id="Слой_1-2" data-name="Слой 1"><path class="cls-1" d="M144.22,32.8,94.26,4A29.51,29.51,0,0,0,64.73,4l-50,28.84A29.55,29.55,0,0,0,0,58.37v57.7a29.53,29.53,0,0,0,14.76,25.57l50,28.85a29.55,29.55,0,0,0,29.53,0l50-28.85A29.52,29.52,0,0,0,159,116.07V58.37A29.54,29.54,0,0,0,144.22,32.8Z"/><path class="cls-2" d="M106.63,79.18a11.2,11.2,0,0,1-20.32-6.51V45.1H72.68v59.36A11.21,11.21,0,0,1,52.35,111l-11.09,7.91a24.41,24.41,0,0,0,20,10.46,25.36,25.36,0,0,0,7.8-1.24,24.46,24.46,0,0,0,17.26-23.65V94.84a26.51,26.51,0,0,0,3.63,1.48,25.58,25.58,0,0,0,7.79,1.23,24.4,24.4,0,0,0,20-10.45Z"/><path class="cls-3" d="M415,104.69a20.34,20.34,0,0,1,6.75,1.14l-2.36,8.08a8.11,8.11,0,0,0-3.9-1c-4,0-6.43,2.41-6.43,7.16V138.3h-9.63V120.63C399.44,109.94,405.5,104.69,415,104.69ZM296.65,61.81c0-4.76,2.41-7.17,6.42-7.17a8.11,8.11,0,0,1,3.9,1l2.36-8.07a20.09,20.09,0,0,0-6.75-1.14c-9.51,0-15.57,5.25-15.57,15.93V80h9.64ZM234.84,35.65a5.38,5.38,0,1,0,5.61,5.19C240.45,37.87,238.2,35.65,234.84,35.65ZM230,80h9.64v-29H230ZM362.46,35.65h-9.63V80h9.63ZM426,138.3h9.63V93.94H426ZM225.9,122.44,206.05,96.12a5.47,5.47,0,0,0-4.38-2.18h0a5.49,5.49,0,0,0-5.49,5.49V138.3H206V109.81l19.91,26.31a5.48,5.48,0,0,0,9.86-3.3V93.94H225.9Zm50.86-.63c0,.74-.12,1.79-.18,2.59H251.44c.92,4.14,4.45,6.67,9.51,6.67a11.24,11.24,0,0,0,8.34-3.21l5.13,5.56c-3.09,3.52-7.72,5.38-13.71,5.38-11.49,0-19-7.23-19-17.11s7.6-17.11,17.73-17.11C269.23,104.58,276.76,111.13,276.76,121.81Zm-9.08-3a8.29,8.29,0,0,0-16.36,0Zm73.88,8.76L336,109a5.51,5.51,0,0,0-10.54-.06l-5.79,18.61-5.54-22.48H303.88l8.2,28.17a7,7,0,0,0,13.45.16l5-15.73,4.81,15.68a7,7,0,0,0,13.4-.08l8.27-28.2h-9.68Zm-79.32-47a28.58,28.58,0,0,1-13.85-3.4V35.65H258V47.73a14.48,14.48,0,0,1,6.55-1.42c9.32,0,17,6.8,17,17.24C281.6,73.63,274.6,80.54,262.24,80.53ZM258,72.18a29.1,29.1,0,0,0,4.35.67c5.5.35,9.46-3.56,9.46-9.3,0-6.27-4.11-9.33-8.93-9.33A8.36,8.36,0,0,0,258,55.73Zm190.22,52.07a4.61,4.61,0,0,1-.25-5.4L457.08,105H446.74L440.3,115.1a11.5,11.5,0,0,0,.31,12.87l7.29,10.28h11.48ZM222,64.84V35.65H212V65.4c0,4.75-2.1,7.16-6.11,7.16a8.71,8.71,0,0,1-6-2.53l-4,7.71a18.74,18.74,0,0,0,10.54,3C216.59,80.78,222,75.53,222,64.84Zm89.41-1.42c0-9.94,7.6-17.11,17.73-17.11,9.75,0,17.29,6.55,17.29,17.23,0,.75-.12,1.8-.19,2.6H321.08c.92,4.14,4.44,6.67,9.51,6.67a11.28,11.28,0,0,0,8.34-3.21l5.12,5.56c-3.09,3.52-7.72,5.37-13.71,5.37C318.85,80.53,311.38,73.3,311.38,63.42Zm9.57-2.9h16.37a8.3,8.3,0,0,0-16.37,0Zm73.69,61.17c0,10-7.66,17.11-18.22,17.11v0l0,0c-10.56,0-18.22-7.11-18.22-17.11s7.66-17.11,18.22-17.11h0C387,104.58,394.64,111.68,394.64,121.69Zm-9.76,0c0-5.75-3.64-9.21-8.46-9.21h0c-4.81,0-8.46,3.46-8.46,9.21s3.65,9.2,8.46,9.2h0C381.24,130.89,384.88,127.43,384.88,121.69Zm-87.23,8.89c-4,0-6.42-2.41-6.42-7.16V112.48h7.92L297,105.07h-5.76V93.94H281.6v28.92c0,10.69,6.06,15.94,15.56,15.94a20.34,20.34,0,0,0,6.75-1.14l-2.35-8.08A8.18,8.18,0,0,1,297.65,130.58Z"/></g></g></svg>