<svg xmlns="http://www.w3.org/2000/svg" viewBox="3313 6539 32 26"><defs><style>.a{fill:#fff;}</style></defs><g transform="translate(3313 6508.014)"><path class="a" d="M3.509,33.727A13.238,13.238,0,0,1,19.3,33.47a9.432,9.432,0,0,1,3.7,5.681,11.993,11.993,0,0,0-7.041,1.8,9.087,9.087,0,0,0-3.627,4.288,7.552,7.552,0,0,0-.127,5.1,13.707,13.707,0,0,1-4.345-.5,1.2,1.2,0,0,0-.963.085c-.874.49-1.73,1.011-2.6,1.5a.378.378,0,0,1-.576-.4c.178-.777.431-1.537.6-2.316a.867.867,0,0,0-.478-.846A9.2,9.2,0,0,1,0,40.957v-.585a9.1,9.1,0,0,1,3.509-6.645m3.868,2.332a1.549,1.549,0,1,0,1.868,1.368,1.559,1.559,0,0,0-1.868-1.368m7.709,0a1.549,1.549,0,1,0,1.871,1.374A1.558,1.558,0,0,0,15.086,36.06Z"/><path class="a" d="M136.017,125.074a11.147,11.147,0,0,1,7.584-1.364,9.967,9.967,0,0,1,5.9,3.214,7.315,7.315,0,0,1,1.8,4.412v.487a7.617,7.617,0,0,1-3.1,5.71c-.229.173-.519.368-.5.694.114.688.366,1.344.505,2.026a.313.313,0,0,1-.486.319c-.724-.4-1.428-.836-2.151-1.239a1.033,1.033,0,0,0-.85-.067,11.163,11.163,0,0,1-8.868-1.214,8.2,8.2,0,0,1-3.483-4.3,6.867,6.867,0,0,1,.176-4.755,8.377,8.377,0,0,1,3.476-3.925m2.03,2.732a1.29,1.29,0,1,0,1.64.892,1.3,1.3,0,0,0-1.64-.892m6.452-.009a1.291,1.291,0,1,0,1.607.875A1.3,1.3,0,0,0,144.5,127.8Z" transform="translate(-119.298 -83.647)"/></g></svg>