<svg xmlns="http://www.w3.org/2000/svg" viewBox="2891 25.818 48 48.566"><defs><style>.a{fill:#fff;}.b{fill:#b1ecff;}.c,.d,.e{fill:none;}.c,.d{stroke:#005be6;stroke-linejoin:round;stroke-miterlimit:10;stroke-width:2px;}.d{stroke-linecap:round;}</style></defs><g transform="translate(2891 26)"><g transform="translate(3 1)"><path class="a" d="M16.5.5,6.5,5.7V17.3l6,3.2v8h8v-8l6-3.2V5.7Z" transform="translate(3.5 -0.5)"/><path class="a" d="M41.5,29V24l-20-6-20,6v5Z" transform="translate(-1.5 17)"/><path class="b" d="M11.5,28.5h4v-8l6-3.2V5.7L11.5.5Z" transform="translate(8.5 -0.5)"/><path class="b" d="M13.1,29h.2l3-4.6L13.1,18,9.9,24.2Z" transform="translate(6.9 17)"/><line class="c" x2="8" transform="translate(16 24)"/><line class="d" y2="2" transform="translate(20 28)"/><line class="d" x2="4" transform="translate(36 10)"/><line class="d" x2="2.8" y2="2" transform="translate(34.2 17)"/><line class="d" y1="1.8" x2="2.8" transform="translate(34.2 0.2)"/><line class="d" x1="4" transform="translate(0 10)"/><line class="d" x1="2.8" y2="2" transform="translate(3 17)"/><line class="d" x1="2.8" y1="1.8" transform="translate(3.2 0.2)"/><path class="d" d="M7,19.7,5,24.3l6,3" transform="translate(2 18.7)"/><path class="d" d="M19.1,19.7l2,4.6-6,3" transform="translate(12.1 18.7)"/><path class="d" d="M11.5,16V8l3-3" transform="translate(8.5 4)"/><line class="d" x1="3" y1="3" transform="translate(17 9)"/><path class="d" d="M41.5,29V24l-20-6-20,6v5" transform="translate(-1.5 17)"/><rect class="c" width="8" height="8" transform="translate(16 20)"/><path class="d" d="M12.5,20.5l-6-3.2V5.7L16.5.5l10,5.2V17.3l-6,3.2" transform="translate(3.5 -0.5)"/><line class="d" x1="6" y1="9.2" transform="translate(14 36.8)"/><line class="d" y1="9.2" x2="6" transform="translate(20.2 36.8)"/><path class="c" d="M9.9,24.2,13.1,18l3.2,6.4" transform="translate(6.9 17)"/></g><rect class="e" width="48" height="48"/></g></svg>