<svg xmlns="http://www.w3.org/2000/svg" viewBox="2891 234 48 48"><defs><style>.a{fill:#fff;}.b{fill:#b1ecff;}.c,.d{fill:none;}.c{stroke:#005be6;stroke-linecap:round;stroke-linejoin:round;stroke-width:2px;}</style></defs><g transform="translate(2891 234)"><g transform="translate(1 5)"><path class="a" d="M5.5,34.5l11-6h14l11-6-1-3-10,2-13-1,4-5-1-3-10,6-5,6-5,2Z" transform="translate(-0.5 7.5)"/><rect class="a" width="36" height="20" transform="translate(6)"/><path class="b" d="M25,9.5v-7H18Z" transform="translate(17 -2.5)"/><path class="b" d="M18,16h7V9Z" transform="translate(17 4)"/><path class="b" d="M3.5,9v7h7Z" transform="translate(2.5 4)"/><path class="b" d="M3.5,9.5v-7h7Z" transform="translate(2.5 -2.5)"/><g transform="translate(6)"><line class="c" y1="7" x2="7"/><line class="c" x2="7" y2="7" transform="translate(0 13)"/><path class="c" d="M10.5,22.5h-7V2.5h36v20h-16" transform="translate(-3.5 -2.5)"/><line class="c" x1="7" y1="7" transform="translate(29)"/><line class="c" x1="7" y2="7" transform="translate(29 13)"/></g><g transform="translate(21 4)"><path class="c" d="M16,5.5H12l-1,2,1,2h4l1,2-1,2H12" transform="translate(-11 -3.5)"/><line class="c" y1="2" transform="translate(3)"/><line class="c" y1="2" transform="translate(3 10)"/></g><path class="c" d="M5.5,34.5l11-6h14l11-6-1-3-10,2-13-1,4-5-1-3-10,6-5,6-5,2" transform="translate(-0.5 7.5)"/></g><rect class="d" width="48" height="48"/></g></svg>