<svg xmlns="http://www.w3.org/2000/svg" viewBox="2328 -156 48 48"><defs><style>.a{fill:#fff;}.b{fill:#b1ecff;}.c,.d{fill:none;}.c{stroke:#005be6;stroke-linecap:round;stroke-linejoin:round;stroke-miterlimit:10;stroke-width:2px;}</style></defs><g transform="translate(2328 -156)"><g transform="translate(1 5)"><path class="a" d="M26.5,25.1l-10,5.4-10-5.4v-13l10-5.6,10,5.6Z" transform="translate(5.5 1.5)"/><g transform="translate(22 8)"><path class="b" d="M11.5,6.5l10,5.6v13l-10,5.4Z" transform="translate(-11.5 -6.5)"/></g><path class="c" d="M26.5,25.1l-10,5.4-10-5.4v-13l10-5.6,10,5.6Z" transform="translate(5.5 1.5)"/><line class="c" y2="19.6" transform="translate(26 10.2)"/><line class="c" y2="19.6" transform="translate(18 10.2)"/><line class="c" x2="20" transform="translate(12 16)"/><line class="c" x2="20" transform="translate(12 24)"/><path class="c" d="M8,6.5l7-4,18,10v16" transform="translate(7 -2.5)"/><path class="c" d="M26.5,13.5l-4,4-4-4" transform="translate(17.5 8.5)"/><path class="c" d="M27.5,31.5l-7,4-18-10V9.5" transform="translate(1.5 4.5)"/><path class="c" d="M.5,13.5l4-4,4,4" transform="translate(-0.5 4.5)"/></g><rect class="d" width="48" height="48"/></g></svg>