<svg xmlns="http://www.w3.org/2000/svg" viewBox="2328 26 48 48"><defs><style>.a{fill:#fff;}.b{fill:#b1ecff;}.c,.d{fill:none;}.c{stroke:#005be6;stroke-linecap:round;stroke-linejoin:round;stroke-miterlimit:10;stroke-width:2px;}</style></defs><g transform="translate(2328 26)"><g transform="translate(1 1)"><path class="a" d="M40.5,33.5l-3,2-3-2-4,2v-11l-2-1.4V8.5l-14-8-14,8v16l14,8,10-5.8v7.8h-3l-3,7,3,5h23v-10Z" transform="translate(-0.5 -0.5)"/><path class="b" d="M14.5,17l11-6,1.4,1.4L24.5,14v2.2L14.5,22,.5,14l3-3Z" transform="translate(-0.5 10)"/><g transform="translate(9 7)"><path class="c" d="M14,5.5H7l-2,3,2,3h6l2,3-2,3H6" transform="translate(-5 -2.5)"/><line class="c" y1="3" transform="translate(5)"/><line class="c" y1="3" transform="translate(5 15)"/></g><path class="c" d="M15.5,29.5v-16l3-2,3,2v11l4-2,3,2,3-2,4,3v10h-23l-3-5,3-7h3" transform="translate(8.5 10.5)"/><path class="c" d="M28.5,19.5V8.5l-14-8-14,8v16l14,8,6-3.4" transform="translate(-0.5 -0.5)"/></g><rect class="d" width="48" height="48"/></g></svg>