<svg xmlns="http://www.w3.org/2000/svg" viewBox="106 5994 24 24"><defs><style>.a{fill:none;}.b{fill:#3c3c58;}</style></defs><g transform="translate(106 5994)"><rect class="a" width="24" height="24"/><path class="b" d="M20,22H4a2,2,0,0,1-2-2V11a1,1,0,0,1,1.64-.768L9.36,15h5.276l5.722-4.769A1,1,0,0,1,22,11v9A2,2,0,0,1,20,22ZM4,13.135V20H20V13.135l-4.36,3.634A1.006,1.006,0,0,1,15,17H9a1,1,0,0,1-.64-.231Z"/><path class="b" d="M20,9H18V4H6V9H4V2H20Z"/><rect class="b" width="8" height="2" transform="translate(7.998 6)"/><rect class="b" width="6" height="2" transform="translate(7.998 9)"/></g></svg>