<svg xmlns="http://www.w3.org/2000/svg" viewBox="-361 5779 24 24"><defs><style>.a{fill:none;}.b{fill:#fff;}</style></defs><g transform="translate(-361 5779)"><rect class="a" width="24" height="24"/><path class="b" d="M23,3H4A1,1,0,0,0,3,4V5H22V15H14v2h8v1H14a1,1,0,0,0-1,1v3H10v2h8V22H15V20h8a1,1,0,0,0,1-1V4A1,1,0,0,0,23,3Z"/><path class="b" d="M9,18v2h1a2,2,0,0,0,2-2V8a2,2,0,0,0-2-2H3A2,2,0,0,0,1,8v3h9v4H9v2h1v1ZM3,9V8h7V9Z"/><path class="b" d="M6,12H2a2,2,0,0,0-2,2v8a2,2,0,0,0,2,2H6a2,2,0,0,0,2-2V14A2,2,0,0,0,6,12Zm0,2v5H2V14ZM2,22V21H6v1Z"/></g></svg>