<svg xmlns="http://www.w3.org/2000/svg" viewBox="143 5994 24 24"><defs><style>.a{fill:#fff;opacity:0;}.b{fill:#3c3c58;}</style></defs><g transform="translate(-187)"><rect class="a" width="24" height="24" transform="translate(330 5994)"/><g transform="translate(329.946 5994)"><path class="b" d="M13.332,2a1.749,1.749,0,0,0-.674.1A1.642,1.642,0,0,0,11.62,4.194l.7,2.045L8.373,7.562l-.65-1.974A1.661,1.661,0,0,0,4.573,6.646L5.224,8.6l-2.049.7a1.673,1.673,0,0,0-1.034,2.119,1.643,1.643,0,0,0,2.092,1.034l2.045-.674L7.6,15.694l-1.974.65a1.662,1.662,0,0,0,1.062,3.149l1.951-.646.7,2.045a1.669,1.669,0,0,0,2.115,1.034,1.645,1.645,0,0,0,1.038-2.092l-.678-2.045,3.925-1.324.65,1.974a1.661,1.661,0,0,0,3.149-1.058l-.65-1.951,2.045-.7a1.671,1.671,0,0,0,1.034-2.119,1.643,1.643,0,0,0-2.092-1.034l-2.045.674L16.5,8.334l1.974-.65a1.64,1.64,0,0,0,1.034-2.092A1.658,1.658,0,0,0,17.421,4.53l-1.951.65-.7-2.045A1.66,1.66,0,0,0,13.332,2Zm.023,7.387,1.324,3.921-3.925,1.324L9.43,10.715Z" transform="translate(0 0)"/></g></g></svg>