<svg xmlns="http://www.w3.org/2000/svg" viewBox="9055.4 2868.241 234.001 126"><defs><style>.a,.c{fill:#0574eb;}.b{fill:#fff;}.c{opacity:0.22;}.d{fill:#b3e2fa;}</style></defs><g transform="translate(7071 -309)"><path class="a" d="M351.225,181.992a6.616,6.616,0,0,0-8.667-.263c-2.152,1.9-4.257,3.851-6.409,5.745-8.773.016-17.546-.005-26.318.011a1.988,1.988,0,0,0-2.21,2.052c-.021,1.589.016,3.183,0,4.772-1.989.305-4.384-.663-6.088.642-.053.242-.169.726-.222.973-.053,7.649-.005,15.3-.026,22.953q-3.466,3.149-7.016,6.218a2.138,2.138,0,0,0-1.023,1.841q0,11.348,0,22.7c.084,1.31,2.537,1.263,2.474-.084.1-6.965-.032-13.936.063-20.9q17.677,11.2,35.386,22.343a1.335,1.335,0,0,0,1.852-1.836,27.1,27.1,0,0,0-3.666-2.425c-4.758-3.067-9.564-6.055-14.343-9.086-1.593-1.021-3.192-2.031-4.816-3-.158-14.841-.026-29.687-.063-44.528q35.6-.008,71.206,0c-.016,14.873.053,29.756-.032,44.628-1.836,1.084-3.614,2.257-5.412,3.4-4.5,2.846-9.01,5.666-13.478,8.554-1.292.847-2.69,1.547-3.9,2.52-1.06,1.184.712,3.02,1.9,1.868q17.662-11.135,35.3-22.322c.021,13.415-.047,26.836.032,40.251.311,1.515,2.838.979,2.59-.542.042-13.494-.005-26.994.026-40.488-.074-.679.174-1.536-.422-2.041-2.474-2.6-5.428-4.845-7.739-7.534-.069-7.507.005-15.025-.032-22.538a1.411,1.411,0,0,0-1.229-1.51c-1.656-.116-3.323.016-4.985-.084-.011-1.741.121-3.488-.058-5.219a2.179,2.179,0,0,0-2.237-1.573c-8.24-.053-16.485.074-24.725-.063-1.841-1.873-3.793-3.641-5.713-5.429m1.7,5.477c-4.336.021-8.678.005-13.014.011,2.3-1.652,4.088-5.035,7.338-4.54,2.374.758,3.751,3.072,5.676,4.53m34.606,9.491c.026,11.237-.016,22.48.021,33.717a39.54,39.54,0,0,1-3.566,2.3q-.024-18.008,0-36.022,1.773-.016,3.545.005m-79.9.011c-.026,11.99.005,23.979-.016,35.964-1.25-.726-2.469-1.51-3.677-2.3q-.032-16.84-.005-33.675c1.234-.021,2.469-.021,3.7.011m85.908,28.519h-3.35c-.005-1.063-.016-2.131-.026-3.193,1.161,1.026,2.305,2.073,3.376,3.193m-92.264-2.92a27.338,27.338,0,0,1-.042,2.941c-.986-.021-1.973-.011-2.959-.021.723-1.21,2.01-1.941,3-2.92m90.181,5.45c.3.663-.913,1.278-1.43.889-.5-.815.865-1.4,1.43-.889m-90.228.084q.562,1.065-.686.579Q299.9,227.665,301.226,228.1Z" transform="translate(1718.84 2997)"/><path class="b" d="M392.374,189.856c-1.925-1.457-3.3-3.772-5.676-4.53-3.25-.495-5.038,2.888-7.338,4.54C383.7,189.861,388.038,189.877,392.374,189.856Z" transform="translate(1679.395 2994.613)"/><path class="c" d="M396.093,211a6.66,6.66,0,0,0-2.543-.279q-27.426.039-54.857.005c-1.145.063-2.416-.21-3.45.426a5.835,5.835,0,0,0-.253,2.346c.069,6.85-.079,13.7.069,20.544-.058.794.939.931,1.519.894q29.3-.008,58.608-.005a1.268,1.268,0,0,0,1.519-1.426c.047-6.855-.005-13.71.021-20.565-.053-.673.127-1.594-.633-1.941m-9.1,4.414c3.06,1.252,3.107,6.1.095,7.428a4.149,4.149,0,1,1-.095-7.428m4.874,15.3c-4.484-.068-8.989.184-13.463-.126.158-1.641.5-3.441,1.883-4.514,1.957-1.62,4.658-.831,6.974-1,2.938-.121,4.964,2.915,4.605,5.645" transform="translate(1698.449 2982.557)"/><path class="c" d="M317.277,212.009q-1.773-.024-3.545-.005-.024,18.008,0,36.022a39.538,39.538,0,0,0,3.566-2.3C317.261,234.489,317.3,223.246,317.277,212.009Z" transform="translate(1789.098 2981.951)"/><path class="c" d="M468.935,212.017c-1.229-.032-2.464-.032-3.7-.011q-.008,16.832.005,33.675c1.208.789,2.427,1.573,3.677,2.3C468.941,236,468.909,224.007,468.935,212.017Z" transform="translate(1557.535 2981.953)"/><path class="a" d="M355,219.278a4.149,4.149,0,1,0,.095,7.428C358.107,225.376,358.059,220.531,355,219.278Z" transform="translate(1730.443 2978.69)"/><path class="a" d="M357.585,243.606c.359-2.73-1.667-5.766-4.605-5.645-2.316.174-5.017-.616-6.974,1-1.387,1.073-1.725,2.872-1.883,4.514C348.6,243.79,353.1,243.538,357.585,243.606Z" transform="translate(1732.733 2969.667)"/><path class="b" d="M305.756,263.373c-1.071-1.121-2.216-2.168-3.376-3.193.011,1.063.021,2.131.026,3.193Z" transform="translate(1806.622 2959.116)"/><path class="b" d="M480.246,260.7c-.992.979-2.279,1.71-3,2.92.987.011,1.973,0,2.959.021A27.346,27.346,0,0,0,480.246,260.7Z" transform="translate(1539.868 2958.87)"/><path class="c" d="M364.8,261.669a31.728,31.728,0,0,0-5.244-.184c-7.206-.005-14.407.011-21.608-.01a5.187,5.187,0,0,0-1.957.305c-.026,3.109-.09,6.224.016,9.333l.512.447q14.085.134,28.18,0C365.006,268.277,364.821,264.962,364.8,261.669Z" transform="translate(1729.795 2958.506)"/><path class="c" d="M425.79,262.815c.053-1.289-1.382-1.368-2.326-1.331-8.092.026-16.185-.021-24.277.021-.754-.063-1.709.405-1.646,1.284-.137,4.451-.026,8.907-.053,13.357,4.779,3.03,9.585,6.018,14.343,9.086,1.129-.694,2.474-.437,3.724-.468,2.97-.026,5.945.084,8.915-.042,1.308.058,1.424-1.489,1.372-2.441C425.8,275.789,425.906,269.3,425.79,262.815Z" transform="translate(1636.362 2958.501)"/><path class="d" d="M307.781,270.886c-.564-.516-1.931.074-1.43.889C306.868,272.164,308.076,271.549,307.781,270.886Z" transform="translate(1802.514 2954.134)"/><path class="d" d="M477.934,271.1q-1.329-.442-.686.579Q478.5,272.168,477.934,271.1Z" transform="translate(1542.133 2954.004)"/><path class="c" d="M364.66,286.724a6.679,6.679,0,0,0-2.015-.247q-12.407.032-24.815,0a5.7,5.7,0,0,0-1.947.289c0,3.1-.158,6.224.069,9.322.121.11.353.331.475.442,4.336.21,8.694.016,13.035.079a4.566,4.566,0,0,1,1.883.431c4.468-2.888,8.978-5.708,13.478-8.554C364.782,288.045,364.7,287.166,364.66,286.724Z" transform="translate(1729.909 2946.655)"/><path class="a" d="M509.636,297c-1.124-1.042-2.98.652-1.936,1.82a50.872,50.872,0,0,0,4.246,4.346,1.4,1.4,0,0,0,1.836-1.6A54.657,54.657,0,0,0,509.636,297Z" transform="translate(1490.406 2941.822)"/><path class="a" d="M248.782,312.845a9.3,9.3,0,0,0-9.511-.037c-6.615,3.73-13.283,7.371-19.9,11.106a1.342,1.342,0,0,0,.928,2.467c7.027-3.762,13.932-7.76,20.932-11.579a6.08,6.08,0,0,1,5.56.021q20.993,11.4,41.959,22.811a5.008,5.008,0,0,1,1.788,1.221q-34.342.032-68.689.005c-.818.11-1.825-.289-2.5.347a1.33,1.33,0,0,0,1,2.267q57.194.047,114.4-.005c1.7.132,1.619-2.757-.021-2.594-12.8-.037-25.611.021-38.42-.026C280.587,329.98,264.6,321.552,248.782,312.845Z" transform="translate(1820.523 2934.786)"/><path class="a" d="M529.53,324.49c-1.287-.289-2.764-1.3-3.872-.063.047.689-.069,1.768.865,1.92,1.878.573,3.751,1.2,5.671,1.631a1.345,1.345,0,0,0,.464-2.541C531.64,325.053,530.569,324.816,529.53,324.49Z" transform="translate(1461.19 2928.955)"/><path class="a" d="M248.825,327.032c-1.208-.652-2.738-.189-4.073-.321H213.086a1.31,1.31,0,0,0-1.118,2.257c.538.61,1.477.284,2.179.384,11.247-.032,22.494.011,33.735-.021A1.35,1.35,0,0,0,248.825,327.032Z" transform="translate(1911.089 2927.607)"/><path class="a" d="M123.031,344.854l-.485-.331q-10-.087-20-.005c-1.514-.053-1.54,2.62-.011,2.573,6.494.074,12.993.016,19.492.032A1.335,1.335,0,0,0,123.031,344.854Z" transform="translate(2094.99 2919.166)"/><path class="a" d="M217.537,345.035c-.169-.137-.512-.405-.68-.542-19.017-.079-38.035-.011-57.052-.032a1.335,1.335,0,0,0-1.24,2.2c.506.737,1.588.31,2.332.442,18.474-.026,36.948.005,55.417-.016A1.328,1.328,0,0,0,217.537,345.035Z" transform="translate(1970.663 2919.195)"/><path class="a" d="M537,357.819a1.349,1.349,0,0,0-.047-2.609,59.792,59.792,0,0,0-5.9,1.336c-1.139.316-1.087,1.789-.338,2.494C532.866,359.066,534.913,358.267,537,357.819Z" transform="translate(1454.235 2914.081)"/><path class="a" d="M201.237,363.806c-2.237-.8-4.853-.163-7.243-.358-1.488-.263-1.862,2.22-.475,2.567,2.258.126,4.521.074,6.779.032C201.448,366.168,201.9,364.558,201.237,363.806Z" transform="translate(1968.716 2910.204)"/><path class="a" d="M525.372,382.249a1.6,1.6,0,0,0-1.678.584c-1.224,1.242-2.616,2.325-3.751,3.656-.855,1.078.686,2.688,1.783,1.847,1.356-1.115,2.548-2.42,3.872-3.572A1.422,1.422,0,0,0,525.372,382.249Z" transform="translate(1471.489 2901.299)"/><path class="a" d="M436.9,394.787a1.338,1.338,0,0,0-2.142,1.478c1.166,1.547,2.653,2.8,3.909,4.277.58.694,2.205.484,2.258-.542.253-.8-.343-1.394-.849-1.9C439.028,396.986,437.983,395.87,436.9,394.787Z" transform="translate(1601.612 2895.5)"/><path class="a" d="M501.332,400.951c-.475-.821-2.152-.737-2.326.295a37.3,37.3,0,0,0-1.583,5.8c-.032,1.5,2.58,1.394,2.632-.047C500.4,404.986,501.8,402.976,501.332,400.951Z" transform="translate(1508.063 2892.667)"/><path class="a" d="M468.348,405.178c-.649-.552-2.289-.289-2.147.815a36.245,36.245,0,0,0,1.266,5.761c.243,1.552,2.928,1.079,2.553-.479C469.487,409.25,469.3,407.051,468.348,405.178Z" transform="translate(1555.907 2890.533)"/><path class="a" d="M459.523,319.9a17.15,17.15,0,0,1,12.144,2.494,16.9,16.9,0,0,1-2.274,29.582,17.2,17.2,0,0,1-17.4-2.057,16.887,16.887,0,0,1,7.528-30.019m-.675,22.075c-1.846-1.573-3.387-3.462-5.233-5.024-.844.121-1.841,1.042-1.124,1.878,1.519,1.668,3.2,3.183,4.758,4.819.5.426.918,1.11,1.662,1.1a5.055,5.055,0,0,0,1.556-1.247c3.946-4.04,8.071-7.918,11.938-12.032a2.126,2.126,0,0,0-1.393-1.515C466.824,333.821,462.9,337.966,458.848,341.975Z" transform="translate(1555.452 2932.92)"/></g></svg>