<svg xmlns="http://www.w3.org/2000/svg" viewBox="9101.4 2873.241 234.029 126.359"><defs><style>.a,.c{fill:#0574eb;}.b{fill:#fff;}.c{opacity:0.22;}.d{fill:#b3e2fa;}</style></defs><g transform="translate(7117 -304)"><path class="a" d="M340.376,182a6.6,6.6,0,0,1,8.668-.264c2.153,1.9,4.258,3.862,6.41,5.761,8.774.016,17.548-.005,26.322.011a1.99,1.99,0,0,1,2.211,2.058c.021,1.593-.016,3.192,0,4.785,1.989.306,4.384-.665,6.088.644.053.243.169.728.222.976.053,7.671.005,15.348.026,23.019q3.466,3.158,7.017,6.236a2.145,2.145,0,0,1,1.024,1.847q0,11.38,0,22.766c-.084,1.314-2.538,1.266-2.474-.084-.1-6.985.032-13.976-.063-20.961q-17.68,11.23-35.391,22.407a1.337,1.337,0,0,1-1.852-1.841,27.1,27.1,0,0,1,3.667-2.432c4.759-3.076,9.565-6.073,14.345-9.112,1.593-1.024,3.192-2.036,4.817-3.013.158-14.883.026-29.772.063-44.655q-35.6-.008-71.214,0c.016,14.915-.053,29.841.032,44.756,1.836,1.087,3.614,2.263,5.413,3.408,4.5,2.854,9.011,5.682,13.48,8.579,1.293.849,2.691,1.551,3.9,2.527,1.06,1.187-.712,3.028-1.9,1.873q-17.664-11.166-35.306-22.386c-.021,13.454.047,26.912-.032,40.366-.311,1.519-2.838.981-2.591-.543-.042-13.533.005-27.071-.026-40.6.074-.681-.174-1.541.422-2.047,2.474-2.612,5.429-4.859,7.74-7.555.069-7.529-.005-15.068.032-22.6a1.414,1.414,0,0,1,1.229-1.514c1.657-.116,3.324.016,4.986-.084.011-1.746-.121-3.5.058-5.234a2.18,2.18,0,0,1,2.237-1.577c8.241-.053,16.487.074,24.728-.063,1.841-1.878,3.793-3.651,5.714-5.445m-1.7,5.492c4.337.021,8.679.005,13.016.011-2.3-1.657-4.089-5.049-7.339-4.553-2.374.76-3.751,3.081-5.677,4.543m-34.61,9.518c-.026,11.269.016,22.544-.021,33.813a39.528,39.528,0,0,0,3.567,2.306q.024-18.059,0-36.124-1.773-.016-3.545.005m79.914.011c.026,12.024-.005,24.048.016,36.066,1.25-.728,2.469-1.514,3.677-2.306q.032-16.888.005-33.771c-1.235-.021-2.469-.021-3.7.011m-85.918,28.6h3.35c.005-1.066.016-2.137.026-3.2-1.161,1.029-2.306,2.079-3.377,3.2m92.276-2.928a27.494,27.494,0,0,0,.042,2.949c.987-.021,1.973-.011,2.96-.021-.723-1.213-2.01-1.947-3-2.928m-90.192,5.466c-.3.665.913,1.282,1.43.892.5-.818-.865-1.409-1.43-.892m90.239.084q-.562,1.068.686.58Q391.708,227.8,390.381,228.241Z" transform="translate(1792.378 2997)"/><path class="b" d="M379.36,189.869c1.926-1.461,3.3-3.783,5.677-4.543,3.25-.5,5.039,2.9,7.339,4.553C388.039,189.874,383.7,189.89,379.36,189.869Z" transform="translate(1751.69 2994.621)"/><path class="c" d="M335.623,211a6.644,6.644,0,0,1,2.543-.28q27.43.04,54.864.005c1.145.063,2.416-.211,3.45.427a5.867,5.867,0,0,1,.253,2.353c-.069,6.869.079,13.738-.069,20.6.058.8-.939.934-1.519.9Q365.841,235,336.531,235a1.27,1.27,0,0,1-1.519-1.43c-.047-6.875.005-13.749-.021-20.624.053-.675-.127-1.6.633-1.947m9.1,4.427c-3.06,1.256-3.107,6.115-.095,7.45a4.156,4.156,0,1,0,.095-7.45m14.641.338a15.384,15.384,0,0,0-.047,3.039c2.448.237,4.907.053,7.36.111,8.806-.047,17.611.095,26.411-.074a10.683,10.683,0,0,0-.074-3.123c-2.981-.222-5.972-.047-8.958-.1-8.225.095-16.477-.2-24.691.148m-.037,5.614a14.572,14.572,0,0,0,.042,3.108q16.8.261,33.629.005a10.4,10.4,0,0,0,.1-3.108q-16.88-.237-33.771-.005m-19.479,9.4c4.485-.069,8.99.185,13.464-.127-.158-1.646-.5-3.45-1.884-4.527-1.957-1.625-4.659-.834-6.975-1.008-2.939-.121-4.965,2.923-4.606,5.661m19.452-3.73c-.037,1-.037,1.994-.005,3,11.269.164,22.544.095,33.813.032q.079-1.527.005-3.055C381.845,226.937,370.566,226.89,359.3,227.043Z" transform="translate(1772.651 2982.602)"/><path class="c" d="M313.741,212.009q1.773-.024,3.545-.005.024,18.059,0,36.124a39.534,39.534,0,0,1-3.566-2.306C313.757,234.553,313.715,223.278,313.741,212.009Z" transform="translate(1782.699 2981.999)"/><path class="c" d="M465.23,212.017c1.229-.032,2.464-.032,3.7-.011q.008,16.88-.005,33.771c-1.208.791-2.427,1.577-3.677,2.306C465.225,236.065,465.256,224.041,465.23,212.017Z" transform="translate(1711.124 2982)"/><path class="a" d="M351.358,219.28a4.156,4.156,0,1,1-.095,7.45C348.251,225.394,348.3,220.535,351.358,219.28Z" transform="translate(1766.016 2978.748)"/><path class="a" d="M381.1,220.125c8.215-.343,16.466-.053,24.691-.148,2.986.053,5.978-.121,8.959.1a10.684,10.684,0,0,1,.074,3.123c-8.8.169-17.606.026-26.411.074-2.453-.058-4.912.127-7.36-.111A15.388,15.388,0,0,1,381.1,220.125Z" transform="translate(1750.915 2978.24)"/><path class="a" d="M381.064,230.82q16.88-.222,33.771.005a10.4,10.4,0,0,1-.1,3.108q-16.8.229-33.629-.005A14.574,14.574,0,0,1,381.064,230.82Z" transform="translate(1750.914 2973.159)"/><path class="a" d="M344.163,243.622c-.359-2.738,1.667-5.782,4.606-5.661,2.316.174,5.017-.617,6.975,1.008,1.388,1.076,1.725,2.881,1.884,4.527C353.153,243.807,348.648,243.554,344.163,243.622Z" transform="translate(1768.336 2969.753)"/><path class="a" d="M381.045,241.57c11.264-.153,22.544-.106,33.813-.026q.071,1.527-.005,3.055c-11.269.063-22.544.132-33.813-.032C381.008,243.564,381.008,242.567,381.045,241.57Z" transform="translate(1750.907 2968.075)"/><path class="b" d="M302.38,263.382c1.071-1.124,2.216-2.174,3.377-3.2-.011,1.066-.021,2.137-.026,3.2Z" transform="translate(1788.056 2959.236)"/><path class="b" d="M477.263,260.7c.992.981,2.279,1.715,3,2.928-.987.011-1.973,0-2.96.021A27.5,27.5,0,0,1,477.263,260.7Z" transform="translate(1705.448 2958.99)"/><path class="c" d="M336.023,261.67a31.646,31.646,0,0,1,5.244-.185c7.207-.005,14.409.011,21.61-.01a5.176,5.176,0,0,1,1.957.306c.026,3.118.09,6.241-.016,9.359l-.512.448q-14.087.135-28.184,0C335.818,268.3,336,264.972,336.023,261.67Z" transform="translate(1772.197 2958.627)"/><path class="c" d="M397.534,262.819c-.053-1.293,1.382-1.372,2.327-1.335,8.093.026,16.187-.021,24.28.021.755-.063,1.709.406,1.646,1.287.137,4.463.026,8.932.053,13.4-4.78,3.039-9.586,6.036-14.345,9.112-1.129-.7-2.474-.438-3.725-.47-2.97-.026-5.946.084-8.916-.042-1.308.058-1.425-1.493-1.372-2.448C397.529,275.829,397.418,269.319,397.534,262.819Z" transform="translate(1743.134 2958.623)"/><path class="d" d="M306.289,270.886c.565-.517,1.931.074,1.43.892C307.2,272.168,305.993,271.551,306.289,270.886Z" transform="translate(1786.231 2954.27)"/><path class="d" d="M477.213,271.1q1.33-.443.686.58Q476.649,272.171,477.213,271.1Z" transform="translate(1705.545 2954.14)"/><path class="c" d="M335.994,286.725a6.663,6.663,0,0,1,2.015-.248q12.409.032,24.818,0a5.681,5.681,0,0,1,1.947.29c0,3.113.158,6.241-.069,9.349-.121.111-.353.332-.475.443-4.337.211-8.695.016-13.037.079a4.556,4.556,0,0,0-1.884.433c-4.469-2.9-8.98-5.724-13.48-8.579C335.872,288.049,335.951,287.168,335.994,286.725Z" transform="translate(1772.254 2946.814)"/><path class="a" d="M511.58,297c1.124-1.045,2.981.654,1.936,1.825a50.962,50.962,0,0,1-4.247,4.358,1.4,1.4,0,0,1-1.836-1.609A54.768,54.768,0,0,1,511.58,297Z" transform="translate(1691.206 2941.997)"/><path class="a" d="M305.934,312.849a9.279,9.279,0,0,1,9.513-.037c6.616,3.741,13.285,7.392,19.9,11.138a1.346,1.346,0,0,1-.929,2.474c-7.027-3.772-13.934-7.782-20.935-11.612a6.066,6.066,0,0,0-5.561.021q-21,11.428-41.965,22.876a5.009,5.009,0,0,0-1.789,1.224q34.346.032,68.7.005c.818.111,1.826-.29,2.5.348a1.334,1.334,0,0,1-1,2.274q-57.2.047-114.414-.005c-1.7.132-1.62-2.765.021-2.6,12.8-.037,25.615.021,38.425-.026C274.126,330.033,290.112,321.581,305.934,312.849Z" transform="translate(1827.579 2934.983)"/><path class="a" d="M459.525,319.9a16.948,16.948,0,1,1-13.3,11.554,16.923,16.923,0,0,1,13.3-11.554m-.675,22.138c-1.847-1.577-3.387-3.472-5.234-5.038-.844.121-1.841,1.045-1.124,1.883,1.519,1.672,3.2,3.192,4.759,4.833.5.427.918,1.113,1.662,1.108a5.057,5.057,0,0,0,1.556-1.25c3.946-4.052,8.072-7.94,11.939-12.066a2.13,2.13,0,0,0-1.393-1.519C466.827,333.861,462.9,338.018,458.849,342.039Z" transform="translate(1720.475 2931.129)"/><path class="a" d="M529.532,324.492c1.287-.29,2.765-1.308,3.872-.063-.047.691.069,1.773-.865,1.926-1.878.575-3.751,1.2-5.672,1.636a1.35,1.35,0,0,1-.464-2.548C527.421,325.057,528.492,324.819,529.532,324.492Z" transform="translate(1682.577 2929.17)"/><path class="a" d="M211.919,327.033c1.208-.654,2.738-.19,4.073-.322h31.671a1.314,1.314,0,0,1,1.119,2.263c-.538.612-1.477.285-2.179.385-11.248-.032-22.5.011-33.74-.021A1.355,1.355,0,0,1,211.919,327.033Z" transform="translate(1830.976 2927.827)"/><path class="b" d="M464.947,351.27c4.052-4.02,7.977-8.178,12.166-12.05a2.13,2.13,0,0,1,1.393,1.519c-3.867,4.126-7.993,8.014-11.939,12.066a5.058,5.058,0,0,1-1.556,1.25c-.744.005-1.166-.681-1.662-1.108-1.562-1.641-3.239-3.16-4.759-4.833-.717-.839.28-1.762,1.124-1.883C461.56,347.8,463.1,349.693,464.947,351.27Z" transform="translate(1714.377 2921.897)"/><path class="a" d="M101.78,344.855l.485-.332q10-.087,20-.005c1.514-.053,1.541,2.627.011,2.58-6.495.074-12.995.016-19.495.032C101.6,347.329,100.936,345.614,101.78,344.855Z" transform="translate(1883 2919.412)"/><path class="a" d="M158.447,345.037c.169-.137.512-.406.681-.543,19.02-.079,38.039-.011,57.059-.032a1.338,1.338,0,0,1,1.24,2.205c-.507.739-1.588.311-2.332.443-18.476-.026-36.953.005-55.424-.016A1.331,1.331,0,0,1,158.447,345.037Z" transform="translate(1856.158 2919.441)"/><path class="a" d="M531.149,357.827a1.354,1.354,0,0,1,.047-2.617,59.667,59.667,0,0,1,5.9,1.34c1.14.317,1.087,1.794.338,2.5C535.28,359.077,533.233,358.275,531.149,357.827Z" transform="translate(1680.448 2914.343)"/><path class="a" d="M192.964,363.807c2.237-.8,4.854-.164,7.244-.359,1.488-.264,1.862,2.226.475,2.575-2.258.127-4.521.074-6.78.032C192.753,366.176,192.3,364.561,192.964,363.807Z" transform="translate(1839.891 2910.479)"/><path class="a" d="M520.574,382.249a1.593,1.593,0,0,1,1.678.586c1.224,1.245,2.617,2.332,3.751,3.667.855,1.082-.686,2.7-1.783,1.852-1.356-1.118-2.548-2.427-3.872-3.582A1.428,1.428,0,0,1,520.574,382.249Z" transform="translate(1685.394 2901.602)"/><path class="a" d="M438.742,394.788a1.339,1.339,0,0,1,2.142,1.482c-1.166,1.551-2.654,2.812-3.909,4.289-.58.7-2.205.485-2.258-.543-.253-.807.343-1.4.849-1.91C436.615,396.993,437.66,395.874,438.742,394.788Z" transform="translate(1725.568 2895.822)"/><path class="a" d="M497.516,400.952c.475-.823,2.153-.739,2.327.3a37.481,37.481,0,0,1,1.583,5.814c.032,1.5-2.58,1.4-2.633-.047C498.45,405,497.052,402.983,497.516,400.952Z" transform="translate(1695.916 2892.997)"/><path class="a" d="M467.9,405.179c.649-.554,2.29-.29,2.147.818a36.435,36.435,0,0,1-1.266,5.777c-.243,1.556-2.928,1.082-2.554-.48C466.761,409.262,466.951,407.057,467.9,405.179Z" transform="translate(1710.669 2890.87)"/></g></svg>