<?xml version="1.0" encoding="utf-8"?>
<!-- Generator: Adobe Illustrator 21.1.0, SVG Export Plug-In . SVG Version: 6.00 Build 0)  -->
<svg version="1.1" id="Layer_1" xmlns="http://www.w3.org/2000/svg" xmlns:xlink="http://www.w3.org/1999/xlink" x="0px" y="0px"
	 viewBox="0 0 126 44" style="enable-background:new 0 0 126 44;" xml:space="preserve">
<style type="text/css">
	.st0{fill:url(#SVGID_1_);}
	.st1{fill:url(#SVGID_2_);}
	.st2{fill:url(#SVGID_3_);}
	.st3{fill:url(#SVGID_4_);}
	.st4{fill:url(#SVGID_5_);}
	.st5{fill:url(#SVGID_6_);}
	.st6{fill:#FFFFFF;}
	.st7{fill:#1C1C36;}
</style>
<g>
	
		<linearGradient id="SVGID_1_" gradientUnits="userSpaceOnUse" x1="-181.3397" y1="-128.4524" x2="-140.4279" y2="-103.5821" gradientTransform="matrix(0.866 -0.5 -0.5 -0.866 103.9282 -160.0295)">
		<stop  offset="0" style="stop-color:#0000FF"/>
		<stop  offset="1" style="stop-color:#00FFFF"/>
	</linearGradient>
	<path class="st0" d="M18,1.8L6.5,8.4c-2.5,1.4-4,4.1-4,6.9v13.3c0,2.9,1.5,5.5,4,6.9L18,42.2c2.5,1.4,5.5,1.4,8,0l11.5-6.6
		c2.5-1.4,4-4.1,4-6.9V15.4c0-2.9-1.5-5.5-4-6.9L26,1.8C23.5,0.4,20.5,0.4,18,1.8z"/>
	
		<radialGradient id="SVGID_2_" cx="-80.6228" cy="8.6701" r="148.1421" gradientTransform="matrix(1 0 0 -1 0 44.94)" gradientUnits="userSpaceOnUse">
		<stop  offset="0" style="stop-color:#0000FF"/>
		<stop  offset="1" style="stop-color:#FFFFFF;stop-opacity:0"/>
	</radialGradient>
	<path class="st1" d="M33.7,9.5c3,0.5,5.2,1.6,7.2,2.8c-0.7-1.6-1.8-3-3.4-3.9L26,1.8c-2.5-1.4-5.5-1.4-8,0L6.6,8.4
		c2.1,1.9,4.7,3.5,7.4,4.2C21.9,14.6,24.5,8,33.7,9.5z"/>
	
		<radialGradient id="SVGID_3_" cx="26.4095" cy="53.7044" r="29.4006" gradientTransform="matrix(1 0 0 -1 0 44.94)" gradientUnits="userSpaceOnUse">
		<stop  offset="0" style="stop-color:#00FFFF;stop-opacity:0"/>
		<stop  offset="9.987096e-02" style="stop-color:#00FAFF;stop-opacity:9.987096e-02"/>
		<stop  offset="0.2236" style="stop-color:#00EAFF;stop-opacity:0.2236"/>
		<stop  offset="0.36" style="stop-color:#00D1FF;stop-opacity:0.36"/>
		<stop  offset="0.5056" style="stop-color:#00AEFF;stop-opacity:0.5056"/>
		<stop  offset="0.6584" style="stop-color:#0081FF;stop-opacity:0.6584"/>
		<stop  offset="0.8173" style="stop-color:#0049FF;stop-opacity:0.8173"/>
		<stop  offset="0.9784" style="stop-color:#0009FF;stop-opacity:0.9784"/>
		<stop  offset="1" style="stop-color:#0000FF"/>
	</radialGradient>
	<path class="st2" d="M33.7,9.5c3,0.5,5.2,1.6,7.2,2.8c-0.7-1.6-1.8-3-3.4-3.9L26,1.8c-2.5-1.4-5.5-1.4-8,0L6.6,8.4
		c2.1,1.9,4.7,3.5,7.4,4.2C21.9,14.6,24.5,8,33.7,9.5z"/>
	
		<linearGradient id="SVGID_4_" gradientUnits="userSpaceOnUse" x1="9.0261" y1="-14.3877" x2="35.1171" y2="33.2597" gradientTransform="matrix(1 0 0 -1 0 44.94)">
		<stop  offset="0" style="stop-color:#0000FF"/>
		<stop  offset="1" style="stop-color:#00FFFF"/>
	</linearGradient>
	<path class="st3" d="M18.3,37.8c-5.2,0.6-9.4-1.1-12.7-2.9c0.3,0.2,0.6,0.5,1,0.7L18,42.2c2.5,1.4,5.5,1.4,8,0l11.5-6.6
		c2.4-1.4,3.8-3.8,4-6.5c-2.5,0.4-5,1-7.3,1.8C25.1,33.8,24.6,37.1,18.3,37.8z"/>
	
		<radialGradient id="SVGID_5_" cx="-113.7122" cy="27.045" r="30.1981" gradientTransform="matrix(0.8582 -0.5133 -0.8902 -1.4885 137.7592 25.2075)" gradientUnits="userSpaceOnUse">
		<stop  offset="0" style="stop-color:#0000FF"/>
		<stop  offset="1" style="stop-color:#00FFFF"/>
	</radialGradient>
	<path class="st4" d="M18.3,37.8c-5.2,0.6-9.4-1.1-12.7-2.9c0.3,0.2,0.6,0.5,1,0.7L18,42.2c2.5,1.4,5.5,1.4,8,0l11.5-6.6
		c2.4-1.4,3.8-3.8,4-6.5c-2.5,0.4-5,1-7.3,1.8C25.1,33.8,24.6,37.1,18.3,37.8z"/>
	
		<radialGradient id="SVGID_6_" cx="-461.6617" cy="103.3688" r="17.7729" gradientTransform="matrix(-0.4046 -0.9145 -1.507 0.6668 9.3352 -445.7966)" gradientUnits="userSpaceOnUse">
		<stop  offset="0" style="stop-color:#00FFFF;stop-opacity:0"/>
		<stop  offset="9.987096e-02" style="stop-color:#00FAFF;stop-opacity:9.987096e-02"/>
		<stop  offset="0.2236" style="stop-color:#00EAFF;stop-opacity:0.2236"/>
		<stop  offset="0.36" style="stop-color:#00D1FF;stop-opacity:0.36"/>
		<stop  offset="0.5056" style="stop-color:#00AEFF;stop-opacity:0.5056"/>
		<stop  offset="0.6584" style="stop-color:#0081FF;stop-opacity:0.6584"/>
		<stop  offset="0.8173" style="stop-color:#0049FF;stop-opacity:0.8173"/>
		<stop  offset="0.9784" style="stop-color:#0009FF;stop-opacity:0.9784"/>
		<stop  offset="1" style="stop-color:#0000FF"/>
	</radialGradient>
	<path class="st5" d="M18.3,37.8c-5.2,0.6-9.4-1.1-12.7-2.9c0.3,0.2,0.6,0.5,1,0.7L18,42.2c2.5,1.4,5.5,1.4,8,0l11.5-6.6
		c2.4-1.4,3.8-3.8,4-6.5c-2.5,0.4-5,1-7.3,1.8C25.1,33.8,24.6,37.1,18.3,37.8z"/>
	<path class="st6" d="M30.7,24.7l-2.1-2.1c-0.5,0.5-1.3,0.9-2.1,0.9c-1.7,0-3-1.3-3-3v-10h-3v17c0,1.7-1.3,3-3,3
		c-0.8,0-1.6-0.3-2.1-0.9l-2.1,2.1c1.1,1.1,2.6,1.8,4.2,1.8c3.3,0,6-2.7,6-6v-1.8c0.9,0.5,1.9,0.8,3,0.8
		C28.2,26.5,29.7,25.8,30.7,24.7z"/>
</g>
<g>
	<path class="st7" d="M51.7,9.1c0.1,0,0.4-0.1,0.7-0.1s0.6-0.1,0.9-0.1c0.3,0,0.6,0,0.8,0.1c0.2,0,0.4,0.1,0.6,0.2
		C54.9,9.3,55,9.5,55,9.7c0.1,0.2,0.1,0.5,0.1,0.8v7.2c0,1.1-0.3,2-1,2.6s-1.6,0.9-2.9,0.9c-0.7,0-1.2-0.1-1.6-0.3
		c-0.3-0.1-0.5-0.3-0.6-0.6c-0.1-0.2-0.2-0.5-0.2-0.8s0-0.5,0.1-0.7s0.2-0.3,0.3-0.5c0.2,0.1,0.5,0.1,0.6,0.1c0.2,0,0.4,0,0.6,0
		c0.5,0,0.9-0.1,1.1-0.4c0.2-0.3,0.3-0.6,0.3-1.1L51.7,9.1L51.7,9.1z"/>
	<path class="st7" d="M57.2,8.9c0-0.5,0.2-0.9,0.5-1.2C58,7.3,58.5,7.1,59,7.1s1,0.2,1.3,0.5s0.5,0.7,0.5,1.2s-0.2,0.9-0.5,1.2
		s-0.8,0.5-1.3,0.5s-1-0.2-1.3-0.5C57.4,9.8,57.2,9.3,57.2,8.9z M60.6,20.9c-0.1,0-0.4,0.1-0.6,0.1c-0.3,0-0.6,0.1-0.8,0.1
		c-0.3,0-0.5,0-0.8-0.1c-0.2,0-0.4-0.1-0.6-0.2c-0.2-0.1-0.3-0.3-0.4-0.5c-0.1-0.2-0.1-0.5-0.1-0.8v-7.9c0.1,0,0.4-0.1,0.6-0.1
		c0.3,0,0.6-0.1,0.8-0.1c0.3,0,0.5,0,0.8,0.1c0.2,0,0.4,0.1,0.6,0.2c0.2,0.1,0.3,0.3,0.4,0.5c0.1,0.2,0.1,0.5,0.1,0.8V20.9z"/>
	<path class="st7" d="M62.8,8.3c0.1,0,0.3-0.1,0.6-0.1s0.6-0.1,0.9-0.1s0.5,0,0.8,0.1c0.2,0,0.4,0.1,0.6,0.2C65.9,8.5,66,8.7,66,8.9
		c0.1,0.2,0.1,0.5,0.1,0.8v1.9c0.3-0.1,0.6-0.2,0.9-0.3s0.6-0.1,1-0.1c0.6,0,1.2,0.1,1.8,0.3c0.6,0.2,1,0.5,1.5,1
		c0.4,0.4,0.8,0.9,1,1.6c0.2,0.6,0.4,1.3,0.4,2.1c0,0.8-0.1,1.6-0.4,2.2s-0.6,1.1-1.1,1.6c-0.5,0.4-1,0.7-1.7,0.9
		c-0.7,0.2-1.4,0.3-2.2,0.3c-0.9,0-1.6-0.1-2.2-0.3c-0.6-0.2-1.1-0.4-1.5-0.7c-0.6-0.4-0.9-0.9-0.9-1.5L62.8,8.3L62.8,8.3z
		 M67.3,18.6c0.6,0,1.1-0.2,1.4-0.6s0.5-1,0.5-1.8c0-0.8-0.2-1.4-0.5-1.8c-0.3-0.4-0.8-0.6-1.4-0.6c-0.3,0-0.5,0-0.7,0.1
		S66.2,14,66,14.1v4.2c0.1,0.1,0.3,0.2,0.5,0.2C66.8,18.6,67,18.6,67.3,18.6z"/>
	<path class="st7" d="M77.5,20.9c-0.1,0-0.3,0.1-0.6,0.1s-0.6,0-0.9,0s-0.5,0-0.8-0.1c-0.2,0-0.4-0.1-0.6-0.2s-0.3-0.3-0.4-0.5
		s-0.1-0.5-0.1-0.8v-5.8c0-0.3,0.1-0.6,0.2-0.8s0.3-0.4,0.5-0.6c0.2-0.2,0.5-0.3,0.8-0.5c0.3-0.1,0.6-0.3,1-0.4
		c0.3-0.1,0.7-0.2,1.1-0.2c0.4-0.1,0.7-0.1,1.1-0.1c0.6,0,1.1,0.1,1.5,0.4c0.4,0.2,0.5,0.6,0.5,1.2c0,0.2,0,0.4-0.1,0.5
		c-0.1,0.2-0.1,0.3-0.2,0.5c-0.3,0-0.5,0-0.8,0s-0.6,0.1-0.8,0.1c-0.3,0.1-0.5,0.1-0.8,0.2c-0.2,0.1-0.4,0.1-0.6,0.2
		C77.5,14.1,77.5,20.9,77.5,20.9z"/>
	<path class="st7" d="M86.7,21.2c-0.8,0-1.5-0.1-2.1-0.3c-0.7-0.2-1.2-0.5-1.7-1c-0.5-0.4-0.9-1-1.1-1.6c-0.3-0.6-0.4-1.4-0.4-2.3
		c0-0.9,0.1-1.6,0.4-2.2c0.3-0.6,0.6-1.1,1.1-1.5s1-0.7,1.5-0.9c0.6-0.2,1.2-0.3,1.8-0.3c0.7,0,1.3,0.1,1.9,0.3s1,0.5,1.5,0.9
		c0.4,0.4,0.7,0.8,0.9,1.3c0.2,0.5,0.3,1.1,0.3,1.6c0,0.4-0.1,0.8-0.4,1c-0.2,0.2-0.6,0.4-1,0.4l-4.8,0.7c0.1,0.4,0.4,0.7,0.9,1
		c0.4,0.2,0.9,0.3,1.5,0.3c0.5,0,1-0.1,1.5-0.2s0.9-0.3,1.2-0.5c0.2,0.1,0.4,0.3,0.5,0.5s0.2,0.5,0.2,0.7c0,0.6-0.3,1-0.8,1.3
		c-0.4,0.2-0.9,0.4-1.4,0.4C87.7,21.2,87.2,21.2,86.7,21.2z M86.2,13.6c-0.3,0-0.6,0.1-0.8,0.2c-0.2,0.1-0.4,0.2-0.6,0.4
		c-0.1,0.2-0.2,0.3-0.3,0.5c-0.1,0.2-0.1,0.4-0.1,0.6l3.3-0.5c0-0.3-0.2-0.5-0.4-0.8C87,13.7,86.7,13.6,86.2,13.6z"/>
	<path class="st7" d="M95.7,20.9c-0.1,0-0.4,0.1-0.6,0.1c-0.3,0-0.6,0.1-0.8,0.1c-0.3,0-0.5,0-0.8-0.1s-0.4-0.1-0.6-0.2
		s-0.3-0.3-0.4-0.5s-0.1-0.5-0.1-0.8V8.3c0.1,0,0.4-0.1,0.6-0.1c0.3,0,0.6-0.1,0.8-0.1c0.3,0,0.5,0,0.8,0.1c0.2,0,0.4,0.1,0.6,0.2
		c0.2,0.1,0.3,0.3,0.4,0.5s0.1,0.5,0.1,0.8V20.9z"/>
	<path class="st7" d="M60.2,35.3c-0.2,0.2-0.4,0.3-0.8,0.4c-0.3,0.1-0.8,0.1-1.2,0.1c-0.5,0-0.9-0.1-1.4-0.2c-0.4-0.1-0.8-0.5-1-1
		l-1.9-3.9c-0.2-0.4-0.4-0.8-0.5-1.1c-0.2-0.4-0.3-0.8-0.5-1.2h-0.1c0.1,0.7,0.1,1.4,0.1,2.1c0,0.7,0,1.4,0,2.1v3
		c-0.1,0-0.4,0.1-0.6,0.1c-0.3,0-0.6,0.1-0.9,0.1c-0.3,0-0.5,0-0.8-0.1c-0.2,0-0.4-0.1-0.5-0.2c-0.1-0.1-0.3-0.3-0.3-0.5
		c-0.1-0.2-0.1-0.5-0.1-0.8v-9.7c0.2-0.3,0.5-0.5,0.8-0.6c0.4-0.1,0.8-0.2,1.2-0.2c0.5,0,0.9,0.1,1.4,0.2c0.4,0.1,0.8,0.5,1,1
		l1.9,3.9c0.2,0.4,0.4,0.8,0.5,1.1c0.2,0.4,0.3,0.8,0.5,1.2h0.1C57,30.6,57,29.9,57,29.2c0-0.7,0-1.4,0-2.1V24
		c0.1,0,0.4-0.1,0.6-0.1c0.3,0,0.6-0.1,0.9-0.1c0.6,0,1,0.1,1.3,0.3c0.3,0.2,0.4,0.6,0.4,1.2V35.3z"/>
	<path class="st7" d="M67.4,36c-0.8,0-1.5-0.1-2.1-0.3c-0.7-0.2-1.2-0.5-1.7-1c-0.5-0.4-0.9-1-1.1-1.6c-0.3-0.6-0.4-1.4-0.4-2.3
		c0-0.9,0.1-1.6,0.4-2.2c0.3-0.6,0.6-1.1,1.1-1.5s1-0.7,1.5-0.9c0.6-0.2,1.2-0.3,1.8-0.3c0.7,0,1.3,0.1,1.9,0.3
		c0.6,0.2,1,0.5,1.5,0.9c0.4,0.4,0.7,0.8,0.9,1.3c0.2,0.5,0.3,1.1,0.3,1.6c0,0.4-0.1,0.8-0.4,1c-0.2,0.2-0.6,0.4-1,0.4l-4.8,0.7
		c0.1,0.4,0.4,0.7,0.9,1c0.4,0.2,0.9,0.3,1.5,0.3c0.5,0,1-0.1,1.5-0.2s0.9-0.3,1.2-0.5c0.2,0.1,0.4,0.3,0.5,0.5s0.2,0.5,0.2,0.7
		c0,0.6-0.3,1-0.8,1.3c-0.4,0.2-0.9,0.4-1.4,0.4C68.4,36,67.9,36,67.4,36z M66.9,28.4c-0.3,0-0.6,0.1-0.8,0.2s-0.4,0.2-0.6,0.4
		c-0.1,0.2-0.2,0.3-0.3,0.5s-0.1,0.4-0.1,0.6l3.3-0.5c0-0.3-0.2-0.5-0.4-0.8C67.7,28.5,67.4,28.4,66.9,28.4z"/>
	<path class="st7" d="M76.4,32.5c0,0.3,0.1,0.6,0.3,0.7c0.2,0.1,0.5,0.2,0.9,0.2c0.2,0,0.4,0,0.6,0s0.4-0.1,0.5-0.1
		c0.1,0.1,0.2,0.3,0.3,0.5c0.1,0.2,0.1,0.4,0.1,0.6c0,0.5-0.2,0.9-0.6,1.2s-1,0.5-1.9,0.5c-1.1,0-2-0.3-2.6-0.8s-0.9-1.4-0.9-2.5
		v-8.3c0.1,0,0.3-0.1,0.6-0.1c0.3,0,0.5-0.1,0.8-0.1c0.6,0,1,0.1,1.3,0.3c0.3,0.2,0.5,0.6,0.5,1.3V27h2.5c0.1,0.1,0.2,0.3,0.2,0.5
		c0.1,0.2,0.1,0.4,0.1,0.7c0,0.5-0.1,0.8-0.3,1c-0.2,0.2-0.5,0.3-0.8,0.3h-1.8v3H76.4z"/>
	<path class="st7" d="M86.2,35.4c-0.2,0.2-0.4,0.3-0.7,0.4c-0.3,0.1-0.7,0.1-1.1,0.1c-0.5,0-1-0.1-1.4-0.2c-0.4-0.1-0.6-0.4-0.8-0.6
		c-0.1-0.3-0.3-0.8-0.5-1.5s-0.4-1.4-0.6-2.2s-0.4-1.6-0.5-2.4c-0.2-0.8-0.3-1.6-0.4-2.2c0.2-0.2,0.4-0.3,0.7-0.5
		c0.3-0.1,0.6-0.2,1-0.2c0.5,0,0.8,0.1,1.1,0.3c0.3,0.2,0.5,0.5,0.5,1c0.1,1,0.2,1.8,0.3,2.4c0.1,0.6,0.2,1.2,0.2,1.6
		c0.1,0.4,0.1,0.7,0.1,0.9s0.1,0.4,0.1,0.5h0.1c0-0.2,0.1-0.5,0.2-0.9s0.2-0.8,0.3-1.3c0.1-0.5,0.3-1,0.4-1.6s0.3-1.2,0.4-1.8
		c0.3-0.1,0.5-0.3,0.8-0.3c0.3-0.1,0.6-0.1,0.9-0.1c0.5,0,0.8,0.1,1.2,0.2c0.3,0.1,0.5,0.4,0.6,0.7c0.2,0.6,0.3,1.1,0.4,1.7
		c0.1,0.5,0.3,1,0.4,1.5s0.2,0.9,0.3,1.2c0.1,0.4,0.2,0.6,0.2,0.8h0.1c0.1-1,0.3-2,0.4-3.1s0.3-2.2,0.4-3.3c0.2-0.1,0.5-0.2,0.7-0.3
		c0.3-0.1,0.5-0.1,0.8-0.1c0.5,0,0.8,0.1,1.1,0.3c0.3,0.2,0.4,0.5,0.4,1c0,0.2,0,0.5-0.1,0.9s-0.1,0.9-0.3,1.4
		c-0.1,0.5-0.2,1.1-0.4,1.6c-0.1,0.6-0.3,1.1-0.4,1.6s-0.3,1-0.4,1.4s-0.2,0.8-0.3,1c-0.2,0.2-0.5,0.3-0.8,0.4
		c-0.4,0.1-0.8,0.1-1.2,0.1c-1.1,0-1.7-0.3-1.9-0.8c-0.1-0.2-0.2-0.5-0.3-0.9s-0.2-0.7-0.4-1.2c-0.1-0.4-0.3-0.9-0.4-1.3
		c-0.1-0.5-0.2-0.9-0.3-1.3c-0.1,0.5-0.2,0.9-0.3,1.4c-0.1,0.5-0.3,1-0.4,1.4c-0.1,0.5-0.3,0.9-0.4,1.3
		C86.4,34.9,86.3,35.2,86.2,35.4z"/>
	<path class="st7" d="M105.9,31c0,0.8-0.1,1.5-0.4,2.1c-0.2,0.6-0.6,1.2-1,1.6c-0.4,0.4-1,0.7-1.6,1c-0.6,0.2-1.3,0.3-2.1,0.3
		c-0.8,0-1.5-0.1-2.1-0.3s-1.2-0.6-1.6-1s-0.8-1-1-1.6s-0.4-1.3-0.4-2.1c0-0.8,0.1-1.5,0.4-2.1c0.2-0.6,0.6-1.1,1-1.6
		c0.4-0.4,1-0.8,1.6-1s1.3-0.3,2.1-0.3c0.8,0,1.5,0.1,2.1,0.4c0.6,0.2,1.2,0.6,1.6,1s0.8,1,1,1.6C105.8,29.6,105.9,30.2,105.9,31z
		 M99.1,31c0,0.8,0.2,1.4,0.5,1.8c0.3,0.4,0.7,0.6,1.3,0.6s1-0.2,1.2-0.6c0.3-0.4,0.4-1,0.4-1.8s-0.1-1.4-0.4-1.8s-0.7-0.6-1.3-0.6
		c-0.5,0-1,0.2-1.3,0.6C99.3,29.6,99.1,30.2,99.1,31z"/>
	<path class="st7" d="M110.8,35.7c-0.1,0-0.3,0.1-0.6,0.1c-0.3,0-0.6,0.1-0.9,0.1s-0.5,0-0.8-0.1c-0.2,0-0.4-0.1-0.6-0.2
		c-0.2-0.1-0.3-0.3-0.4-0.5s-0.1-0.5-0.1-0.8v-5.8c0-0.3,0.1-0.6,0.2-0.8s0.3-0.4,0.5-0.6s0.5-0.3,0.8-0.5c0.3-0.1,0.6-0.3,1-0.4
		c0.3-0.1,0.7-0.2,1.1-0.2c0.4-0.1,0.7-0.1,1.1-0.1c0.6,0,1.1,0.1,1.5,0.4c0.4,0.2,0.5,0.6,0.5,1.2c0,0.2,0,0.4-0.1,0.5
		c-0.1,0.2-0.1,0.3-0.2,0.5c-0.3,0-0.5,0-0.8,0s-0.6,0.1-0.8,0.1c-0.3,0.1-0.5,0.1-0.8,0.2c-0.2,0.1-0.4,0.1-0.6,0.2
		C110.8,29,110.8,35.7,110.8,35.7z"/>
	<path class="st7" d="M124.7,34c-0.1,0.6-0.2,1.1-0.5,1.4c-0.3,0.3-0.7,0.5-1.3,0.5c-0.4,0-0.8-0.1-1.1-0.3c-0.3-0.2-0.7-0.5-1-1
		l-1.9-2.4v3.5c-0.1,0-0.4,0.1-0.6,0.1s-0.6,0.1-0.8,0.1c-0.3,0-0.5,0-0.8-0.1c-0.2,0-0.4-0.1-0.6-0.2c-0.2-0.1-0.3-0.3-0.4-0.5
		s-0.1-0.5-0.1-0.8V23.1c0.1,0,0.4-0.1,0.6-0.1c0.3,0,0.6-0.1,0.8-0.1s0.5,0,0.8,0.1c0.2,0,0.4,0.1,0.6,0.2s0.3,0.3,0.4,0.5
		s0.1,0.5,0.1,0.8v5.1l3.3-3.4c0.7,0,1.2,0.1,1.6,0.4s0.6,0.7,0.6,1.1c0,0.2,0,0.4-0.1,0.5c-0.1,0.2-0.2,0.3-0.3,0.5
		c-0.1,0.2-0.3,0.3-0.5,0.5s-0.5,0.4-0.7,0.6l-1.1,1L124.7,34z"/>
</g>
</svg>
